<svg width="137" height="134" viewBox="0 0 137 134" fill="none" xmlns="http://www.w3.org/2000/svg">
<rect x="71.2319" y="42.4561" width="74.72" height="29.8057" rx="14.9028" transform="rotate(121.236 71.2319 42.4561)" fill="#FAFAFA"/>
<rect x="115.232" y="42.4561" width="74.72" height="29.8057" rx="14.9028" transform="rotate(121.236 115.232 42.4561)" fill="#FAFAFA"/>
<circle cx="115" cy="86" r="15" fill="#FAFAFA"/>
<path d="M57.999 62C57.999 62 55.999 66 59.999 68C63.999 70 67.999 65 67.999 65M43 87C43 87 49 82.5 53 84.5C57 86.5 58 90.5 58 90.5M88 85C88 85 91.5 83 96 84C100.5 85 102 92 102 92M101 63C101.5 62.5 100 66.5 103 70C106 73.5 112 72 112 72" stroke="#FAFAFA"/>
<path d="M56.5 66.5C58.1 68.9 62.5 69.5 64.5 69.5L60.5 75.5L58 79L56 83.5L53 80L48 79L56 66.5" stroke="#FAFAFA"/>
<path d="M62.574 75.7206C63.967 74.0061 63.7064 71.4869 61.9919 70.0938C60.2773 68.7007 57.7581 68.9613 56.3651 70.6759L59.4695 73.1982L62.574 75.7206ZM59.4064 73.2759L56.302 70.7535L56.0594 71.052L55.8782 71.3913L59.4064 73.2759ZM56.2623 76.8259L54.6089 73.1836L56.2623 76.8259ZM54.5887 79.618L51.1259 81.6204L51.4979 82.2637L52.0761 82.7304L54.5887 79.618ZM54.4493 79.377L57.912 77.3746L55.0058 72.3488L51.3448 76.8546L54.4493 79.377ZM51.2818 76.9322C49.8887 78.6468 50.1493 81.166 51.8639 82.559C53.5784 83.9521 56.0976 83.6915 57.4907 81.977L54.3862 79.4546L51.2818 76.9322ZM59.4695 73.1982L56.3651 70.6759L56.302 70.7535L59.4064 73.2759L62.5109 75.7982L62.574 75.7206L59.4695 73.1982ZM59.4064 73.2759L55.8782 71.3913C55.4802 72.1363 55.1379 72.6185 54.8776 72.9124C54.6156 73.2082 54.5138 73.2268 54.6089 73.1836L56.2623 76.8259L57.9157 80.4682C60.2253 79.4197 61.8017 77.2815 62.9347 75.1604L59.4064 73.2759ZM56.2623 76.8259L54.6089 73.1836C53.0826 73.8765 50.4469 75.627 50.7157 78.9957L54.703 78.6776L58.6904 78.3594C58.7176 78.7013 58.678 79.0733 58.5537 79.438C58.4318 79.7957 58.2575 80.0622 58.1085 80.2392C57.8426 80.5549 57.6637 80.5826 57.9157 80.4682L56.2623 76.8259ZM54.703 78.6776L50.7157 78.9957C50.7444 79.3553 50.7136 79.2623 50.7477 78.9817C50.7592 78.8872 50.7886 78.6788 50.8682 78.4135C50.9321 78.2002 51.121 77.6243 51.6183 77.0366C52.2121 76.3349 53.2938 75.5968 54.7553 75.6409C55.9842 75.6779 56.7981 76.2609 57.1012 76.5056L54.5887 79.618L52.0761 82.7304C52.413 83.0023 53.2576 83.5993 54.5142 83.6372C56.0033 83.6821 57.1097 82.9317 57.7252 82.2044C58.2441 81.5912 58.4516 80.9765 58.5311 80.7112C58.6262 80.394 58.6682 80.1203 58.6892 79.9475C58.7615 79.3534 58.7204 78.7357 58.6904 78.3594L54.703 78.6776ZM54.5887 79.618L58.0514 77.6156L57.912 77.3746L54.4493 79.377L50.9866 81.3793L51.1259 81.6204L54.5887 79.618ZM54.4493 79.377L51.3448 76.8546L51.2818 76.9322L54.3862 79.4546L57.4907 81.977L57.5537 81.8993L54.4493 79.377Z" fill="#FAFAFA"/>
<path d="M54.7485 62.2875C52.9376 61.0222 50.4439 61.4645 49.1786 63.2754C47.9133 65.0863 48.3555 67.58 50.1664 68.8453L52.4575 65.5664L54.7485 62.2875ZM52.5394 65.6237L56.0197 63.652L55.5731 62.8637L54.8305 62.3448L52.5394 65.6237ZM62.4192 73.6248L61.5896 69.7118L62.4192 73.6248ZM64.1961 73.5082L67.9048 75.0067L68.1961 74.2858V73.5082H64.1961ZM64.1141 73.7111L60.4054 72.2127L59.2123 75.1658L61.8231 76.99L64.1141 73.7111ZM61.9051 77.0473C63.716 78.3126 66.2097 77.8703 67.475 76.0594C68.7403 74.2485 68.298 71.7548 66.4871 70.4895L64.1961 73.7684L61.9051 77.0473ZM52.4575 65.5664L50.1664 68.8453L50.2484 68.9026L52.5394 65.6237L54.8305 62.3448L54.7485 62.2875L52.4575 65.5664ZM52.5394 65.6237L49.0591 67.5954C50.9781 70.9827 53.1501 73.7941 55.7084 75.5093L57.936 72.187L60.1636 68.8647C59.1135 68.1607 57.6878 66.5964 56.0197 63.652L52.5394 65.6237ZM57.936 72.187L55.7084 75.5093C57.7557 76.882 60.4276 78.1359 63.2488 77.5378L62.4192 73.6248L61.5896 69.7118C61.8512 69.6563 61.9071 69.7332 61.6315 69.6448C61.3479 69.5539 60.8646 69.3347 60.1636 68.8647L57.936 72.187ZM62.4192 73.6248L63.2488 77.5378C63.8044 77.42 64.0171 77.3985 64.0137 77.3987C63.998 77.3997 63.9274 77.4041 63.8182 77.4006C63.7243 77.3976 63.4963 77.3861 63.1987 77.3185C62.9531 77.2627 62.3044 77.0928 61.6453 76.557C60.8359 75.8991 60.1961 74.8216 60.1961 73.5082H64.1961H68.1961C68.1961 72.1515 67.5378 71.0373 66.6914 70.3493C65.9953 69.7834 65.2911 69.59 64.9714 69.5174C64.3141 69.368 63.73 69.4001 63.4901 69.4159C62.8943 69.4549 62.2185 69.5784 61.5896 69.7118L62.4192 73.6248ZM64.1961 73.5082L60.4874 72.0098L60.4054 72.2127L64.1141 73.7111L67.8229 75.2095L67.9048 75.0067L64.1961 73.5082ZM64.1141 73.7111L61.8231 76.99L61.9051 77.0473L64.1961 73.7684L66.4871 70.4895L66.4052 70.4322L64.1141 73.7111Z" fill="#FAFAFA"/>
<path d="M68.6161 75.0803C70.7952 74.7172 72.2673 72.6563 71.9041 70.4772C71.5409 68.2981 69.48 66.826 67.3009 67.1892L67.9585 71.1348L68.6161 75.0803ZM67.8599 71.1512L67.2023 67.2056L66.3274 67.3515L65.5961 67.8535L67.8599 71.1512ZM61.384 73.461L60.6803 77.3986L61.384 73.461ZM56.6714 73.2761L52.9038 71.9326L52.6714 72.5843V73.2761H56.6714ZM56.77 72.9995L60.5376 74.3431L62.8226 67.9356L56.1124 69.0539L56.77 72.9995ZM56.0138 69.0704C53.8347 69.4336 52.3626 71.4945 52.7258 73.6736C53.089 75.8526 55.1499 77.3247 57.329 76.9615L56.6714 73.016L56.0138 69.0704ZM67.9585 71.1348L67.3009 67.1892L67.2023 67.2056L67.8599 71.1512L68.5175 75.0968L68.6161 75.0803L67.9585 71.1348ZM67.8599 71.1512L65.5961 67.8535C64.4379 68.6485 63.5437 69.1047 62.8935 69.3366C62.2375 69.5706 62.0169 69.5107 62.0878 69.5234L61.384 73.461L60.6803 77.3986C63.9806 77.9884 67.3008 76.3868 70.1237 74.4489L67.8599 71.1512ZM61.384 73.461L62.0878 69.5234C60.3908 69.2201 58.4963 69.0117 56.8962 69.38L57.7934 73.278L58.6906 77.1761C58.5612 77.2059 58.6375 77.1685 59.0486 77.1895C59.4283 77.2088 59.9636 77.2705 60.6803 77.3986L61.384 73.461ZM57.7934 73.278L56.8962 69.38C56.5769 69.4535 56.6663 69.4062 56.9587 69.4067C57.0486 69.4068 57.6802 69.3986 58.4294 69.7474C58.8547 69.9453 59.4503 70.3206 59.9383 71.0003C60.4552 71.7203 60.6714 72.533 60.6714 73.2761H56.6714H52.6714C52.6714 74.0626 52.8993 74.9132 53.4396 75.6658C53.9509 76.3781 54.5816 76.7805 55.0536 77.0002C55.8964 77.3925 56.6682 77.4062 56.9451 77.4067C57.6115 77.4078 58.2619 77.2748 58.6906 77.1761L57.7934 73.278ZM56.6714 73.2761L60.439 74.6197L60.5376 74.3431L56.77 72.9995L53.0024 71.656L52.9038 71.9326L56.6714 73.2761ZM56.77 72.9995L56.1124 69.0539L56.0138 69.0704L56.6714 73.016L57.329 76.9615L57.4276 76.9451L56.77 72.9995Z" fill="#FAFAFA"/>
<path d="M54.0278 76.1181C55.6582 74.6275 55.7715 72.0973 54.2809 70.4669C52.7902 68.8365 50.2601 68.7232 48.6297 70.2139L51.3287 73.166L54.0278 76.1181ZM51.2549 73.2335L48.5559 70.2814L48.0979 70.7001L47.7883 71.2379L51.2549 73.2335ZM43.1809 80.4721L44.4458 84.2668L44.6647 84.1939L44.8736 84.0962L43.1809 80.4721ZM43.5015 80.3223L46.2006 83.2744L41.8088 76.6981L43.5015 80.3223ZM40.7287 77.4377C39.0982 78.9283 38.985 81.4585 40.4756 83.0889C41.9663 84.7193 44.4964 84.8326 46.1268 83.3419L43.4277 80.3898L40.7287 77.4377ZM51.3287 73.166L48.6297 70.2139L48.5559 70.2814L51.2549 73.2335L53.954 76.1856L54.0278 76.1181L51.3287 73.166ZM51.2549 73.2335L47.7883 71.2379C46.4052 73.6404 45.4983 74.2117 45.3339 74.2774L46.8178 77.9919L48.3017 81.7065C51.0772 80.5977 53.1284 77.9966 54.7216 75.2291L51.2549 73.2335ZM46.8178 77.9919L45.3339 74.2774C43.7627 74.905 42.1056 75.7226 40.9427 76.8875L43.7735 79.7136L46.6043 82.5396C46.5382 82.6058 46.5977 82.5287 46.9233 82.3446C47.2304 82.1709 47.6789 81.9553 48.3017 81.7065L46.8178 77.9919ZM43.7735 79.7136L40.9427 76.8875C40.6662 77.1645 40.3186 77.5217 40.0535 77.8611C39.9795 77.9558 39.8569 78.1184 39.7311 78.3252C39.6723 78.4219 39.3147 78.9883 39.1798 79.7983C39.1074 80.2328 39.026 81.1611 39.5138 82.1875C40.0782 83.375 41.0854 84.0407 41.9932 84.3114C42.7646 84.5414 43.409 84.4813 43.6987 84.4415C44.0319 84.3957 44.2939 84.3174 44.4458 84.2668L43.1809 80.4721L41.916 76.6773C42.0473 76.6336 42.2916 76.5597 42.6099 76.516C42.8847 76.4782 43.5171 76.4178 44.2792 76.645C45.1777 76.9129 46.1785 77.5735 46.7393 78.7535C47.2235 79.7723 47.1413 80.6906 47.071 81.1127C46.9402 81.898 46.5981 82.43 46.566 82.4827C46.4669 82.6455 46.3824 82.7546 46.3578 82.7861C46.2902 82.8726 46.3212 82.8232 46.6043 82.5396L43.7735 79.7136ZM43.1809 80.4721L44.8736 84.0962L45.1943 83.9465L43.5015 80.3223L41.8088 76.6981L41.4882 76.8479L43.1809 80.4721ZM43.5015 80.3223L40.8025 77.3702L40.7287 77.4377L43.4277 80.3898L46.1268 83.3419L46.2006 83.2744L43.5015 80.3223Z" fill="#FAFAFA"/>
<path d="M59.9251 85.4282C60.3714 85.103 60.4697 84.4775 60.1444 84.0312C59.8192 83.5848 59.1937 83.4866 58.7474 83.8118L59.3362 84.62L59.9251 85.4282ZM59.2554 84.6789L58.8923 85.6107L59.4021 85.8093L59.8442 85.4871L59.2554 84.6789ZM57.3166 86.0324L56.3237 85.9141L56.2003 86.9485L57.2389 87.0294L57.3166 86.0324ZM57.3898 86.0381L57.9786 86.8464L60.1675 85.2516L57.4674 85.0412L57.3898 86.0381ZM56.7201 85.2888C56.2737 85.614 56.1755 86.2395 56.5007 86.6859C56.8259 87.1323 57.4514 87.2305 57.8978 86.9053L57.3089 86.097L56.7201 85.2888ZM59.3362 84.62L58.7474 83.8118L58.6665 83.8707L59.2554 84.6789L59.8442 85.4871L59.9251 85.4282L59.3362 84.62ZM59.2554 84.6789L59.6184 83.7471C58.7336 83.4024 57.9813 83.1648 57.412 83.0905C57.1448 83.0557 56.7803 83.036 56.4349 83.1635C56.244 83.234 56.0286 83.3611 55.8593 83.5811C55.6865 83.8058 55.6155 84.0577 55.6045 84.2847L56.6034 84.333L57.6022 84.3812C57.5967 84.4958 57.558 84.653 57.4446 84.8005C57.3347 84.9434 57.2055 85.011 57.1278 85.0397C57.0089 85.0836 56.9786 85.0509 57.1533 85.0737C57.4681 85.1148 58.0308 85.275 58.8923 85.6107L59.2554 84.6789ZM56.6034 84.333L55.6045 84.2847C55.5725 84.9472 55.7451 85.5753 56.1609 86.1051L56.9476 85.4878L57.7342 84.8704C57.6477 84.7601 57.5908 84.6184 57.6022 84.3812L56.6034 84.333ZM56.9476 85.4878L56.1609 86.1051C56.282 86.2595 56.3586 86.3633 56.4004 86.4249C56.4229 86.4581 56.4217 86.4593 56.411 86.4389C56.4062 86.4297 56.3869 86.3927 56.3676 86.3371C56.3577 86.3084 56.3429 86.2611 56.332 86.2002C56.3217 86.1434 56.3085 86.0413 56.3237 85.9141L57.3166 86.0324L58.3096 86.1508C58.3379 85.9136 58.2737 85.7293 58.2575 85.6825C58.2315 85.6075 58.2015 85.5468 58.1819 85.5095C58.1417 85.4329 58.0951 85.3606 58.0561 85.303C57.9748 85.1832 57.8643 85.0361 57.7342 84.8704L56.9476 85.4878ZM57.3166 86.0324L57.2389 87.0294L57.3121 87.0351L57.3898 86.0381L57.4674 85.0412L57.3943 85.0355L57.3166 86.0324ZM57.3898 86.0381L56.8009 85.2299L56.7201 85.2888L57.3089 86.097L57.8978 86.9053L57.9786 86.8464L57.3898 86.0381Z" fill="#FAFAFA"/>
<path d="M56.4677 84.1759C56.7664 84.6405 57.3851 84.775 57.8497 84.4763C58.3142 84.1777 58.4487 83.5589 58.1501 83.0944L57.3089 83.6351L56.4677 84.1759ZM57.2548 83.551L58.096 83.0103L58.0208 82.8933L57.9166 82.8013L57.2548 83.551ZM56.7416 82.8702L57.0976 81.9357L56.4924 81.7052L56.0345 82.1631L56.7416 82.8702ZM56.8417 82.9083L56.4856 83.8428L59.3272 84.9255L57.6829 82.3676L56.8417 82.9083ZM57.6288 82.2835C57.3301 81.8189 56.7114 81.6844 56.2468 81.983C55.7823 82.2817 55.6478 82.9004 55.9464 83.365L56.7876 82.8242L57.6288 82.2835ZM57.3089 83.6351L58.1501 83.0944L58.096 83.0103L57.2548 83.551L56.4136 84.0918L56.4677 84.1759L57.3089 83.6351ZM57.2548 83.551L57.9166 82.8013C57.9283 82.8116 57.9771 82.8589 58.014 82.951C58.0534 83.0491 58.0588 83.1475 58.0465 83.2233L57.0593 83.0636L56.0722 82.904C55.9788 83.4814 56.2203 83.9717 56.5931 84.3007L57.2548 83.551ZM57.0593 83.0636L58.0465 83.2233C58.0618 83.1285 58.0752 82.9995 58.0618 82.8551C58.049 82.716 58.0045 82.4887 57.8399 82.2707C57.4166 81.7097 56.7875 81.8394 56.6005 81.898L56.8998 82.8522L57.199 83.8063C57.154 83.8205 57.0212 83.8572 56.841 83.8308C56.6284 83.7995 56.4025 83.686 56.2435 83.4754C56.1055 83.2925 56.0773 83.1146 56.0703 83.0391C56.0628 82.9583 56.0717 82.907 56.0722 82.904L57.0593 83.0636ZM56.8998 82.8522L56.6005 81.898C56.5245 81.9218 56.5633 81.9044 56.6448 81.8951C56.6692 81.8924 56.7436 81.8845 56.8408 81.8941C56.8827 81.8982 57.2151 81.9241 57.4795 82.2195C57.8541 82.6382 57.7249 83.1176 57.6436 83.2954C57.5698 83.457 57.4709 83.5551 57.4487 83.5773L56.7416 82.8702L56.0345 82.1631C56.0046 82.193 55.9007 82.2976 55.8244 82.4645C55.7407 82.6478 55.6116 83.1314 55.989 83.5532C56.2561 83.8516 56.5939 83.8794 56.6438 83.8844C56.749 83.8948 56.8339 83.8865 56.8715 83.8823C57.0057 83.8669 57.139 83.8252 57.199 83.8063L56.8998 82.8522ZM56.7416 82.8702L56.3856 83.8047L56.4856 83.8428L56.8417 82.9083L57.1977 81.9739L57.0976 81.9357L56.7416 82.8702ZM56.8417 82.9083L57.6829 82.3676L57.6288 82.2835L56.7876 82.8242L55.9464 83.365L56.0005 83.4491L56.8417 82.9083Z" fill="#FAFAFA"/>
<path d="M55.9833 87.1545C56.2631 87.6307 56.8759 87.7899 57.3521 87.5102C57.8283 87.2304 57.9875 86.6176 57.7078 86.1414L56.8455 86.6479L55.9833 87.1545ZM56.7949 86.5617L57.6571 86.0552L57.5336 85.8449L57.3272 85.7152L56.7949 86.5617ZM55.4193 84.3311L56.0169 83.5292L55.751 83.3311H55.4193V84.3311ZM55.535 84.4173L54.9375 85.2191L56.3972 83.9107L55.535 84.4173ZM56.3466 83.8245C56.0668 83.3483 55.454 83.1891 54.9778 83.4688C54.5016 83.7486 54.3424 84.3614 54.6222 84.8376L55.4844 84.3311L56.3466 83.8245ZM56.8455 86.6479L57.7078 86.1414L57.6571 86.0552L56.7949 86.5617L55.9327 87.0683L55.9833 87.1545L56.8455 86.6479ZM56.7949 86.5617L57.3272 85.7152C57.0943 85.5687 56.9676 85.4504 56.9049 85.3727C56.8474 85.3014 56.8645 85.2917 56.8681 85.3357L55.8715 85.4176L54.8748 85.4995C54.9472 86.3805 55.6031 86.9937 56.2626 87.4083L56.7949 86.5617ZM55.8715 85.4176L56.8681 85.3357C56.8296 84.8661 56.7075 84.3026 56.313 83.8879L55.5885 84.5772L54.864 85.2665C54.8158 85.2159 54.8144 85.1872 54.8286 85.2295C54.8428 85.2716 54.8631 85.3564 54.8748 85.4995L55.8715 85.4176ZM55.5885 84.5772L56.313 83.8879C56.2373 83.8084 56.2327 83.7963 56.2533 83.8262C56.261 83.8375 56.2809 83.8671 56.3031 83.9106C56.3197 83.9432 56.3701 84.0447 56.3932 84.1897C56.4152 84.3284 56.4358 84.6868 56.1517 85.0032C55.8787 85.3071 55.5375 85.3311 55.4193 85.3311V84.3311V83.3311C55.2903 83.3311 54.9414 83.3576 54.6638 83.6666C54.3751 83.9881 54.3942 84.3543 54.4179 84.5032C54.4586 84.7598 54.5929 84.9414 54.6049 84.9589C54.6819 85.0709 54.7835 85.1819 54.864 85.2665L55.5885 84.5772ZM55.4193 84.3311L54.8218 85.1329L54.9375 85.2191L55.535 84.4173L56.1326 83.6154L56.0169 83.5292L55.4193 84.3311ZM55.535 84.4173L56.3972 83.9107L56.3466 83.8245L55.4844 84.3311L54.6222 84.8376L54.6728 84.9238L55.535 84.4173Z" fill="#FAFAFA"/>
<path d="M55.407 85.977C55.6608 86.4676 56.2641 86.6596 56.7547 86.4058C57.2452 86.1521 57.4372 85.5487 57.1835 85.0582L56.2953 85.5176L55.407 85.977ZM56.2493 85.4288L57.1375 84.9694L57.0303 84.7621L56.8425 84.6237L56.2493 85.4288ZM56.0928 84.9913L55.154 84.647L56.0928 84.9913ZM55.8094 84.7176L56.2589 83.8243L55.6955 83.5408L55.1969 83.9271L55.8094 84.7176ZM55.9068 84.7666L55.4573 85.6599L58.2114 87.0456L56.795 84.3071L55.9068 84.7666ZM56.7491 84.2183C56.4953 83.7278 55.892 83.5358 55.4014 83.7895C54.9109 84.0432 54.7189 84.6466 54.9726 85.1372L55.8608 84.6777L56.7491 84.2183ZM56.2953 85.5176L57.1835 85.0582L57.1375 84.9694L56.2493 85.4288L55.3611 85.8882L55.407 85.977L56.2953 85.5176ZM56.2493 85.4288L56.8425 84.6237C56.867 84.6418 56.9671 84.7232 57.027 84.8908C57.0923 85.0732 57.0674 85.2381 57.0317 85.3355L56.0928 84.9913L55.154 84.647C55.0562 84.9135 55.0264 85.2359 55.1439 85.5642C55.2559 85.8776 55.4653 86.0932 55.6561 86.2339L56.2493 85.4288ZM56.0928 84.9913L57.0317 85.3355C57.0754 85.2163 57.2228 84.7983 57.005 84.3592C56.718 83.7804 56.1386 83.7387 55.9256 83.7486L55.9719 84.7475L56.0182 85.7464C55.9479 85.7497 55.46 85.7453 55.2133 85.2478C55.1162 85.0521 55.1166 84.8785 55.1239 84.7945C55.1314 84.7087 55.151 84.6551 55.154 84.647L56.0928 84.9913ZM55.9719 84.7475L55.9256 83.7486C55.8473 83.7522 55.9054 83.7431 56.0054 83.7615C56.0369 83.7673 56.1158 83.7832 56.2112 83.8253C56.2837 83.8572 56.5231 83.9707 56.6785 84.2561C56.8774 84.6213 56.7979 84.9859 56.6796 85.2038C56.5842 85.3795 56.461 85.4778 56.4219 85.5081L55.8094 84.7176L55.1969 83.9271C55.1493 83.964 55.0203 84.0684 54.9218 84.2497C54.8005 84.4733 54.7207 84.8429 54.9221 85.2127C55.08 85.5026 55.3246 85.6202 55.4051 85.6556C55.5086 85.7012 55.5983 85.7202 55.6433 85.7284C55.7975 85.7568 55.9539 85.7494 56.0182 85.7464L55.9719 84.7475ZM55.8094 84.7176L55.36 85.6109L55.4573 85.6599L55.9068 84.7666L56.3562 83.8733L56.2589 83.8243L55.8094 84.7176ZM55.9068 84.7666L56.795 84.3071L56.7491 84.2183L55.8608 84.6777L54.9726 85.1372L55.0186 85.226L55.9068 84.7666Z" fill="#FAFAFA"/>
<path d="M54.335 84.9729C54.7212 85.3677 55.3543 85.3747 55.7491 84.9885C56.1439 84.6022 56.1509 83.9691 55.7647 83.5743L55.0498 84.2736L54.335 84.9729ZM54.9799 84.2021L55.6947 83.5028L55.4848 83.2882L55.1913 83.2247L54.9799 84.2021ZM53.733 83.005L53.8269 82.0094L52.9415 81.9259L52.7552 82.7955L53.733 83.005ZM53.8165 83.0129L53.7226 84.0085L56.4403 84.2649L54.5313 82.3136L53.8165 83.0129ZM54.4614 82.2421C54.0752 81.8473 53.4421 81.8404 53.0473 82.2266C52.6525 82.6128 52.6455 83.2459 53.0317 83.6407L53.7466 82.9414L54.4614 82.2421ZM55.0498 84.2736L55.7647 83.5743L55.6947 83.5028L54.9799 84.2021L54.2651 84.9014L54.335 84.9729L55.0498 84.2736ZM54.9799 84.2021L55.1913 83.2247C55.1166 83.2086 55.0711 83.1928 55.0477 83.183C55.0239 83.1731 55.0335 83.1736 55.0596 83.1948C55.088 83.2179 55.1321 83.2624 55.1694 83.3326C55.2074 83.4043 55.2244 83.4768 55.2278 83.5371L54.2294 83.5937L53.231 83.6502C53.2566 84.1028 53.4728 84.4831 53.8 84.7484C54.0948 84.9874 54.4481 85.1102 54.7685 85.1795L54.9799 84.2021ZM54.2294 83.5937L55.2278 83.5371C55.2155 83.3199 55.1738 83.0337 55.0264 82.7649C54.8552 82.4527 54.5454 82.1823 54.1114 82.1166L53.9616 83.1053L53.8118 84.094C53.6969 84.0766 53.5771 84.0302 53.4708 83.9508C53.3681 83.8741 53.3067 83.7883 53.2728 83.7266C53.2147 83.6206 53.2262 83.5663 53.231 83.6502L54.2294 83.5937ZM53.9616 83.1053L54.1114 82.1166C54.051 82.1074 54.0984 82.1081 54.1851 82.1461C54.2237 82.1631 54.3609 82.2254 54.4909 82.3723C54.6529 82.5554 54.7868 82.8597 54.7108 83.2145L53.733 83.005L52.7552 82.7955C52.6746 83.1716 52.8145 83.4959 52.9933 83.6979C53.1402 83.8638 53.3048 83.9439 53.3815 83.9776C53.5444 84.0491 53.7106 84.0787 53.8118 84.094L53.9616 83.1053ZM53.733 83.005L53.639 84.0006L53.7226 84.0085L53.8165 83.0129L53.9105 82.0173L53.8269 82.0094L53.733 83.005ZM53.8165 83.0129L54.5313 82.3136L54.4614 82.2421L53.7466 82.9414L53.0317 83.6407L53.1017 83.7122L53.8165 83.0129Z" fill="#FAFAFA"/>
<path d="M54.0764 84.583C54.5515 84.8647 55.1649 84.708 55.4467 84.233C55.7284 83.758 55.5717 83.1445 55.0967 82.8628L54.5866 83.7229L54.0764 84.583ZM54.5006 83.6719L55.0107 82.8118L54.9358 82.7674L54.8544 82.7366L54.5006 83.6719ZM50.8736 81.3429L51.1702 80.3879L50.8736 81.3429ZM50.4522 81.2322V80.2322H48.96L49.5273 81.6124L50.4522 81.2322ZM50.4732 81.2832L49.9631 82.1433L52.5349 83.6687L51.3981 80.9031L50.4732 81.2832ZM50.8973 80.3721C50.4223 80.0904 49.8088 80.2471 49.5271 80.7221C49.2454 81.1971 49.4021 81.8106 49.8771 82.0923L50.3872 81.2322L50.8973 80.3721ZM54.5866 83.7229L55.0967 82.8628L55.0107 82.8118L54.5006 83.6719L53.9904 84.532L54.0764 84.583L54.5866 83.7229ZM54.5006 83.6719L54.8544 82.7366C53.627 82.2723 52.9537 81.8504 52.6579 81.5288L51.9219 82.2058L51.1859 82.8828C51.8128 83.5643 52.8585 84.1199 54.1467 84.6072L54.5006 83.6719ZM51.9219 82.2058L52.6579 81.5288C52.4099 81.2593 52.1727 81.0257 51.9494 80.8419C51.743 80.672 51.4759 80.4828 51.1702 80.3879L50.8736 81.3429L50.577 82.2979C50.5088 82.2767 50.5352 82.2682 50.6783 82.386C50.8044 82.4898 50.9726 82.6509 51.1859 82.8828L51.9219 82.2058ZM50.8736 81.3429L51.1702 80.3879C51.0457 80.3492 50.9351 80.3166 50.8441 80.2927C50.7991 80.2809 50.7493 80.2686 50.6997 80.2587C50.6687 80.2525 50.5691 80.2322 50.4522 80.2322V81.2322V82.2322C50.4209 82.2322 50.3955 82.2306 50.3787 82.2292C50.3613 82.2278 50.3474 82.2261 50.338 82.2248C50.3198 82.2223 50.3082 82.22 50.3062 82.2196C50.3026 82.2189 50.3109 82.2205 50.3361 82.2271C50.3855 82.2401 50.464 82.2628 50.577 82.2979L50.8736 81.3429ZM50.4522 81.2322L49.5273 81.6124L49.5483 81.6634L50.4732 81.2832L51.3981 80.9031L51.3772 80.8521L50.4522 81.2322ZM50.4732 81.2832L50.9833 80.4231L50.8973 80.3721L50.3872 81.2322L49.8771 82.0923L49.9631 82.1433L50.4732 81.2832Z" fill="#FAFAFA"/>
<path d="M52.3619 84.5193C52.9139 84.5003 53.3459 84.0375 53.3269 83.4855C53.3079 82.9335 52.8451 82.5015 52.2931 82.5205L52.3275 83.5199L52.3619 84.5193ZM52.2276 83.5233L51.7406 84.3967L51.9837 84.5323L52.262 84.5228L52.2276 83.5233ZM45.0386 83.9897L44.3914 83.2274L43.97 83.5852L44.0488 84.1323L45.0386 83.9897ZM45.1286 83.9133L45.7757 84.6757L48.315 82.5201L45.0083 82.9206L45.1286 83.9133ZM44.909 82.9326C44.3608 82.999 43.9701 83.4973 44.0366 84.0456C44.103 84.5939 44.6013 84.9845 45.1495 84.9181L45.0293 83.9254L44.909 82.9326ZM52.3275 83.5199L52.2931 82.5205L52.1932 82.5239L52.2276 83.5233L52.262 84.5228L52.3619 84.5193L52.3275 83.5199ZM52.2276 83.5233L52.7146 82.6499C51.1819 81.7954 49.7493 81.3049 48.4609 81.3349L48.4842 82.3347L48.5075 83.3344C49.2816 83.3164 50.3446 83.6184 51.7406 84.3967L52.2276 83.5233ZM48.4842 82.3347L48.4609 81.3349C47.2473 81.3632 46.1714 81.7137 45.3273 82.4658L45.9925 83.2124L46.6578 83.959C47.0733 83.5888 47.6585 83.3542 48.5075 83.3344L48.4842 82.3347ZM45.9925 83.2124L45.3273 82.4658C45.0145 82.7445 44.7911 82.9374 44.65 83.0524C44.5745 83.1139 44.5453 83.1343 44.5468 83.1333C44.5493 83.1317 44.5607 83.1241 44.5788 83.1138C44.593 83.1057 44.6346 83.0823 44.6943 83.0592C44.7191 83.0496 44.9065 82.9721 45.157 83.0007C45.3064 83.0178 45.5272 83.0791 45.7236 83.263C45.9244 83.451 46.0039 83.6774 46.0284 83.8471L45.0386 83.9897L44.0488 84.1323C44.0736 84.3047 44.1541 84.5332 44.3565 84.7228C44.5545 84.9082 44.7775 84.9704 44.9298 84.9878C45.1859 85.0171 45.3814 84.9378 45.4167 84.9242C45.5363 84.8778 45.6287 84.8158 45.6565 84.7973C45.7391 84.7422 45.8299 84.6708 45.9134 84.6028C46.0903 84.4587 46.3408 84.2415 46.6578 83.959L45.9925 83.2124ZM45.0386 83.9897L45.6857 84.7521L45.7757 84.6757L45.1286 83.9133L44.4814 83.151L44.3914 83.2274L45.0386 83.9897ZM45.1286 83.9133L45.0083 82.9206L44.909 82.9326L45.0293 83.9254L45.1495 84.9181L45.2488 84.9061L45.1286 83.9133Z" fill="#FAFAFA"/>
<path d="M49.3159 80.2324C48.7636 80.2324 48.3159 80.6801 48.3159 81.2324C48.3159 81.7847 48.7636 82.2324 49.3159 82.2324V81.2324V80.2324ZM49.4159 81.2324V82.2324H50.0971L50.3465 81.5985L49.4159 81.2324ZM49.5571 81.2763L48.6211 81.6284L49.5571 81.2763ZM49.6345 81.3573H50.6345V81.0062L50.415 80.7322L49.6345 81.3573ZM49.5345 81.2324V80.2324H47.4525L48.7539 81.8575L49.5345 81.2324ZM49.6345 82.2324C50.1868 82.2324 50.6345 81.7847 50.6345 81.2324C50.6345 80.6801 50.1868 80.2324 49.6345 80.2324V81.2324V82.2324ZM49.3159 81.2324V82.2324H49.4159V81.2324V80.2324H49.3159V81.2324ZM49.4159 81.2324L50.3465 81.5985C50.3412 81.6119 50.2946 81.7371 50.1704 81.8666C50.1014 81.9385 49.979 82.0426 49.7952 82.1068C49.5958 82.1764 49.382 82.1782 49.1862 82.1173C48.8526 82.0136 48.7015 81.7733 48.6807 81.7412C48.6565 81.704 48.6416 81.6743 48.6341 81.6586C48.6263 81.642 48.6221 81.6311 48.6211 81.6284L49.5571 81.2763L50.493 80.9242C50.4683 80.8584 50.426 80.7565 50.3578 80.6515C50.3122 80.5814 50.137 80.3185 49.7799 80.2075C49.29 80.0552 48.9039 80.2977 48.7269 80.4823C48.5803 80.6351 48.5118 80.799 48.4853 80.8664L49.4159 81.2324ZM49.5571 81.2763L48.6211 81.6284C48.6385 81.6746 48.6605 81.73 48.6864 81.785C48.6949 81.8031 48.7615 81.9536 48.8923 82.0905C48.9282 82.128 49.1958 82.4173 49.6528 82.404C50.2319 82.3871 50.4815 81.9403 50.5385 81.8161C50.6061 81.6689 50.6219 81.5396 50.6266 81.4984C50.6334 81.4398 50.6345 81.3896 50.6345 81.3573H49.6345H48.6345C48.6345 81.3458 48.6347 81.313 48.6399 81.2682C48.6431 81.241 48.6565 81.1221 48.7208 80.982C48.7745 80.8648 49.0201 80.4216 49.5944 80.4049C50.0466 80.3917 50.3085 80.6777 50.3379 80.7084C50.4115 80.7853 50.4531 80.855 50.465 80.8752C50.482 80.9039 50.4922 80.9251 50.4955 80.9321C50.502 80.9461 50.5015 80.9466 50.493 80.9242L49.5571 81.2763ZM49.6345 81.3573L50.415 80.7322L50.315 80.6073L49.5345 81.2324L48.7539 81.8575L48.8539 81.9824L49.6345 81.3573ZM49.5345 81.2324V82.2324H49.6345V81.2324V80.2324H49.5345V81.2324Z" fill="#FAFAFA"/>
<path d="M50.2225 81.5239C50.3679 80.991 50.0537 80.4413 49.5209 80.296C48.9881 80.1507 48.4383 80.4648 48.293 80.9976L49.2578 81.2607L50.2225 81.5239ZM49.2315 81.3572L48.2667 81.0941L48.077 81.7898L48.6771 82.1895L49.2315 81.3572ZM49.0592 81.5235L48.612 82.4179L48.9641 82.5939L49.3417 82.4828L49.0592 81.5235ZM49.1972 81.4828L50.162 81.746L50.6334 80.0175L48.9147 80.5236L49.1972 81.4828ZM48.2061 81.3162C48.0608 81.849 48.375 82.3988 48.9078 82.5441C49.4406 82.6894 49.9903 82.3753 50.1357 81.8424L49.1709 81.5793L48.2061 81.3162ZM49.2578 81.2607L48.293 80.9976L48.2667 81.0941L49.2315 81.3572L50.1962 81.6203L50.2225 81.5239L49.2578 81.2607ZM49.2315 81.3572L48.6771 82.1895C48.6687 82.1839 48.6488 82.1702 48.6227 82.1484C48.5991 82.1286 48.5519 82.0868 48.501 82.0223C48.4323 81.9352 48.1119 81.4668 48.4342 80.9249C48.5591 80.715 48.727 80.6082 48.8189 80.5605C48.9144 80.5109 48.9953 80.4899 49.0344 80.481C49.0781 80.4712 49.1109 80.4676 49.1261 80.4662C49.1427 80.4647 49.1526 80.4646 49.1534 80.4646L49.1677 81.4645L49.182 82.4644C49.2468 82.4635 49.3547 82.459 49.474 82.4322C49.5342 82.4186 49.6321 82.3918 49.7408 82.3354C49.8458 82.2808 50.023 82.1662 50.1531 81.9473C50.4861 81.3875 50.1607 80.897 50.0713 80.7837C49.9615 80.6445 49.8372 80.5592 49.7858 80.5249L49.2315 81.3572ZM49.1677 81.4645L49.1534 80.4646C49.0997 80.4654 49.0315 80.4679 48.9602 80.4764C48.9289 80.4801 48.744 80.4983 48.5527 80.6023C48.4568 80.6545 48.2003 80.8132 48.0792 81.1558C47.9388 81.5533 48.0814 81.8892 48.1946 82.0574C48.2961 82.2081 48.4139 82.2951 48.4622 82.329C48.5221 82.371 48.5765 82.4002 48.612 82.4179L49.0592 81.5235L49.5064 80.629C49.5233 80.6375 49.5625 80.6578 49.6108 80.6917C49.6474 80.7174 49.7569 80.7967 49.8536 80.9403C49.9621 81.1014 50.1033 81.4307 49.965 81.8222C49.846 82.1588 49.5951 82.312 49.5083 82.3593C49.4039 82.416 49.3153 82.4388 49.282 82.4468C49.2405 82.4567 49.2095 82.4608 49.1965 82.4623C49.1709 82.4654 49.1622 82.4647 49.182 82.4644L49.1677 81.4645ZM49.0592 81.5235L49.3417 82.4828L49.4797 82.4421L49.1972 81.4828L48.9147 80.5236L48.7767 80.5642L49.0592 81.5235ZM49.1972 81.4828L48.2324 81.2197L48.2061 81.3162L49.1709 81.5793L50.1357 81.8424L50.162 81.746L49.1972 81.4828Z" fill="#FAFAFA"/>
<path d="M48.1037 84.2639C48.6264 84.0857 48.9057 83.5175 48.7275 82.9947C48.5493 82.472 47.9811 82.1927 47.4583 82.3709L47.781 83.3174L48.1037 84.2639ZM47.6864 83.3497L47.3637 82.4031L47.3236 82.4168L47.2848 82.4338L47.6864 83.3497ZM45.2324 84.2513L44.5156 83.554L44.2324 83.8451V84.2513H45.2324ZM45.3271 84.154L46.0439 84.8512L45.0044 83.2074L45.3271 84.154ZM44.9097 83.2397C44.387 83.4179 44.1077 83.9861 44.2859 84.5089C44.4641 85.0316 45.0324 85.3109 45.5551 85.1327L45.2324 84.1862L44.9097 83.2397ZM47.781 83.3174L47.4583 82.3709L47.3637 82.4031L47.6864 83.3497L48.009 84.2962L48.1037 84.2639L47.781 83.3174ZM47.6864 83.3497L47.2848 82.4338C46.7023 82.6892 46.3369 82.7932 46.1438 82.8158L46.2601 83.8091L46.3764 84.8023C46.8718 84.7442 47.4573 84.542 48.0879 84.2655L47.6864 83.3497ZM46.2601 83.8091L46.1438 82.8158C45.6984 82.868 45.2137 83.0046 44.83 83.3399L45.488 84.0929L46.1461 84.8459C46.122 84.8669 46.1165 84.8626 46.1539 84.8488C46.1924 84.8347 46.2629 84.8156 46.3764 84.8023L46.2601 83.8091ZM45.488 84.0929L44.83 83.3399C44.7478 83.4117 44.7369 83.4144 44.7697 83.3941C44.782 83.3865 44.813 83.3678 44.8581 83.3475C44.893 83.3318 44.9953 83.2876 45.1385 83.2718C45.2769 83.2565 45.6124 83.2539 45.9083 83.5224C46.2013 83.7882 46.2324 84.118 46.2324 84.2513H45.2324H44.2324C44.2324 84.3954 44.2662 84.733 44.5645 85.0036C44.8658 85.277 45.2092 85.2762 45.3583 85.2597C45.6149 85.2313 45.801 85.1079 45.8229 85.0943C45.941 85.0212 46.0578 84.923 46.1461 84.8459L45.488 84.0929ZM45.2324 84.2513L45.9493 84.9485L46.0439 84.8512L45.3271 84.154L44.6102 83.4567L44.5156 83.554L45.2324 84.2513ZM45.3271 84.154L45.0044 83.2074L44.9097 83.2397L45.2324 84.1862L45.5551 85.1327L45.6497 85.1005L45.3271 84.154Z" fill="#FAFAFA"/>
<path d="M47.3129 82.7627C46.7669 82.8453 46.3911 83.3549 46.4736 83.901C46.5562 84.447 47.0658 84.8228 47.6119 84.7403L47.4624 83.7515L47.3129 82.7627ZM47.5613 83.7365L47.7107 84.7253L47.8496 84.7043L47.9773 84.6459L47.5613 83.7365ZM49.7037 83.4438L49.0738 82.6671L49.7037 83.4438ZM49.951 83.31L50.5879 84.0809L50.9663 83.7683L50.9504 83.2778L49.951 83.31ZM49.8542 83.3899L49.2173 82.619L46.4341 84.9183L50.0037 84.3787L49.8542 83.3899ZM50.1025 84.3638C50.6486 84.2812 51.0244 83.7716 50.9418 83.2255C50.8593 82.6795 50.3497 82.3037 49.8036 82.3862L49.9531 83.375L50.1025 84.3638ZM47.4624 83.7515L47.6119 84.7403L47.7107 84.7253L47.5613 83.7365L47.4118 82.7478L47.3129 82.7627L47.4624 83.7515ZM47.5613 83.7365L47.9773 84.6459C48.2162 84.5366 48.3938 84.4825 48.5174 84.4605C48.641 84.4385 48.6779 84.4543 48.661 84.4493L48.9451 83.4905L49.2291 82.5317C48.5317 82.3251 47.7897 82.5323 47.1452 82.8272L47.5613 83.7365ZM48.9451 83.4905L48.661 84.4493C49.0995 84.5792 49.7767 84.6722 50.3336 84.2205L49.7037 83.4438L49.0738 82.6671C49.1254 82.6253 49.1797 82.5967 49.2292 82.5791C49.2771 82.5621 49.3132 82.5578 49.33 82.5568C49.3573 82.5551 49.3305 82.5617 49.2291 82.5317L48.9451 83.4905ZM49.7037 83.4438L50.3336 84.2205C50.4115 84.1573 50.4112 84.1649 50.3641 84.1904C50.3475 84.1994 50.3101 84.2188 50.2572 84.2381C50.2135 84.254 50.1015 84.2916 49.9498 84.2939C49.7908 84.2963 49.4956 84.2576 49.2445 84.0099C48.9993 83.7681 48.9561 83.484 48.9515 83.3422L49.951 83.31L50.9504 83.2778C50.9455 83.1252 50.8994 82.8329 50.6488 82.5858C50.3922 82.3328 50.0891 82.2915 49.9196 82.2941C49.6444 82.2983 49.4404 82.4162 49.4121 82.4315C49.2826 82.5016 49.1594 82.5977 49.0738 82.6671L49.7037 83.4438ZM49.951 83.31L49.3141 82.5391L49.2173 82.619L49.8542 83.3899L50.4911 84.1609L50.5879 84.0809L49.951 83.31ZM49.8542 83.3899L50.0037 84.3787L50.1025 84.3638L49.9531 83.375L49.8036 82.3862L49.7047 82.4012L49.8542 83.3899Z" fill="#FAFAFA"/>
<path d="M58.9382 66.8739C58.3982 66.7578 57.8664 67.1015 57.7504 67.6414C57.6343 68.1814 57.9779 68.7132 58.5179 68.8292L58.728 67.8516L58.9382 66.8739ZM58.8258 67.8726L59.4139 67.0638L59.2428 66.9394L59.0359 66.8949L58.8258 67.8726ZM64.2632 69.5977L63.6122 68.8386L64.2632 69.5977ZM64.8661 69.1578L64.9954 70.1494L68.5731 69.6828L65.2657 68.2411L64.8661 69.1578ZM64.8279 69.1628L64.6986 68.1712L64.6178 70.1404L64.8279 69.1628ZM64.7156 70.1614C65.2555 70.2775 65.7873 69.9339 65.9034 69.3939C66.0194 68.854 65.6758 68.3222 65.1359 68.2061L64.9257 69.1838L64.7156 70.1614ZM58.728 67.8516L58.5179 68.8292L58.6156 68.8502L58.8258 67.8726L59.0359 66.8949L58.9382 66.8739L58.728 67.8516ZM58.8258 67.8726L58.2376 68.6813C59.6588 69.7149 60.9469 70.4222 62.0762 70.6951L62.3111 69.7231L62.546 68.7511C61.7968 68.57 60.7614 68.0437 59.4139 67.0638L58.8258 67.8726ZM62.3111 69.7231L62.0762 70.6951C62.6012 70.822 63.1061 70.8896 63.5676 70.86C64.0312 70.8302 64.5176 70.6968 64.9142 70.3568L64.2632 69.5977L63.6122 68.8386C63.6465 68.8092 63.6265 68.852 63.4394 68.8641C63.2503 68.8762 62.9602 68.8512 62.546 68.7511L62.3111 69.7231ZM64.2632 69.5977L64.9142 70.3568C65.0899 70.2061 65.2069 70.1123 65.275 70.0626C65.313 70.0349 65.3097 70.0401 65.2793 70.0565C65.2669 70.0631 65.211 70.0932 65.1271 70.118C65.0839 70.1307 65.0078 70.1499 64.9096 70.1551C64.8143 70.1601 64.6503 70.1546 64.4665 70.0745L64.8661 69.1578L65.2657 68.2411C64.9197 68.0903 64.6155 68.1836 64.5601 68.2C64.4562 68.2307 64.3753 68.2718 64.3328 68.2946C64.2422 68.3433 64.1586 68.4014 64.0961 68.447C63.9633 68.5439 63.7987 68.6787 63.6122 68.8386L64.2632 69.5977ZM64.8661 69.1578L64.7368 68.1662L64.6986 68.1712L64.8279 69.1628L64.9573 70.1544L64.9954 70.1494L64.8661 69.1578ZM64.8279 69.1628L64.6178 70.1404L64.7156 70.1614L64.9257 69.1838L65.1359 68.2061L65.0381 68.1851L64.8279 69.1628Z" fill="#FAFAFA"/>
<path d="M63.8594 69.9653C64.4028 69.8665 64.7632 69.3459 64.6644 68.8026C64.5656 68.2592 64.045 67.8988 63.5017 67.9976L63.6805 68.9814L63.8594 69.9653ZM63.5822 68.9993L63.4033 68.0155L63.2779 68.0383L63.1623 68.0917L63.5822 68.9993ZM62.4062 69.2782L61.7618 68.5136L61.4062 68.8132V69.2782H62.4062ZM62.5046 69.1952L63.1491 69.9599L66.0205 67.5396L62.3258 68.2114L62.5046 69.1952ZM62.2274 68.2293C61.684 68.3281 61.3236 68.8486 61.4224 69.392C61.5212 69.9354 62.0418 70.2958 62.5851 70.197L62.4062 69.2131L62.2274 68.2293ZM63.6805 68.9814L63.5017 67.9976L63.4033 68.0155L63.5822 68.9993L63.761 69.9832L63.8594 69.9653L63.6805 68.9814ZM63.5822 68.9993L63.1623 68.0917C63.1082 68.1168 63.0935 68.1144 63.1125 68.1127C63.1227 68.1117 63.1402 68.1112 63.1633 68.1143C63.1867 68.1174 63.2112 68.1236 63.2351 68.1329L62.871 69.0643L62.507 69.9957C63.043 70.2052 63.5726 70.1056 64.002 69.9069L63.5822 68.9993ZM62.871 69.0643L63.2351 68.1329C63.0617 68.0651 62.7619 67.974 62.4196 68.0438C61.9893 68.1316 61.6885 68.4298 61.552 68.7808L62.484 69.1433L63.416 69.5058C63.3818 69.5938 63.3165 69.7095 63.199 69.8132C63.0787 69.9194 62.9426 69.9783 62.8196 70.0034C62.6064 70.0469 62.4742 69.9829 62.507 69.9957L62.871 69.0643ZM62.484 69.1433L61.552 68.7808C61.5232 68.8549 61.5288 68.8306 61.5594 68.7775C61.5679 68.7626 61.6002 68.7069 61.6551 68.6422C61.6823 68.6102 61.7385 68.5479 61.8239 68.4855C61.8995 68.4303 62.0822 68.3125 62.3497 68.296C62.6722 68.2762 62.9516 68.4124 63.1344 68.6049C63.2848 68.7634 63.3427 68.9286 63.3641 68.999C63.4078 69.1426 63.4062 69.2598 63.4062 69.2782H62.4062H61.4062C61.4062 69.3074 61.4055 69.4327 61.4508 69.5816C61.4731 69.6546 61.532 69.8218 61.6836 69.9816C61.8675 70.1754 62.1484 70.3122 62.4725 70.2923C62.7416 70.2757 62.9262 70.1571 63.0038 70.1004C63.0912 70.0365 63.1496 69.9721 63.1792 69.9372C63.2391 69.8668 63.277 69.8026 63.292 69.7764C63.3485 69.6785 63.393 69.565 63.416 69.5058L62.484 69.1433ZM62.4062 69.2782L63.0507 70.0428L63.1491 69.9599L62.5046 69.1952L61.8601 68.4306L61.7618 68.5136L62.4062 69.2782ZM62.5046 69.1952L62.3258 68.2114L62.2274 68.2293L62.4062 69.2131L62.5851 70.197L62.6835 70.1791L62.5046 69.1952Z" fill="#FAFAFA"/>
<path d="M88.4336 82.3934C87.8917 82.5002 87.539 83.026 87.6458 83.5679C87.7526 84.1097 88.2784 84.4624 88.8203 84.3557L88.627 83.3745L88.4336 82.3934ZM88.7251 83.3552L88.9184 84.3363L88.9901 84.3222L89.059 84.2978L88.7251 83.3552ZM95.9005 81.9831L95.7313 80.9976L95.9005 81.9831ZM98.8421 82.1399L98.5773 83.1042L98.8421 82.1399ZM101.752 85.9297L102.718 85.6684L102.707 85.627L102.692 85.5866L101.752 85.9297ZM101.899 86.4708L100.934 86.7321L101.013 87.0242L101.24 87.2234L101.899 86.4708ZM101.316 87.2893C101.731 87.6529 102.363 87.6108 102.727 87.1952C103.09 86.7796 103.048 86.1478 102.633 85.7841L101.974 86.5367L101.316 87.2893ZM88.627 83.3745L88.8203 84.3557L88.9184 84.3363L88.7251 83.3552L88.5317 82.3741L88.4336 82.3934L88.627 83.3745ZM88.7251 83.3552L89.059 84.2978C90.8455 83.6648 92.1411 83.3573 92.9943 83.3119L92.9412 82.3134L92.8881 81.3148C91.7402 81.3758 90.225 81.7628 88.3911 82.4126L88.7251 83.3552ZM92.9412 82.3134L92.9943 83.3119C94.0332 83.2567 95.0584 83.1424 96.0698 82.9687L95.9005 81.9831L95.7313 80.9976C94.798 81.1578 93.8504 81.2636 92.8881 81.3148L92.9412 82.3134ZM95.9005 81.9831L96.0698 82.9687C96.8919 82.8275 97.7243 82.87 98.5773 83.1042L98.8421 82.1399L99.1069 81.1756C97.9825 80.8669 96.8538 80.8048 95.7313 80.9976L95.9005 81.9831ZM98.8421 82.1399L98.5773 83.1042C99.2797 83.2971 99.7318 83.6911 100.011 84.3333L100.928 83.9349L101.845 83.5365C101.32 82.3284 100.382 81.5257 99.1069 81.1756L98.8421 82.1399ZM100.928 83.9349L100.011 84.3333C100.412 85.2579 100.677 85.8988 100.813 86.2728L101.752 85.9297L102.692 85.5866C102.533 85.1513 102.247 84.4623 101.845 83.5365L100.928 83.9349ZM101.752 85.9297L100.787 86.191L100.934 86.7321L101.899 86.4708L102.864 86.2096L102.718 85.6684L101.752 85.9297ZM101.899 86.4708L101.24 87.2234L101.316 87.2893L101.974 86.5367L102.633 85.7841L102.557 85.7183L101.899 86.4708Z" fill="#FAFAFA"/>
<path d="M100.457 87.7789C100.9 88.1089 101.526 88.0174 101.856 87.5746C102.186 87.1317 102.095 86.5052 101.652 86.1752L101.055 86.977L100.457 87.7789ZM100.974 86.9173L100.192 87.54L100.273 87.6415L100.377 87.7191L100.974 86.9173ZM94.4178 82.4433L94.3518 81.4455L93.6544 81.4916L93.458 82.1624L94.4178 82.4433ZM94.5191 82.4366L94.585 83.4344L97.5121 83.2409L95.0763 81.6062L94.5191 82.4366ZM94.9933 81.5505C94.5347 81.2428 93.9135 81.365 93.6057 81.8236C93.2979 82.2822 93.4202 82.9034 93.8788 83.2112L94.436 82.3809L94.9933 81.5505ZM101.055 86.977L101.652 86.1752L101.572 86.1154L100.974 86.9173L100.377 87.7191L100.457 87.7789L101.055 86.977ZM100.974 86.9173L101.757 86.2946C100.553 84.7816 99.58 83.6423 98.848 82.8978L98.1349 83.5989L97.4218 84.3C98.0785 84.9679 98.9988 86.0409 100.192 87.54L100.974 86.9173ZM98.1349 83.5989L98.848 82.8978C97.9895 82.0246 96.949 81.5376 95.759 81.5227L95.7464 82.5226L95.7339 83.5225C96.3397 83.5301 96.8915 83.7606 97.4218 84.3L98.1349 83.5989ZM95.7464 82.5226L95.759 81.5227C95.3132 81.5171 94.9973 81.5079 94.8004 81.4961C94.7523 81.4932 94.7152 81.4904 94.6875 81.4879C94.6582 81.4852 94.6476 81.4835 94.65 81.4839C94.6515 81.4841 94.6625 81.4859 94.68 81.4898C94.6944 81.4931 94.733 81.5023 94.7834 81.521C94.8145 81.5326 94.9485 81.5821 95.085 81.7034C95.1595 81.7696 95.2722 81.8901 95.3465 82.0759C95.4281 82.2801 95.4407 82.5084 95.3775 82.7242L94.4178 82.4433L93.458 82.1624C93.3077 82.6761 93.5926 83.0528 93.7566 83.1985C93.8987 83.3247 94.0419 83.3791 94.0856 83.3953C94.1959 83.4364 94.2971 83.453 94.3379 83.4594C94.4418 83.4758 94.564 83.4856 94.6812 83.4925C94.9271 83.5072 95.2816 83.5169 95.7339 83.5225L95.7464 82.5226ZM94.4178 82.4433L94.4837 83.4411L94.585 83.4344L94.5191 82.4366L94.4531 81.4388L94.3518 81.4455L94.4178 82.4433ZM94.5191 82.4366L95.0763 81.6062L94.9933 81.5505L94.436 82.3809L93.8788 83.2112L93.9618 83.2669L94.5191 82.4366Z" fill="#FAFAFA"/>
<path d="M101.11 65.7964C100.93 65.2744 100.36 64.9975 99.8384 65.1779C99.3164 65.3583 99.0395 65.9277 99.2199 66.4497L100.165 66.123L101.11 65.7964ZM100.198 66.2176L101.197 66.1716L101.19 66.0274L101.143 65.8909L100.198 66.2176ZM108.409 75.434L109.119 74.7299L108.995 74.6044L108.835 74.5292L108.409 75.434ZM108.312 75.3882L108.712 74.4717L107.886 76.293L108.312 75.3882ZM108.003 76.3447C108.509 76.5656 109.099 76.3345 109.32 75.8283C109.541 75.3222 109.31 74.7327 108.804 74.5117L108.403 75.4282L108.003 76.3447ZM100.165 66.123L99.2199 66.4497L99.2526 66.5442L100.198 66.2176L101.143 65.8909L101.11 65.7964L100.165 66.123ZM100.198 66.2176L99.1988 66.2635C99.2875 68.1905 99.3756 69.6713 99.4637 70.6984L100.46 70.6129L101.456 70.5275C101.372 69.5405 101.285 68.0911 101.197 66.1716L100.198 66.2176ZM100.46 70.6129L99.4637 70.6984C99.52 71.3553 99.7225 71.9652 100.104 72.4879C100.485 73.0097 101.005 73.3906 101.613 73.6522L102.008 72.7336L102.403 71.815C102.066 71.6698 101.855 71.4939 101.72 71.3088C101.585 71.1246 101.486 70.8776 101.456 70.5275L100.46 70.6129ZM102.008 72.7336L101.613 73.6522C102.502 74.0349 103.3 74.4749 104.011 74.97L104.582 74.1496L105.154 73.3292C104.323 72.7499 103.405 72.246 102.403 71.815L102.008 72.7336ZM104.582 74.1496L104.011 74.97C104.895 75.5863 105.86 75.9936 106.899 76.1816L107.077 75.1976L107.255 74.2136C106.509 74.0786 105.812 73.7872 105.154 73.3292L104.582 74.1496ZM107.077 75.1976L106.899 76.1816C107.345 76.2624 107.68 76.3227 107.904 76.3624C108.016 76.3822 108.102 76.3973 108.16 76.4072C108.189 76.4121 108.215 76.4165 108.236 76.4198C108.245 76.4211 108.262 76.4238 108.282 76.4262C108.286 76.4268 108.317 76.4307 108.355 76.4327C108.356 76.4328 108.437 76.4387 108.535 76.4261C108.565 76.4223 108.621 76.4139 108.689 76.3942C108.74 76.3792 108.89 76.3326 109.043 76.2075C109.228 76.0556 109.449 75.7498 109.403 75.3279C109.368 74.9933 109.18 74.791 109.119 74.7299L108.409 75.434L107.699 76.1381C107.639 76.0771 107.451 75.8748 107.415 75.5403C107.37 75.1184 107.59 74.8125 107.775 74.6607C107.928 74.5356 108.078 74.4891 108.129 74.4741C108.197 74.4543 108.253 74.446 108.283 74.4422C108.381 74.4297 108.461 74.4355 108.462 74.4356C108.498 74.4375 108.526 74.4412 108.527 74.4414C108.54 74.4429 108.548 74.4442 108.543 74.4434C108.537 74.4425 108.522 74.4401 108.496 74.4356C108.444 74.4268 108.364 74.4128 108.254 74.3932C108.033 74.3541 107.701 74.2943 107.255 74.2136L107.077 75.1976ZM108.409 75.434L108.835 74.5292L108.737 74.4833L108.312 75.3882L107.886 76.293L107.983 76.3389L108.409 75.434ZM108.312 75.3882L107.912 76.3046L108.003 76.3447L108.403 75.4282L108.804 74.5117L108.712 74.4717L108.312 75.3882Z" fill="#FAFAFA"/>
<path d="M108.618 75.1198C109.161 75.2213 109.683 74.8635 109.785 74.3206C109.886 73.7777 109.528 73.2554 108.986 73.1538L108.802 74.1368L108.618 75.1198ZM108.704 74.1184L108.887 73.1355L108.813 73.1216L108.738 73.119L108.704 74.1184ZM105.609 73.3548L105.647 72.3556L105.609 73.3548ZM105.24 73.4057H104.24V73.8686L104.593 74.1681L105.24 73.4057ZM105.338 73.4891L105.154 74.472L108.858 75.1646L105.985 72.7266L105.338 73.4891ZM105.423 72.4877C104.881 72.3862 104.358 72.744 104.257 73.2869C104.155 73.8298 104.513 74.3522 105.056 74.4537L105.24 73.4707L105.423 72.4877ZM108.802 74.1368L108.986 73.1538L108.887 73.1355L108.704 74.1184L108.52 75.1014L108.618 75.1198L108.802 74.1368ZM108.704 74.1184L108.738 73.119C107.872 73.0891 107.368 72.9633 107.115 72.8322L106.655 73.72L106.195 74.6079C106.845 74.9449 107.707 75.0846 108.669 75.1178L108.704 74.1184ZM106.655 73.72L107.115 72.8322C106.643 72.5876 106.128 72.374 105.647 72.3556L105.609 73.3548L105.57 74.3541C105.558 74.3536 105.603 74.3546 105.725 74.3974C105.842 74.438 105.997 74.5052 106.195 74.6079L106.655 73.72ZM105.609 73.3548L105.647 72.3556C105.511 72.3503 105.347 72.3489 105.195 72.3698C105.13 72.3788 104.982 72.4021 104.822 72.4802C104.682 72.549 104.24 72.8195 104.24 73.4057H105.24H106.24C106.24 73.9701 105.812 74.2223 105.703 74.276C105.574 74.339 105.472 74.3506 105.468 74.3511C105.44 74.355 105.461 74.3499 105.57 74.3541L105.609 73.3548ZM105.24 73.4057L104.593 74.1681L104.691 74.2515L105.338 73.4891L105.985 72.7266L105.887 72.6432L105.24 73.4057ZM105.338 73.4891L105.522 72.5061L105.423 72.4877L105.24 73.4707L105.056 74.4537L105.154 74.472L105.338 73.4891Z" fill="#FAFAFA"/>
<path d="M107.815 74.1594C108.356 74.2725 108.886 73.926 108.999 73.3854C109.112 72.8449 108.766 72.3149 108.225 72.2018L108.02 73.1806L107.815 74.1594ZM107.922 73.1601L108.127 72.1813L107.92 72.138L107.714 72.1821L107.922 73.1601ZM106.762 72.9837L106.398 72.0525L105.889 72.2516L105.782 72.7876L106.762 72.9837ZM106.873 72.9404L107.237 73.8717L110.362 72.649L107.078 71.9616L106.873 72.9404ZM106.98 71.9411C106.439 71.828 105.909 72.1745 105.796 72.7151C105.683 73.2556 106.029 73.7856 106.57 73.8987L106.775 72.9199L106.98 71.9411ZM108.02 73.1806L108.225 72.2018L108.127 72.1813L107.922 73.1601L107.717 74.1389L107.815 74.1594L108.02 73.1806ZM107.922 73.1601L107.714 72.1821C107.678 72.1897 107.722 72.1731 107.812 72.1972C107.859 72.2097 107.91 72.2314 107.961 72.2646C108.011 72.2978 108.05 72.3355 108.077 72.3701L107.294 72.9916L106.51 73.613C106.959 74.1785 107.613 74.2485 108.131 74.1381L107.922 73.1601ZM107.294 72.9916L108.077 72.3701C107.96 72.2222 107.728 71.9715 107.359 71.8715C106.895 71.746 106.491 71.9225 106.238 72.1574L106.919 72.8901L107.599 73.6227C107.542 73.6762 107.441 73.7511 107.292 73.7955C107.136 73.8423 106.976 73.84 106.836 73.802C106.705 73.7666 106.618 73.7081 106.574 73.6734C106.551 73.6552 106.535 73.6397 106.525 73.63C106.516 73.6201 106.511 73.6139 106.51 73.613L107.294 72.9916ZM106.919 72.8901L106.238 72.1574C106.178 72.213 106.207 72.1787 106.282 72.1338C106.306 72.1194 106.366 72.0847 106.452 72.0551C106.513 72.0342 106.736 71.9607 107.018 72.0337C107.178 72.0752 107.346 72.162 107.485 72.3075C107.621 72.449 107.691 72.6047 107.725 72.729C107.787 72.95 107.753 73.1289 107.743 73.1798L106.762 72.9837L105.782 72.7876C105.769 72.8491 105.735 73.0363 105.798 73.2633C105.882 73.566 106.125 73.8686 106.517 73.9699C106.804 74.0442 107.034 73.9699 107.104 73.9458C107.199 73.913 107.271 73.8728 107.308 73.8506C107.435 73.7745 107.546 73.6721 107.599 73.6227L106.919 72.8901ZM106.762 72.9837L107.127 73.9149L107.237 73.8717L106.873 72.9404L106.508 72.0092L106.398 72.0525L106.762 72.9837ZM106.873 72.9404L107.078 71.9616L106.98 71.9411L106.775 72.9199L106.57 73.8987L106.668 73.9192L106.873 72.9404Z" fill="#FAFAFA"/>
<path d="M105.899 73.9709C106.431 74.1184 106.982 73.8066 107.13 73.2744C107.277 72.7421 106.966 72.1911 106.433 72.0435L106.166 73.0072L105.899 73.9709ZM106.07 72.9805L106.337 72.0168L106.232 71.9877L106.123 71.9819L106.07 72.9805ZM103.206 72.2513L102.996 71.2737L102.586 71.3621L102.361 71.7168L103.206 72.2513ZM103.338 72.223L103.548 73.2006L103.605 71.2593L103.338 72.223ZM103.508 71.2326C102.976 71.0851 102.425 71.3969 102.278 71.9291C102.13 72.4613 102.442 73.0124 102.974 73.1599L103.241 72.1963L103.508 71.2326ZM106.166 73.0072L106.433 72.0435L106.337 72.0168L106.07 72.9805L105.803 73.9441L105.899 73.9709L106.166 73.0072ZM106.07 72.9805L106.123 71.9819C105.43 71.9453 105.081 71.8307 104.941 71.7462L104.426 72.6031L103.91 73.4599C104.475 73.8001 105.222 73.9371 106.017 73.9791L106.07 72.9805ZM104.426 72.6031L104.941 71.7462C104.527 71.4968 104.03 71.2802 103.504 71.2959L103.534 72.2954L103.564 73.295C103.533 73.2959 103.545 73.2892 103.612 73.3122C103.678 73.335 103.776 73.3794 103.91 73.4599L104.426 72.6031ZM103.534 72.2954L103.504 71.2959C103.389 71.2993 103.372 71.2944 103.405 71.2988C103.417 71.3005 103.449 71.3052 103.493 71.3167C103.528 71.3261 103.62 71.3524 103.727 71.4161C103.824 71.474 104.053 71.6355 104.157 71.9608C104.272 72.3232 104.152 72.6274 104.052 72.7858L103.206 72.2513L102.361 71.7168C102.255 71.8843 102.133 72.1969 102.251 72.5672C102.357 72.9002 102.593 73.0689 102.701 73.1332C102.901 73.2524 103.099 73.2756 103.137 73.2808C103.279 73.2999 103.437 73.2988 103.564 73.295L103.534 72.2954ZM103.206 72.2513L103.417 73.2288L103.548 73.2006L103.338 72.223L103.127 71.2454L102.996 71.2737L103.206 72.2513ZM103.338 72.223L103.605 71.2593L103.508 71.2326L103.241 72.1963L102.974 73.1599L103.07 73.1867L103.338 72.223Z" fill="#FAFAFA"/>
<path d="M104.175 73.694C104.667 73.9461 105.269 73.7522 105.521 73.2608C105.774 72.7695 105.58 72.1667 105.088 71.9146L104.632 72.8043L104.175 73.694ZM104.543 72.7586L104.999 71.8689L104.968 71.853L104.936 71.8393L104.543 72.7586ZM103.356 72.0225L102.633 72.713L103.356 72.0225ZM102.406 71.7352L102.277 70.7435L101.696 70.8191L101.478 71.3632L102.406 71.7352ZM102.52 71.7205L102.649 72.7121L105.835 72.2977L102.976 70.8308L102.52 71.7205ZM102.887 70.7851C102.396 70.533 101.793 70.7269 101.541 71.2183C101.289 71.7096 101.483 72.3124 101.974 72.5645L102.431 71.6748L102.887 70.7851ZM104.632 72.8043L105.088 71.9146L104.999 71.8689L104.543 72.7586L104.086 73.6483L104.175 73.694L104.632 72.8043ZM104.543 72.7586L104.936 71.8393C104.443 71.6282 104.19 71.4475 104.08 71.3321L103.356 72.0225L102.633 72.713C103.014 73.1123 103.552 73.4223 104.149 73.678L104.543 72.7586ZM103.356 72.0225L104.08 71.3321C103.766 71.0037 103.183 70.5514 102.431 70.7488L102.685 71.716L102.939 72.6832C102.866 72.7024 102.793 72.7065 102.726 72.6988C102.661 72.6913 102.614 72.6741 102.589 72.6625C102.546 72.6428 102.562 72.6386 102.633 72.713L103.356 72.0225ZM102.685 71.716L102.431 70.7488C102.335 70.7741 102.34 70.7667 102.395 70.7629C102.415 70.7616 102.458 70.7594 102.514 70.764C102.562 70.7678 102.68 70.7804 102.819 70.8418C102.965 70.9065 103.212 71.0632 103.338 71.3858C103.46 71.7011 103.388 71.9743 103.335 72.1072L102.406 71.7352L101.478 71.3632C101.421 71.5061 101.348 71.7879 101.473 72.1103C101.602 72.4402 101.855 72.6025 102.011 72.6714C102.264 72.7831 102.499 72.7605 102.533 72.7582C102.681 72.748 102.833 72.711 102.939 72.6832L102.685 71.716ZM102.406 71.7352L102.535 72.7268L102.649 72.7121L102.52 71.7205L102.391 70.7288L102.277 70.7435L102.406 71.7352ZM102.52 71.7205L102.976 70.8308L102.887 70.7851L102.431 71.6748L101.974 72.5645L102.063 72.6102L102.52 71.7205Z" fill="#FAFAFA"/>
<path d="M102.82 72.7547C103.208 73.1476 103.841 73.1514 104.234 72.7632C104.627 72.375 104.631 71.7419 104.243 71.349L103.531 72.0519L102.82 72.7547ZM103.461 71.9807L104.172 71.2779L104.114 71.2185L104.046 71.1696L103.461 71.9807ZM102.123 70.565L101.208 70.9671L102.123 70.565ZM101.098 69.6773L101.228 68.6857L100.522 68.5937L100.204 69.2301L101.098 69.6773ZM101.198 69.6903L101.068 70.6819L103.955 71.0583L101.909 68.9874L101.198 69.6903ZM101.839 68.9163C101.451 68.5234 100.817 68.5196 100.425 68.9078C100.032 69.296 100.028 69.9291 100.416 70.322L101.127 69.6191L101.839 68.9163ZM103.531 72.0519L104.243 71.349L104.172 71.2779L103.461 71.9807L102.75 72.6836L102.82 72.7547L103.531 72.0519ZM103.461 71.9807L104.046 71.1696C103.393 70.6992 103.124 70.3559 103.039 70.163L102.123 70.565L101.208 70.9671C101.509 71.6544 102.131 72.2549 102.876 72.7919L103.461 71.9807ZM102.123 70.565L103.039 70.163C102.82 69.6645 102.419 69.0104 101.668 68.8439L101.451 69.8202L101.235 70.7965C101.109 70.7685 101.056 70.7053 101.068 70.7185C101.074 70.7255 101.091 70.7466 101.117 70.7892C101.143 70.8315 101.174 70.8896 101.208 70.9671L102.123 70.565ZM101.451 69.8202L101.668 68.8439C101.55 68.8179 101.525 68.8062 101.547 68.8152C101.557 68.8191 101.581 68.8291 101.613 68.8465C101.641 68.8619 101.701 68.8969 101.77 68.9571C101.832 69.0115 101.961 69.1388 102.038 69.3513C102.129 69.6024 102.114 69.8825 101.993 70.1245L101.098 69.6773L100.204 69.2301C100.078 69.4819 100.063 69.7719 100.157 70.0333C100.238 70.256 100.375 70.3938 100.449 70.459C100.592 70.5848 100.742 70.6469 100.797 70.6691C100.937 70.7257 101.097 70.766 101.235 70.7965L101.451 69.8202ZM101.098 69.6773L100.969 70.6689L101.068 70.6819L101.198 69.6903L101.327 68.6987L101.228 68.6857L101.098 69.6773ZM101.198 69.6903L101.909 68.9874L101.839 68.9163L101.127 69.6191L100.416 70.322L100.486 70.3931L101.198 69.6903Z" fill="#FAFAFA"/>
<path d="M101.38 71.0557C101.645 71.54 102.253 71.7173 102.737 71.4517C103.222 71.1861 103.399 70.5783 103.133 70.0941L102.257 70.5749L101.38 71.0557ZM102.209 70.4872L103.085 70.0064L103.025 69.8966L102.94 69.805L102.209 70.4872ZM101.399 68.9264L101.022 69.8527L101.399 68.9264ZM101.211 68.8023L101.722 67.9425L101.308 67.6967L100.858 67.8668L101.211 68.8023ZM101.32 68.867L100.809 69.7268L103.957 71.5964L102.197 68.3861L101.32 68.867ZM102.149 68.2985C101.883 67.8142 101.275 67.6369 100.791 67.9025C100.307 68.168 100.13 68.7759 100.395 69.2601L101.272 68.7793L102.149 68.2985ZM102.257 70.5749L103.133 70.0941L103.085 70.0064L102.209 70.4872L101.332 70.968L101.38 71.0557L102.257 70.5749ZM102.209 70.4872L102.94 69.805C102.814 69.6704 102.743 69.5672 102.706 69.4968C102.669 69.428 102.673 69.4068 102.674 69.4254L101.676 69.4871L100.678 69.5488C100.717 70.1906 101.073 70.7355 101.477 71.1694L102.209 70.4872ZM101.676 69.4871L102.674 69.4254C102.649 69.0261 102.505 68.2967 101.776 68.0001L101.399 68.9264L101.022 69.8527C100.941 69.8195 100.867 69.7706 100.807 69.7116C100.749 69.6543 100.715 69.5985 100.696 69.56C100.662 69.492 100.673 69.471 100.678 69.5488L101.676 69.4871ZM101.399 68.9264L101.776 68.0001C101.693 67.9666 101.719 67.9711 101.779 68.0106C101.799 68.0238 101.844 68.0549 101.897 68.1046C101.937 68.1427 102.056 68.2598 102.132 68.4567C102.229 68.7049 102.241 69.0558 102.029 69.3697C101.862 69.6165 101.639 69.7095 101.565 69.7378L101.211 68.8023L100.858 67.8668C100.773 67.8989 100.543 67.9965 100.373 68.2488C100.156 68.5681 100.169 68.9254 100.268 69.1807C100.347 69.3846 100.472 69.5096 100.521 69.5565C100.583 69.6148 100.641 69.6555 100.676 69.679C100.799 69.7599 100.939 69.8188 101.022 69.8527L101.399 68.9264ZM101.211 68.8023L100.7 69.6621L100.809 69.7268L101.32 68.867L101.831 68.0072L101.722 67.9425L101.211 68.8023ZM101.32 68.867L102.197 68.3861L102.149 68.2985L101.272 68.7793L100.395 69.2601L100.443 69.3478L101.32 68.867Z" fill="#FAFAFA"/>
<path d="M98.847 73.0772C98.7102 72.5708 98.6195 72.0618 98.356 70.5542C98.4066 70.6779 98.4547 70.8079 98.4975 70.9628C98.6852 71.8134 98.8357 72.5674 98.847 73.0772Z" fill="#FAFAFA"/>
<path d="M98.9674 68.2529C98.8719 67.7089 98.3535 67.3454 97.8095 67.4408C97.2656 67.5363 96.902 68.0547 96.9975 68.5987L97.9824 68.4258L98.9674 68.2529ZM97.9997 68.5243L97.0148 68.6971L97.0329 68.8007L97.0723 68.8983L97.9997 68.5243ZM98.2599 70.3517L97.6337 71.1314L98.2599 70.3517ZM98.4201 70.543L97.6885 71.2248L98.0582 71.6215L98.5922 71.5281L98.4201 70.543ZM98.3387 70.4557L99.0703 69.774L96.7707 67.3065L97.3538 70.6286L98.3387 70.4557ZM98.356 70.5542L97.4347 70.943L99.3409 70.3814L98.356 70.5542ZM98.3462 70.5582L98.7248 71.4838L98.3462 70.5582ZM98.3171 70.4621L99.2385 70.0733L98.9082 69.2907L98.0825 69.49L98.3171 70.4621ZM98.191 70.4485L98.3838 69.4673L97.9594 69.3839L97.608 69.6361L98.191 70.4485ZM98.3223 70.4744L98.1294 71.4556L99.9748 71.8183L99.2436 70.0856L98.3223 70.4744ZM99.2047 69.9934C98.99 69.4846 98.4035 69.2462 97.8946 69.4609C97.3858 69.6756 97.1474 70.2622 97.3621 70.771L98.2834 70.3822L99.2047 69.9934ZM97.9824 68.4258L96.9975 68.5987L97.0148 68.6971L97.9997 68.5243L98.9847 68.3514L98.9674 68.2529L97.9824 68.4258ZM97.9997 68.5243L97.0723 68.8983C97.1478 69.0855 97.183 69.2242 97.1963 69.3202C97.2095 69.4154 97.1985 69.4491 97.2003 69.4426L98.1638 69.7103L99.1273 69.9781C99.2986 69.3615 99.1564 68.7188 98.9271 68.1503L97.9997 68.5243ZM98.1638 69.7103L97.2003 69.4426C97.0857 69.855 96.9957 70.6189 97.6337 71.1314L98.2599 70.3517L98.8861 69.5721C98.951 69.6242 99.0071 69.6907 99.0483 69.7664C99.0885 69.8403 99.1058 69.9069 99.1127 69.9532C99.125 70.035 99.1058 70.0555 99.1273 69.9781L98.1638 69.7103ZM98.2599 70.3517L97.6337 71.1314C97.706 71.1894 97.6878 71.1823 97.6453 71.1316C97.6309 71.1143 97.5999 71.0758 97.5667 71.0197C97.5396 70.9739 97.4716 70.8516 97.4451 70.6752C97.4148 70.4727 97.4385 70.1564 97.6762 69.8824C97.8854 69.6411 98.1393 69.577 98.2479 69.558L98.4201 70.543L98.5922 71.5281C98.7115 71.5073 98.9731 71.4395 99.187 71.1928C99.4293 70.9134 99.4547 70.59 99.423 70.3786C99.3952 70.1933 99.3229 70.0603 99.2885 70.0021C99.2479 69.9335 99.2066 69.8808 99.1788 69.8476C99.083 69.7332 98.9633 69.6341 98.8861 69.5721L98.2599 70.3517ZM98.4201 70.543L99.1516 69.8613L99.0703 69.774L98.3387 70.4557L97.6072 71.1375L97.6885 71.2248L98.4201 70.543ZM98.3387 70.4557L97.3538 70.6286L97.3711 70.7271L98.356 70.5542L99.3409 70.3814L99.3237 70.2829L98.3387 70.4557ZM98.4241 71.5925L97.4262 71.6579C97.4381 71.8392 97.4514 71.9982 97.4668 72.1292C97.479 72.2328 97.5009 72.4027 97.5522 72.5544C97.567 72.5981 97.5954 72.675 97.6452 72.7608C97.6831 72.8259 97.8018 73.0194 98.0471 73.1513C98.3779 73.3292 98.7559 73.3008 99.0441 73.1288C99.2593 73.0003 99.3671 72.8277 99.4027 72.7677C99.4838 72.6309 99.5196 72.4984 99.5317 72.4533C99.5497 72.386 99.5634 72.3179 99.5742 72.2572L98.5896 72.0822L97.605 71.9073C97.5996 71.938 97.5974 71.9448 97.5998 71.9358C97.601 71.931 97.6058 71.9136 97.6151 71.8882C97.6228 71.8671 97.6435 71.8131 97.6827 71.747C97.7109 71.6996 97.8111 71.5355 98.0191 71.4114C98.2998 71.2439 98.6706 71.2157 98.9942 71.3898C99.2323 71.5178 99.3439 71.7032 99.3746 71.7562C99.4174 71.8299 99.4389 71.8905 99.4468 71.9138C99.4705 71.9839 99.4661 72.006 99.4531 71.8957C99.4434 71.8129 99.4327 71.692 99.4219 71.5271L98.4241 71.5925ZM98.5896 72.0822L99.5742 72.2572C99.6673 71.7331 99.6334 71.2098 99.4524 70.7084L98.5118 71.0479L97.5712 71.3875C97.6239 71.5336 97.6419 71.6998 97.605 71.9073L98.5896 72.0822ZM98.5118 71.0479L99.4524 70.7084C99.3944 70.5479 99.3543 70.434 99.3301 70.3624C99.3242 70.345 99.3197 70.3315 99.3165 70.3216C99.3131 70.3111 99.3121 70.3075 99.3125 70.3088C99.3127 70.3097 99.314 70.3141 99.3159 70.3211C99.3174 70.3269 99.3214 70.3422 99.3257 70.363C99.3279 70.3737 99.3403 70.4316 99.3443 70.5081C99.346 70.5393 99.3507 70.6392 99.3246 70.7639C99.3112 70.8278 99.2807 70.9437 99.2045 71.0712C99.124 71.2061 98.9739 71.3819 98.7248 71.4838L98.3462 70.5582L97.9676 69.6327C97.4749 69.8342 97.3799 70.2923 97.367 70.354C97.3407 70.4795 97.3454 70.5806 97.3471 70.6132C97.3513 70.6925 97.3643 70.7545 97.3677 70.7705C97.3772 70.8164 97.3885 70.8554 97.3933 70.8718C97.4054 70.9128 97.4206 70.9592 97.4354 71.0029C97.4664 71.0946 97.5122 71.2241 97.5712 71.3875L98.5118 71.0479ZM98.3462 70.5582L98.7248 71.4838C98.4715 71.5874 98.2006 71.5781 97.9708 71.485C97.7722 71.4046 97.6499 71.2812 97.5919 71.2145C97.4811 71.0871 97.4315 70.9627 97.4203 70.935C97.3872 70.8535 97.3731 70.7859 97.3709 70.7761C97.3623 70.737 97.3586 70.7075 97.3586 70.7074C97.3572 70.6974 97.3575 70.6972 97.3592 70.7158C97.3623 70.7485 97.367 70.8051 97.3734 70.8899C97.386 71.0572 97.4036 71.3125 97.4262 71.6579L98.4241 71.5925L99.4219 71.5271C99.3992 71.1803 99.3811 70.9171 99.3678 70.7398C99.3612 70.6522 99.3553 70.5798 99.3503 70.5269C99.348 70.5028 99.3448 70.4706 99.3406 70.4397C99.3391 70.429 99.3341 70.3917 99.3244 70.3475C99.3217 70.3351 99.3071 70.2657 99.2735 70.183C99.2621 70.1548 99.2122 70.0299 99.1012 69.9022C98.9997 69.7856 98.5691 69.3866 97.9676 69.6327L98.3462 70.5582ZM98.356 70.5542L99.2773 70.1655L99.2385 70.0733L98.3171 70.4621L97.3958 70.8509L97.4347 70.943L98.356 70.5542ZM98.3171 70.4621L98.0825 69.49C98.0582 69.4959 98.0551 69.4959 98.0661 69.4941C98.0718 69.4932 98.0904 69.4902 98.1177 69.4881C98.1385 69.4864 98.2009 69.482 98.2832 69.4908C98.319 69.4947 98.588 69.5176 98.8325 69.7366C98.9833 69.8716 99.1101 70.0698 99.1505 70.3171C99.188 70.5466 99.1374 70.7343 99.0922 70.8469C99.0122 71.046 98.8886 71.1623 98.8655 71.1845C98.8226 71.2256 98.787 71.2517 98.774 71.261L98.191 70.4485L97.608 69.6361C97.5796 69.6564 97.5318 69.6923 97.48 69.7421C97.448 69.7728 97.3186 69.8965 97.2362 70.1016C97.1898 70.2173 97.1388 70.4077 97.1767 70.6397C97.2175 70.8894 97.3455 71.0897 97.4983 71.2265C97.7469 71.4491 98.0231 71.4744 98.0694 71.4794C98.2253 71.4961 98.3586 71.4729 98.3884 71.468C98.4464 71.4585 98.5031 71.4459 98.5518 71.4342L98.3171 70.4621ZM98.191 70.4485L97.9981 71.4298L98.1294 71.4556L98.3223 70.4744L98.5151 69.4931L98.3838 69.4673L98.191 70.4485ZM98.3223 70.4744L99.2436 70.0856L99.2047 69.9934L98.2834 70.3822L97.3621 70.771L97.401 70.8631L98.3223 70.4744Z" fill="#FAFAFA"/>
<path d="M99.3285 68.1832C99.1946 67.6475 98.6517 67.3217 98.1159 67.4556C97.5801 67.5896 97.2543 68.1325 97.3883 68.6683L98.3584 68.4258L99.3285 68.1832ZM98.3827 68.5228L97.4125 68.7653L97.4369 68.8627L97.4801 68.9533L98.3827 68.5228ZM99.6228 73.2658L98.803 73.8385L98.974 74.0833L99.2514 74.1943L99.6228 73.2658ZM99.5381 73.1446L100.358 72.572L98.568 73.3872L99.5381 73.1446ZM98.5922 73.4842C98.7262 74.02 99.2691 74.3457 99.8049 74.2118C100.341 74.0778 100.666 73.5349 100.533 72.9991L99.5624 73.2416L98.5922 73.4842ZM98.3584 68.4258L97.3883 68.6683L97.4125 68.7653L98.3827 68.5228L99.3528 68.2803L99.3285 68.1832L98.3584 68.4258ZM98.3827 68.5228L97.4801 68.9533C98.02 70.0853 98.2452 70.8694 98.2692 71.36L99.268 71.3111L100.267 71.2622C100.223 70.3676 99.8579 69.2928 99.2852 68.0923L98.3827 68.5228ZM99.268 71.3111L98.2692 71.36C98.304 72.0709 98.3859 72.7097 98.5686 73.1813L99.501 72.82L100.433 72.4587C100.373 72.3036 100.3 71.9365 100.267 71.2622L99.268 71.3111ZM99.501 72.82L98.5686 73.1813C98.6278 73.3342 98.6521 73.4088 98.6578 73.4298C98.6672 73.4641 98.6381 73.3779 98.6378 73.2494C98.6377 73.2085 98.6401 73.135 98.6598 73.0446C98.6781 72.9604 98.7244 72.8004 98.8531 72.6396C99.0003 72.4555 99.2202 72.3167 99.4822 72.2778C99.7142 72.2433 99.8979 72.2988 99.9941 72.3373L99.6228 73.2658L99.2514 74.1943C99.3527 74.2348 99.5407 74.2911 99.7765 74.256C100.042 74.2165 100.265 74.0759 100.415 73.8887C100.648 73.5968 100.638 73.2796 100.638 73.2446C100.637 73.0829 100.598 72.943 100.587 72.903C100.552 72.7755 100.496 72.6191 100.433 72.4587L99.501 72.82ZM99.6228 73.2658L100.443 72.6931L100.358 72.572L99.5381 73.1446L98.7183 73.7173L98.803 73.8385L99.6228 73.2658ZM99.5381 73.1446L98.568 73.3872L98.5922 73.4842L99.5624 73.2416L100.533 72.9991L100.508 72.9021L99.5381 73.1446Z" fill="#FAFAFA"/>
<path d="M100.268 71.6697C99.9816 71.1972 99.3668 71.046 98.8943 71.332C98.4218 71.618 98.2706 72.2328 98.5566 72.7053L99.4121 72.1875L100.268 71.6697ZM99.4639 72.2731L100.384 71.8802L100.356 71.8155L100.319 71.7552L99.4639 72.2731ZM101.078 75.0469V76.0469H101.935L102.066 75.2001L101.078 75.0469ZM101.091 74.9614L101.947 74.4436L100.524 72.0929L100.103 74.8082L101.091 74.9614ZM100.287 75.5647C100.573 76.0372 101.188 76.1884 101.661 75.9024C102.133 75.6164 102.284 75.0016 101.998 74.5291L101.143 75.0469L100.287 75.5647ZM99.4121 72.1875L98.5566 72.7053L98.6084 72.7909L99.4639 72.2731L100.319 71.7552L100.268 71.6697L99.4121 72.1875ZM99.4639 72.2731L98.5443 72.6659C99.161 74.1096 99.6502 75.1742 100.006 75.8326L100.886 75.3571L101.766 74.8817C101.457 74.3106 100.998 73.3191 100.384 71.8802L99.4639 72.2731ZM100.886 75.3571L100.006 75.8326C100.093 75.9929 100.171 76.1315 100.238 76.2422C100.283 76.3165 100.384 76.4826 100.514 76.6094C100.549 76.644 100.642 76.7316 100.783 76.8021C100.909 76.8654 101.299 77.0205 101.727 76.7832C102.117 76.5666 102.207 76.1984 102.227 76.1009C102.254 75.9685 102.25 75.8591 102.247 75.8117C102.236 75.6413 102.183 75.4647 102.156 75.3745L101.198 75.6631L100.241 75.9517C100.276 76.0668 100.256 76.0315 100.251 75.9383C100.249 75.9103 100.243 75.8161 100.268 75.6951C100.286 75.6089 100.372 75.2479 100.756 75.0346C101.178 74.8006 101.56 74.9549 101.677 75.0135C101.809 75.0793 101.89 75.1581 101.913 75.18C101.99 75.2558 102.01 75.3068 101.946 75.202C101.905 75.1334 101.845 75.0288 101.766 74.8817L100.886 75.3571ZM101.198 75.6631L102.156 75.3745C102.096 75.1752 102.067 75.0604 102.057 75.0088C102.049 74.9707 102.062 75.017 102.061 75.1007C102.06 75.1286 102.059 75.2793 101.982 75.4574C101.938 75.5563 101.852 75.7082 101.686 75.8378C101.505 75.9789 101.289 76.0469 101.078 76.0469V75.0469V74.0469C100.862 74.0469 100.641 74.1165 100.456 74.2608C100.285 74.3937 100.195 74.5503 100.149 74.6557C100.066 74.8466 100.062 75.0166 100.061 75.0701C100.059 75.2052 100.081 75.3285 100.094 75.3931C100.124 75.5469 100.177 75.7402 100.241 75.9517L101.198 75.6631ZM101.078 75.0469L102.066 75.2001L102.079 75.1145L101.091 74.9614L100.103 74.8082L100.09 74.8937L101.078 75.0469ZM101.091 74.9614L100.236 75.4792L100.287 75.5647L101.143 75.0469L101.998 74.5291L101.947 74.4436L101.091 74.9614Z" fill="#FAFAFA"/>
<path d="M102.069 72.2624C101.86 71.7509 101.277 71.5052 100.765 71.7136C100.254 71.9219 100.008 72.5055 100.216 73.0169L101.143 72.6396L102.069 72.2624ZM101.18 72.7323L100.254 73.1096L100.274 73.1573L100.298 73.2028L101.18 72.7323ZM102.113 75.09L101.126 75.2556L102.113 75.09ZM102.593 76.3255L101.871 77.0171L102.593 76.3255ZM102.861 76.6871L102.256 77.4829L102.639 77.7746L103.106 77.6567L102.861 76.6871ZM102.76 76.6104L103.366 75.8146L100.454 73.5988L101.834 76.9877L102.76 76.6104ZM101.872 77.0803C102.08 77.5918 102.664 77.8375 103.175 77.6291C103.687 77.4207 103.932 76.8372 103.724 76.3257L102.798 76.703L101.872 77.0803ZM101.143 72.6396L100.216 73.0169L100.254 73.1096L101.18 72.7323L102.106 72.355L102.069 72.2624L101.143 72.6396ZM101.18 72.7323L100.298 73.2028C100.804 74.1523 101.054 74.8239 101.126 75.2556L102.113 75.09L103.099 74.9244C102.972 74.1697 102.6 73.2695 102.063 72.2617L101.18 72.7323ZM102.113 75.09L101.126 75.2556C101.234 75.8975 101.435 76.5615 101.871 77.0171L102.593 76.3255L103.315 75.6338C103.324 75.6424 103.289 75.6087 103.239 75.4813C103.191 75.3571 103.141 75.176 103.099 74.9244L102.113 75.09ZM102.593 76.3255L101.871 77.0171C101.92 77.0683 101.957 77.1088 101.984 77.1397C102.014 77.1726 102.024 77.186 102.022 77.1842C102.021 77.183 102.012 77.1701 101.998 77.1477C101.988 77.1303 101.956 77.0768 101.927 76.9978C101.909 76.9469 101.83 76.7263 101.899 76.4433C101.938 76.2796 102.026 76.1044 102.178 75.9591C102.327 75.8181 102.49 75.7495 102.616 75.7175L102.861 76.6871L103.106 77.6567C103.238 77.6234 103.405 77.5526 103.556 77.4086C103.713 77.2602 103.802 77.0811 103.843 76.9126C103.913 76.6201 103.833 76.3865 103.809 76.3193C103.75 76.1557 103.658 76.033 103.629 75.9933C103.545 75.8793 103.43 75.7535 103.315 75.6338L102.593 76.3255ZM102.861 76.6871L103.467 75.8913L103.366 75.8146L102.76 76.6104L102.155 77.4063L102.256 77.4829L102.861 76.6871ZM102.76 76.6104L101.834 76.9877L101.872 77.0803L102.798 76.703L103.724 76.3257L103.686 76.2331L102.76 76.6104Z" fill="#FAFAFA"/>
<path d="M104.507 73.9297C104.347 73.4012 103.789 73.1025 103.26 73.2627C102.732 73.4229 102.433 73.9812 102.593 74.5097L103.55 74.2197L104.507 73.9297ZM103.579 74.3154L102.622 74.6054L102.649 74.6939L102.692 74.7759L103.579 74.3154ZM104.173 76.4706L104.782 75.6776L104.173 76.4706ZM104.365 76.6847L103.719 77.4476L104.129 77.7953L104.645 77.6447L104.365 76.6847ZM104.274 76.6072L104.92 75.8443L102.333 73.652L103.317 76.8972L104.274 76.6072ZM103.346 76.9929C103.506 77.5215 104.064 77.8201 104.593 77.6599C105.121 77.4998 105.42 76.9414 105.26 76.4129L104.303 76.7029L103.346 76.9929ZM103.55 74.2197L102.593 74.5097L102.622 74.6054L103.579 74.3154L104.536 74.0254L104.507 73.9297L103.55 74.2197ZM103.579 74.3154L102.692 74.7759C102.952 75.2775 102.98 75.5394 102.972 75.6281L103.968 75.7186L104.964 75.8091C105.023 75.1564 104.793 74.4828 104.467 73.855L103.579 74.3154ZM103.968 75.7186L102.972 75.6281C102.93 76.0883 102.968 76.8066 103.563 77.2637L104.173 76.4706L104.782 75.6776C104.839 75.7212 104.882 75.7717 104.912 75.8203C104.942 75.8674 104.954 75.9049 104.959 75.9223C104.964 75.939 104.962 75.9398 104.96 75.9188C104.959 75.8981 104.959 75.8624 104.964 75.8091L103.968 75.7186ZM104.173 76.4706L103.563 77.2637C103.644 77.3257 103.639 77.3288 103.605 77.2908C103.593 77.2773 103.566 77.2465 103.536 77.2011C103.51 77.1634 103.449 77.0669 103.411 76.9253C103.372 76.7795 103.334 76.4899 103.505 76.1867C103.675 75.8841 103.942 75.7666 104.085 75.7247L104.365 76.6847L104.645 77.6447C104.799 77.5997 105.073 77.4774 105.247 77.168C105.422 76.8581 105.384 76.5599 105.342 76.4037C105.272 76.1451 105.115 75.9787 105.092 75.9533C104.993 75.844 104.871 75.7461 104.782 75.6776L104.173 76.4706ZM104.365 76.6847L105.012 75.9218L104.92 75.8443L104.274 76.6072L103.627 77.3701L103.719 77.4476L104.365 76.6847ZM104.274 76.6072L103.317 76.8972L103.346 76.9929L104.303 76.7029L105.26 76.4129L105.231 76.3172L104.274 76.6072Z" fill="#FAFAFA"/>
<path d="M104.905 75.176C105.142 74.6774 104.931 74.0807 104.432 73.8432C103.933 73.6058 103.337 73.8175 103.099 74.3162L104.002 74.7461L104.905 75.176ZM103.959 74.8364L103.056 74.4064L102.913 74.7075L102.979 75.0344L103.959 74.8364ZM103.387 76.2505L102.557 75.6939L103.387 76.2505ZM103.25 76.3913L102.286 76.1246L102.25 76.2555V76.3913H103.25ZM103.293 76.236L104.256 76.5028L102.39 75.8061L103.293 76.236ZM102.347 75.8964C102.109 76.395 102.321 76.9917 102.82 77.2292C103.318 77.4666 103.915 77.2549 104.152 76.7562L103.25 76.3263L102.347 75.8964ZM104.002 74.7461L103.099 74.3162L103.056 74.4064L103.959 74.8364L104.862 75.2663L104.905 75.176L104.002 74.7461ZM103.959 74.8364L102.979 75.0344C102.996 75.1214 103.005 75.1873 103.008 75.2346C103.011 75.2827 103.008 75.3022 103.008 75.2998C103.008 75.2972 103.014 75.2618 103.04 75.2092C103.068 75.1533 103.115 75.0889 103.183 75.0327L103.816 75.8069L104.449 76.5811C104.792 76.3007 104.938 75.922 104.987 75.591C105.034 75.2716 105.001 74.9428 104.939 74.6384L103.959 74.8364ZM103.816 75.8069L103.183 75.0327C102.948 75.225 102.724 75.4442 102.557 75.6939L103.387 76.2505L104.218 76.8072C104.235 76.7825 104.296 76.7059 104.449 76.5811L103.816 75.8069ZM103.387 76.2505L102.557 75.6939C102.509 75.7652 102.52 75.7394 102.57 75.6889C102.586 75.6726 102.628 75.6306 102.692 75.5853C102.73 75.558 102.909 75.431 103.181 75.4099C103.34 75.3976 103.54 75.4216 103.737 75.5304C103.932 75.6381 104.055 75.7901 104.127 75.9195C104.25 76.1424 104.25 76.3461 104.25 76.3913H103.25H102.25C102.25 76.4474 102.25 76.6591 102.377 76.8872C102.45 77.0192 102.574 77.1731 102.772 77.282C102.971 77.392 103.174 77.4165 103.336 77.4039C103.613 77.3824 103.799 77.2521 103.846 77.2188C103.919 77.1674 103.971 77.1165 103.998 77.0885C104.094 76.991 104.174 76.8731 104.218 76.8072L103.387 76.2505ZM103.25 76.3913L104.213 76.6581L104.256 76.5028L103.293 76.236L102.329 75.9692L102.286 76.1246L103.25 76.3913ZM103.293 76.236L102.39 75.8061L102.347 75.8964L103.25 76.3263L104.152 76.7562L104.195 76.6659L103.293 76.236Z" fill="#FAFAFA"/>
<path d="M103.052 76.466C103.254 75.9517 103 75.3716 102.485 75.1703C101.971 74.9691 101.391 75.2229 101.19 75.7372L102.121 76.1016L103.052 76.466ZM102.085 76.1947L101.153 75.8303L101.142 75.859L101.133 75.8884L102.085 76.1947ZM100.148 81.3225L99.1633 81.4987L99.252 81.9947L99.7034 82.2185L100.148 81.3225ZM100.126 81.2005L101.11 81.0244L100.486 77.5359L99.1946 80.8361L100.126 81.2005ZM99.1581 80.9293C98.9569 81.4436 99.2106 82.0236 99.725 82.2249C100.239 82.4261 100.819 82.1724 101.021 81.6581L100.089 81.2937L99.1581 80.9293ZM102.121 76.1016L101.19 75.7372L101.153 75.8303L102.085 76.1947L103.016 76.5591L103.052 76.466L102.121 76.1016ZM102.085 76.1947L101.133 75.8884C100.703 77.2245 100.31 78.1346 99.9696 78.6774L100.817 79.209L101.664 79.7406C102.139 78.984 102.591 77.8845 103.037 76.501L102.085 76.1947ZM100.817 79.209L99.9696 78.6774C99.5422 79.3585 99.2049 80.0819 99.2054 80.7684L100.205 80.7675L101.205 80.7667C101.205 80.6747 101.276 80.359 101.664 79.7406L100.817 79.209ZM100.205 80.7675L99.2054 80.7684C99.2056 80.9572 99.2005 81.0571 99.1966 81.0947C99.193 81.1296 99.1956 81.0643 99.2294 80.9678C99.2397 80.9385 99.3006 80.7562 99.4776 80.5904C99.5812 80.4934 99.7501 80.3787 99.9849 80.3383C100.226 80.2967 100.438 80.3505 100.592 80.4266L100.148 81.3225L99.7034 82.2185C99.8617 82.297 100.079 82.3516 100.324 82.3092C100.564 82.268 100.737 82.151 100.845 82.05C101.03 81.8762 101.099 81.6796 101.117 81.6296C101.165 81.4916 101.18 81.3594 101.186 81.3018C101.201 81.1544 101.206 80.9672 101.205 80.7667L100.205 80.7675ZM100.148 81.3225L101.132 81.1464L101.11 81.0244L100.126 81.2005L99.1414 81.3767L99.1633 81.4987L100.148 81.3225ZM100.126 81.2005L99.1946 80.8361L99.1581 80.9293L100.089 81.2937L101.021 81.6581L101.057 81.5649L100.126 81.2005Z" fill="#FAFAFA"/>
<path d="M102.433 76.5819C102.657 76.0772 102.43 75.4863 101.925 75.262C101.42 75.0377 100.829 75.265 100.605 75.7696L101.519 76.1758L102.433 76.5819ZM101.478 76.2672L100.564 75.861L100.493 76.0206L100.481 76.1947L101.478 76.2672ZM100.054 80.192L100.484 81.0947L100.054 80.192ZM99.7001 80.3029L98.7545 79.9777L98.7327 80.0411L98.7196 80.1068L99.7001 80.3029ZM99.7535 80.1478L100.699 80.473L98.8397 79.7416L99.7535 80.1478ZM98.7991 79.833C98.5748 80.3377 98.8021 80.9287 99.3068 81.153C99.8114 81.3773 100.402 81.15 100.627 80.6453L99.7129 80.2392L98.7991 79.833ZM101.519 76.1758L100.605 75.7696L100.564 75.861L101.478 76.2672L102.392 76.6733L102.433 76.5819L101.519 76.1758ZM101.478 76.2672L100.481 76.1947C100.389 77.4584 100.199 78.2434 99.987 78.6618L100.879 79.1145L101.77 79.5672C102.169 78.782 102.379 77.6687 102.476 76.3396L101.478 76.2672ZM100.879 79.1145L99.987 78.6618C99.8498 78.932 99.7361 79.1139 99.6492 79.2274C99.5513 79.3554 99.5374 79.3304 99.6235 79.2893L100.054 80.192L100.484 81.0947C100.815 80.9372 101.06 80.6744 101.237 80.4431C101.425 80.1975 101.602 79.8989 101.77 79.5672L100.879 79.1145ZM100.054 80.192L99.6235 79.2893C99.5061 79.3453 99.4697 79.3571 99.483 79.3529C99.4901 79.3507 99.514 79.3434 99.5495 79.3363C99.577 79.3309 99.6587 79.3157 99.7681 79.3212C99.8491 79.3253 100.145 79.3484 100.403 79.6011C100.72 79.9121 100.721 80.2983 100.681 80.4991L99.7001 80.3029L98.7196 80.1068C98.6773 80.3182 98.6798 80.7125 99.0028 81.0292C99.2663 81.2876 99.5721 81.3138 99.6668 81.3186C99.8742 81.3291 100.045 81.2726 100.081 81.2613C100.213 81.2202 100.357 81.1552 100.484 81.0947L100.054 80.192ZM99.7001 80.3029L100.646 80.6282L100.699 80.473L99.7535 80.1478L98.8079 79.8225L98.7545 79.9777L99.7001 80.3029ZM99.7535 80.1478L98.8397 79.7416L98.7991 79.833L99.7129 80.2392L100.627 80.6453L100.667 80.5539L99.7535 80.1478Z" fill="#FAFAFA"/>
<path d="M100.964 75.9612C101.136 75.4364 100.85 74.8714 100.326 74.6993C99.8008 74.5271 99.2358 74.8129 99.0636 75.3376L100.014 75.6494L100.964 75.9612ZM99.9826 75.7444L99.0325 75.4327L99.0052 75.5156L98.9928 75.602L99.9826 75.7444ZM98.5165 80.2401L97.684 79.686L98.5165 80.2401ZM98.3778 80.4987L98.8923 81.3562L99.082 81.2424L99.206 81.0592L98.3778 80.4987ZM98.4648 80.3703L99.4149 80.682L97.6366 79.8098L98.4648 80.3703ZM97.4834 80.1535C97.3113 80.6783 97.5971 81.2432 98.1218 81.4154C98.6466 81.5876 99.2116 81.3018 99.3838 80.777L98.4336 80.4653L97.4834 80.1535ZM100.014 75.6494L99.0636 75.3376L99.0325 75.4327L99.9826 75.7444L100.933 76.0562L100.964 75.9612L100.014 75.6494ZM99.9826 75.7444L98.9928 75.602C98.7914 77.002 98.5444 77.9413 98.2868 78.4929L99.1928 78.9161L100.099 79.3393C100.484 78.5151 100.763 77.3399 100.972 75.8868L99.9826 75.7444ZM99.1928 78.9161L98.2868 78.4929C97.9583 79.1964 97.7642 79.5656 97.684 79.686L98.5165 80.2401L99.3489 80.7941C99.528 80.5251 99.7849 80.0116 100.099 79.3393L99.1928 78.9161ZM98.5165 80.2401L97.684 79.686C97.619 79.7836 97.5511 79.889 97.5033 79.9783C97.4901 80.0029 97.4711 80.0398 97.4523 80.0835C97.4415 80.1086 97.3953 80.2144 97.3754 80.3551C97.3664 80.4189 97.346 80.5951 97.4136 80.8056C97.4993 81.0725 97.7196 81.3533 98.0845 81.4611C98.3694 81.5452 98.602 81.4785 98.6824 81.4522C98.7827 81.4194 98.8563 81.3779 98.8923 81.3562L98.3778 80.4987L97.8633 79.6412C97.8947 79.6224 97.9643 79.5828 98.0612 79.5511C98.1383 79.5259 98.3682 79.4594 98.651 79.543C99.0139 79.6501 99.2328 79.9295 99.3178 80.1941C99.3847 80.4023 99.3642 80.5753 99.3557 80.6352C99.337 80.7678 99.2945 80.8623 99.2901 80.8726C99.2776 80.9015 99.2676 80.9202 99.2659 80.9233C99.2643 80.9264 99.2843 80.8913 99.3489 80.7941L98.5165 80.2401ZM98.3778 80.4987L99.206 81.0592L99.2929 80.9307L98.4648 80.3703L97.6366 79.8098L97.5496 79.9383L98.3778 80.4987ZM98.4648 80.3703L97.5146 80.0585L97.4834 80.1535L98.4336 80.4653L99.3838 80.777L99.4149 80.682L98.4648 80.3703Z" fill="#FAFAFA"/>
<path d="M101.325 74.7271C101.521 74.211 101.262 73.6332 100.746 73.4366C100.23 73.24 99.6525 73.499 99.4559 74.0151L100.39 74.3711L101.325 74.7271ZM100.355 74.4645L99.4203 74.1085L99.3763 74.2239L99.3617 74.3464L100.355 74.4645ZM98.3008 80.3207L99.0695 80.9603L98.3008 80.3207ZM97.9437 80.7442L98.7473 81.3394L98.7968 81.2726L98.8345 81.1985L97.9437 80.7442ZM98.018 80.5985L98.9525 80.9544L97.1272 80.1441L98.018 80.5985ZM97.0479 80.3359C96.8513 80.852 97.1103 81.4298 97.6264 81.6264C98.1425 81.823 98.7203 81.564 98.9169 81.0479L97.9824 80.6919L97.0479 80.3359ZM100.39 74.3711L99.4559 74.0151L99.4203 74.1085L100.355 74.4645L101.289 74.8205L101.325 74.7271L100.39 74.3711ZM100.355 74.4645L99.3617 74.3464C99.1437 76.1798 98.8278 77.3965 98.4696 78.0954L99.3596 78.5514L100.25 79.0075C100.775 77.9816 101.123 76.4737 101.348 74.5827L100.355 74.4645ZM99.3596 78.5514L98.4696 78.0954C98.0285 78.9562 97.7185 79.4572 97.5321 79.6811L98.3008 80.3207L99.0695 80.9603C99.411 80.55 99.8068 79.8715 100.25 79.0075L99.3596 78.5514ZM98.3008 80.3207L97.5321 79.6811C97.4003 79.8395 97.3064 79.9519 97.2492 80.0197C97.2191 80.0555 97.2041 80.0729 97.1997 80.0779C97.1711 80.1105 97.2202 80.051 97.2802 79.9983C97.289 79.9905 97.3394 79.9455 97.4123 79.9001C97.4385 79.8838 97.5443 79.8177 97.6973 79.7793C97.8144 79.75 98.3739 79.6487 98.7472 80.1587C98.896 80.362 98.9302 80.567 98.938 80.6816C98.946 80.7993 98.9312 80.893 98.9211 80.9442C98.901 81.0453 98.8695 81.1199 98.8581 81.1461C98.8317 81.2072 98.8048 81.2519 98.7982 81.263C98.7793 81.2944 98.7629 81.3176 98.7599 81.3219C98.7539 81.3304 98.7493 81.3367 98.7473 81.3394L97.9437 80.7442L97.1402 80.1489C97.1365 80.1538 97.1305 80.162 97.1235 80.1719C97.1195 80.1777 97.1023 80.2021 97.083 80.2343C97.0761 80.2458 97.049 80.2907 97.0225 80.3521C97.0111 80.3784 96.9796 80.4531 96.9594 80.5543C96.9493 80.6055 96.9346 80.6993 96.9426 80.817C96.9503 80.9316 96.9845 81.1366 97.1333 81.34C97.5066 81.8499 98.0662 81.7487 98.1834 81.7193C98.3364 81.681 98.4423 81.6148 98.4686 81.5984C98.5416 81.553 98.5923 81.5077 98.6015 81.4997C98.6336 81.4714 98.6571 81.4468 98.6617 81.4421C98.6707 81.4328 98.678 81.4249 98.6822 81.4203C98.6908 81.4109 98.6984 81.4023 98.7033 81.3967C98.7222 81.3752 98.7487 81.344 98.7781 81.3091C98.8399 81.2358 98.9374 81.1191 99.0695 80.9603L98.3008 80.3207ZM97.9437 80.7442L98.8345 81.1985L98.9089 81.0528L98.018 80.5985L97.1272 80.1441L97.0529 80.2898L97.9437 80.7442ZM98.018 80.5985L97.0835 80.2425L97.0479 80.3359L97.9824 80.6919L98.9169 81.0479L98.9525 80.9544L98.018 80.5985Z" fill="#FAFAFA"/>
<path d="M99.9178 74.2074C100.077 73.6785 99.7775 73.1207 99.2487 72.9614C98.7199 72.8022 98.1621 73.1017 98.0028 73.6305L98.9603 73.9189L99.9178 74.2074ZM98.9315 74.0147L97.9739 73.7263L97.9395 73.8407L97.9329 73.9601L98.9315 74.0147ZM97.4512 79.7791L98.2735 80.3482L97.4512 79.7791ZM97.0872 80.229L96.0955 80.1005L96.0791 80.2268L96.0949 80.3531L97.0872 80.229ZM97.1079 80.0688L98.0996 80.1973L96.1504 79.7803L97.1079 80.0688ZM96.1216 79.8761C95.9623 80.4049 96.2619 80.9627 96.7907 81.122C97.3195 81.2813 97.8773 80.9817 98.0366 80.4529L97.0791 80.1645L96.1216 79.8761ZM98.9603 73.9189L98.0028 73.6305L97.9739 73.7263L98.9315 74.0147L99.889 74.3031L99.9178 74.2074L98.9603 73.9189ZM98.9315 74.0147L97.9329 73.9601C97.8371 75.7128 97.6312 76.9066 97.3613 77.6191L98.2964 77.9734L99.2316 78.3276C99.6139 77.3184 99.8313 75.8731 99.93 74.0693L98.9315 74.0147ZM98.2964 77.9734L97.3613 77.6191C97.0379 78.4727 96.7916 78.9751 96.629 79.2101L97.4512 79.7791L98.2735 80.3482C98.5856 79.8973 98.9027 79.1959 99.2316 78.3276L98.2964 77.9734ZM97.4512 79.7791L96.629 79.2101C96.5121 79.3789 96.4404 79.4759 96.4049 79.5198C96.376 79.5554 96.4045 79.5145 96.4681 79.4608C96.4883 79.4438 96.5295 79.4105 96.5876 79.3756C96.6339 79.3478 96.7612 79.2753 96.9444 79.2475C97.1581 79.215 97.4975 79.2429 97.7787 79.5102C98.0178 79.7376 98.0668 80.0037 98.0794 80.105L97.0872 80.229L96.0949 80.3531C96.1082 80.4597 96.1588 80.7297 96.4004 80.9595C96.684 81.2292 97.0268 81.2579 97.2448 81.2248C97.4324 81.1963 97.5648 81.1217 97.6172 81.0902C97.6815 81.0516 97.7297 81.0132 97.7578 80.9894C97.8531 80.9091 97.9277 80.8172 97.9596 80.7779C98.0454 80.6718 98.153 80.5223 98.2735 80.3482L97.4512 79.7791ZM97.0872 80.229L98.0789 80.3576L98.0996 80.1973L97.1079 80.0688L96.1162 79.9402L96.0955 80.1005L97.0872 80.229ZM97.1079 80.0688L96.1504 79.7803L96.1216 79.8761L97.0791 80.1645L98.0366 80.4529L98.0655 80.3572L97.1079 80.0688Z" fill="#FAFAFA"/>
<path d="M99.8916 72.6281C100.093 72.1138 99.8391 71.5337 99.3248 71.3324C98.8105 71.1312 98.2304 71.385 98.0291 71.8993L98.9604 72.2637L99.8916 72.6281ZM98.9239 72.3568L97.9927 71.9924L97.9489 72.1044L97.9328 72.2236L98.9239 72.3568ZM96.2357 79.2496L95.2873 78.9326L95.275 78.9694L95.2655 79.007L96.2357 79.2496ZM96.2879 79.0933L97.2363 79.4103L95.3567 78.7289L96.2879 79.0933ZM95.3202 78.8221C95.119 79.3364 95.3728 79.9165 95.8871 80.1177C96.4014 80.319 96.9815 80.0652 97.1827 79.5509L96.2515 79.1865L95.3202 78.8221ZM98.9604 72.2637L98.0291 71.8993L97.9927 71.9924L98.9239 72.3568L99.8552 72.7212L99.8916 72.6281L98.9604 72.2637ZM98.9239 72.3568L97.9328 72.2236C97.6801 74.1047 97.3261 75.3395 96.9329 76.0376L97.8042 76.5284L98.6756 77.0191C99.2616 75.9785 99.6541 74.4323 99.915 72.49L98.9239 72.3568ZM97.8042 76.5284L96.9329 76.0376C96.4438 76.9061 96.0589 77.5847 95.7777 78.0746L96.6449 78.5725L97.5121 79.0705C97.7974 78.5735 98.1855 77.8893 98.6756 77.0191L97.8042 76.5284ZM96.6449 78.5725L95.7777 78.0746C95.6365 78.3204 95.5363 78.492 95.4743 78.5946C95.4404 78.6507 95.4285 78.6685 95.4306 78.6655C95.4319 78.6634 95.4392 78.6529 95.4507 78.6378C95.4543 78.633 95.4916 78.5831 95.5503 78.5274C95.5694 78.5093 95.6607 78.4212 95.8055 78.352C95.8794 78.3167 96.0396 78.2507 96.2545 78.2547C96.5078 78.2594 96.7753 78.3624 96.9741 78.5802C97.1446 78.7671 97.1982 78.9662 97.2173 79.0652C97.2377 79.1719 97.2362 79.2589 97.2337 79.3053C97.2289 79.398 97.2118 79.4683 97.2058 79.4921L96.2357 79.2496L95.2655 79.007C95.2589 79.0335 95.2415 79.1059 95.2365 79.2001C95.234 79.2473 95.2325 79.335 95.2531 79.4422C95.2722 79.5417 95.326 79.7413 95.4968 79.9284C95.6958 80.1465 95.9637 80.2496 96.2173 80.2543C96.4326 80.2583 96.5933 80.1922 96.6677 80.1566C96.8135 80.087 96.9063 79.9978 96.9269 79.9782C96.9889 79.9194 97.0306 79.8642 97.0399 79.8521C97.0569 79.8298 97.0709 79.8098 97.0801 79.7964C97.1137 79.7474 97.1516 79.6859 97.1859 79.6291C97.2603 79.506 97.3699 79.318 97.5121 79.0705L96.6449 78.5725ZM96.2357 79.2496L97.1841 79.5666L97.2363 79.4103L96.2879 79.0933L95.3395 78.7763L95.2873 78.9326L96.2357 79.2496ZM96.2879 79.0933L95.3567 78.7289L95.3202 78.8221L96.2515 79.1865L97.1827 79.5509L97.2191 79.4577L96.2879 79.0933Z" fill="#FAFAFA"/>
<path d="M99.1678 71.4152C99.3227 70.8851 99.0184 70.3298 98.4883 70.1749C97.9582 70.02 97.4029 70.3242 97.248 70.8544L98.2079 71.1348L99.1678 71.4152ZM98.1799 71.2308L97.22 70.9503L97.196 71.0325L97.1863 71.1176L98.1799 71.2308ZM97.3103 75.5018L96.3779 75.1403L97.3103 75.5018ZM96.4556 77.4023L97.3045 77.931L96.4556 77.4023ZM96.1973 77.8679L96.752 78.6999L96.9321 78.5799L97.0464 78.3961L96.1973 77.8679ZM96.2795 77.7358L97.2394 78.0162L95.4304 77.2076L96.2795 77.7358ZM95.2916 77.5514C95.1367 78.0815 95.4409 78.6368 95.9711 78.7917C96.5012 78.9466 97.0565 78.6424 97.2113 78.1122L96.2515 77.8318L95.2916 77.5514ZM98.2079 71.1348L97.248 70.8544L97.22 70.9503L98.1799 71.2308L99.1397 71.5112L99.1678 71.4152L98.2079 71.1348ZM98.1799 71.2308L97.1863 71.1176C96.9707 73.0104 96.6919 74.3306 96.3779 75.1403L97.3103 75.5018L98.2427 75.8633C98.6519 74.8079 98.9528 73.2807 99.1734 71.3439L98.1799 71.2308ZM97.3103 75.5018L96.3779 75.1403C96.0149 76.0767 95.7594 76.6286 95.6067 76.8737L96.4556 77.4023L97.3045 77.931C97.5683 77.5073 97.8826 76.7921 98.2427 75.8633L97.3103 75.5018ZM96.4556 77.4023L95.6067 76.8737C95.5017 77.0423 95.4166 77.1831 95.3604 77.2844C95.3402 77.3209 95.2935 77.4052 95.2588 77.496C95.2489 77.522 95.2297 77.5748 95.2144 77.6425C95.2083 77.6695 95.1565 77.8757 95.2233 78.1263C95.2637 78.2774 95.3647 78.5064 95.6033 78.6794C95.8456 78.8552 96.1017 78.8806 96.271 78.8672C96.5451 78.8455 96.73 78.7146 96.752 78.6999L96.1973 77.8679L95.6426 77.0358C95.6602 77.0241 95.8415 76.8949 96.1131 76.8734C96.281 76.8601 96.5361 76.8853 96.7775 77.0604C97.0153 77.2329 97.1158 77.4609 97.1557 77.6107C97.2219 77.8588 97.1703 78.0609 97.1654 78.0825C97.1514 78.1449 97.1344 78.1908 97.1276 78.2086C97.1054 78.2667 97.0865 78.2958 97.1093 78.2546C97.1392 78.2008 97.2012 78.0968 97.3045 77.931L96.4556 77.4023ZM96.1973 77.8679L97.0464 78.3961L97.1286 78.2641L96.2795 77.7358L95.4304 77.2076L95.3482 77.3397L96.1973 77.8679ZM96.2795 77.7358L95.3196 77.4554L95.2916 77.5514L96.2515 77.8318L97.2113 78.1122L97.2394 78.0162L96.2795 77.7358Z" fill="#FAFAFA"/>
<path d="M98.3826 72.1874C98.5896 71.6754 98.3424 71.0925 97.8303 70.8854C97.3183 70.6784 96.7354 70.9256 96.5284 71.4376L97.4555 71.8125L98.3826 72.1874ZM97.418 71.9052L98.3408 72.2907L98.3451 72.2801L97.418 71.9052ZM95.5696 75.8671L96.4401 76.3592L95.5696 75.8671ZM94.4489 78.3981L93.494 78.101L94.4489 78.3981ZM94.0693 79.5528L93.0997 79.3083L93.0693 79.4287V79.5528H94.0693ZM94.1089 79.3959L95.0785 79.6404L93.1904 79.0004L94.1089 79.3959ZM93.1509 79.0922C92.9324 79.5995 93.1666 80.1878 93.6738 80.4062C94.1811 80.6247 94.7693 80.3905 94.9878 79.8833L94.0693 79.4878L93.1509 79.0922ZM97.4555 71.8125L96.5284 71.4376L96.4909 71.5303L97.418 71.9052L98.3451 72.2801L98.3826 72.1874L97.4555 71.8125ZM97.418 71.9052L96.4953 71.5198C95.7613 73.2768 95.1634 74.5536 94.699 75.3751L95.5696 75.8671L96.4401 76.3592C96.964 75.4324 97.5983 74.0679 98.3407 72.2907L97.418 71.9052ZM95.5696 75.8671L94.699 75.3751C94.176 76.3003 93.7715 77.2092 93.494 78.101L94.4489 78.3981L95.4037 78.6952C95.6323 77.9606 95.975 77.1822 96.4401 76.3592L95.5696 75.8671ZM94.4489 78.3981L93.494 78.101C93.3678 78.5067 93.2749 78.7999 93.2142 78.9844C93.183 79.0795 93.1642 79.1338 93.1553 79.1577C93.1466 79.1814 93.157 79.1497 93.1796 79.1043C93.1863 79.0909 93.2039 79.056 93.2312 79.0133C93.245 78.9919 93.2699 78.9549 93.3057 78.9123C93.3345 78.8779 93.4091 78.7925 93.5299 78.7149C93.6418 78.6428 93.9419 78.4853 94.3315 78.5908C94.729 78.6985 94.9102 78.9948 94.9725 79.1255C95.037 79.261 95.0548 79.3782 95.0608 79.4238C95.0684 79.4808 95.0693 79.5268 95.0693 79.5528H94.0693H93.0693C93.0693 79.5534 93.0599 79.7612 93.167 79.9858C93.2295 80.117 93.411 80.4136 93.8088 80.5213C94.1989 80.6269 94.4993 80.4693 94.6118 80.397C94.8125 80.2679 94.9126 80.0964 94.9141 80.0941C94.943 80.0491 94.9623 80.0111 94.9709 79.9937C95.0014 79.9323 95.0237 79.8714 95.0308 79.8524C95.0536 79.7909 95.0822 79.7063 95.1142 79.6089C95.1801 79.4085 95.277 79.1026 95.4037 78.6952L94.4489 78.3981ZM94.0693 79.5528L95.039 79.7973L95.0785 79.6404L94.1089 79.3959L93.1392 79.1515L93.0997 79.3083L94.0693 79.5528ZM94.1089 79.3959L93.1904 79.0004L93.1509 79.0922L94.0693 79.4878L94.9878 79.8833L95.0273 79.7915L94.1089 79.3959Z" fill="#FAFAFA"/>
<path d="M95.9205 79.9319C96.4665 79.8486 96.8415 79.3384 96.7582 78.7925C96.6748 78.2465 96.1647 77.8715 95.6187 77.9548L95.7696 78.9434L95.9205 79.9319ZM95.6708 78.9584L95.5199 77.9699L95.4796 77.976L95.44 77.9854L95.6708 78.9584ZM90.2567 79.719L89.2693 79.877L89.3545 80.4095L89.8462 80.6308L90.2567 79.719ZM90.3659 79.7681L90.5167 80.7567L93.8628 80.246L90.7764 78.8563L90.3659 79.7681ZM90.1161 78.7947C89.5702 78.878 89.1951 79.3882 89.2784 79.9341C89.3618 80.4801 89.8719 80.8551 90.4179 80.7718L90.267 79.7832L90.1161 78.7947ZM95.7696 78.9434L95.6187 77.9548L95.5199 77.9699L95.6708 78.9584L95.8217 79.947L95.9205 79.9319L95.7696 78.9434ZM95.6708 78.9584L95.44 77.9854C93.8451 78.3637 92.6975 78.5238 91.9513 78.5103L91.9332 79.5101L91.9152 80.51C92.9178 80.528 94.2619 80.3203 95.9015 79.9315L95.6708 78.9584ZM91.9332 79.5101L91.9513 78.5103C91.5066 78.5023 91.1407 78.503 90.8623 78.5142C90.724 78.5198 90.5927 78.5285 90.4769 78.5427C90.3943 78.5527 90.2061 78.5768 90.0247 78.6583L90.434 79.5706L90.8434 80.483C90.768 80.5168 90.713 80.528 90.7091 80.5288C90.6977 80.5313 90.6992 80.5304 90.7192 80.5279C90.7596 80.523 90.8313 80.5171 90.9429 80.5126C91.1642 80.5037 91.4854 80.5022 91.9152 80.51L91.9332 79.5101ZM90.434 79.5706L90.0247 78.6583C89.9326 78.6996 89.7885 78.7705 89.6541 78.8829C89.5647 78.9578 89.1775 79.3035 89.2693 79.877L90.2567 79.719L91.2442 79.561C91.2857 79.8207 91.2137 80.0378 91.1342 80.1783C91.0613 80.307 90.9769 80.3839 90.9377 80.4167C90.8624 80.4797 90.8104 80.4978 90.8434 80.483L90.434 79.5706ZM90.2567 79.719L89.8462 80.6308L89.9553 80.68L90.3659 79.7681L90.7764 78.8563L90.6673 78.8072L90.2567 79.719ZM90.3659 79.7681L90.215 78.7796L90.1161 78.7947L90.267 79.7832L90.4179 80.7718L90.5167 80.7567L90.3659 79.7681Z" fill="#FAFAFA"/>
<path d="M95.0294 80.6444C95.5687 80.5252 95.9092 79.9914 95.79 79.4521C95.6708 78.9129 95.137 78.5723 94.5977 78.6915L94.8136 79.668L95.0294 80.6444ZM94.7159 79.6896L94.5001 78.7131L94.3828 78.7391L94.2749 78.7921L94.7159 79.6896ZM92.1189 80.1285L92.4159 81.0833L92.1189 80.1285ZM92.0623 80.2111H91.0623V80.8606L91.6557 81.1247L92.0623 80.2111ZM92.1599 80.2546L92.3758 81.231L95.3406 80.5756L92.5665 79.341L92.1599 80.2546ZM91.8464 79.2997C91.3072 79.4189 90.9666 79.9527 91.0858 80.492C91.205 81.0313 91.7388 81.3718 92.2781 81.2526L92.0623 80.2762L91.8464 79.2997ZM94.8136 79.668L94.5977 78.6915L94.5001 78.7131L94.7159 79.6896L94.9318 80.666L95.0294 80.6444L94.8136 79.668ZM94.7159 79.6896L94.2749 78.7921C93.5588 79.1439 93.153 79.2057 92.9737 79.1874L92.8719 80.1822L92.77 81.177C93.5193 81.2537 94.3429 80.9871 95.1569 80.5871L94.7159 79.6896ZM92.8719 80.1822L92.9737 79.1874C92.7384 79.1633 92.5475 79.1457 92.4065 79.1356C92.3374 79.1307 92.269 79.1267 92.2085 79.1254C92.179 79.1248 92.139 79.1245 92.0955 79.1266C92.0805 79.1273 91.9594 79.1308 91.8218 79.1736L92.1189 80.1285L92.4159 81.0833C92.3375 81.1077 92.2747 81.1161 92.2522 81.1189C92.2231 81.1226 92.201 81.1238 92.1905 81.1243C92.1697 81.1253 92.1591 81.1248 92.1658 81.125C92.1775 81.1252 92.2079 81.1265 92.2643 81.1306C92.3743 81.1384 92.5411 81.1535 92.77 81.177L92.8719 80.1822ZM92.1189 80.1285L91.8218 79.1736C91.629 79.2336 91.4101 79.361 91.2513 79.593C91.0983 79.8164 91.0623 80.0475 91.0623 80.2111H92.0623H93.0623C93.0623 80.3313 93.0357 80.527 92.9015 80.7229C92.7616 80.9273 92.571 81.0351 92.4159 81.0833L92.1189 80.1285ZM92.0623 80.2111L91.6557 81.1247L91.7533 81.1682L92.1599 80.2546L92.5665 79.341L92.4689 79.2975L92.0623 80.2111ZM92.1599 80.2546L91.9441 79.2781L91.8464 79.2997L92.0623 80.2762L92.2781 81.2526L92.3758 81.231L92.1599 80.2546Z" fill="#FAFAFA"/>
<path d="M95.5192 81.3585C96.0689 81.3048 96.4709 80.8157 96.4172 80.266C96.3634 79.7163 95.8743 79.3143 95.3246 79.368L95.4219 80.3633L95.5192 81.3585ZM95.3224 80.373L95.2251 79.3778L95.1673 79.3834L95.1106 79.3957L95.3224 80.373ZM91.5701 80.6747H90.5701V81.263L91.0843 81.5488L91.5701 80.6747ZM91.6696 80.73L91.7669 81.7253L94.9577 81.4134L92.1554 79.856L91.6696 80.73ZM91.4728 79.7445C90.9231 79.7982 90.5211 80.2874 90.5748 80.8371C90.6286 81.3867 91.1177 81.7888 91.6674 81.735L91.5701 80.7398L91.4728 79.7445ZM95.4219 80.3633L95.3246 79.368L95.2251 79.3778L95.3224 80.373L95.4197 81.3683L95.5192 81.3585L95.4219 80.3633ZM95.3224 80.373L95.1106 79.3957C94.1721 79.5991 93.5646 79.6264 93.2168 79.567L93.0485 80.5527L92.8802 81.5385C93.6097 81.663 94.5182 81.5705 95.5342 81.3503L95.3224 80.373ZM93.0485 80.5527L93.2168 79.567C92.6782 79.4751 92.0916 79.4166 91.626 79.552L91.9052 80.5122L92.1845 81.4725C92.1498 81.4825 92.1802 81.4679 92.3232 81.473C92.4547 81.4777 92.6377 81.4971 92.8802 81.5385L93.0485 80.5527ZM91.9052 80.5122L91.626 79.552C91.4984 79.5891 91.3502 79.6375 91.2176 79.7018C91.1557 79.7318 91.0442 79.7901 90.9334 79.8868C90.8494 79.9602 90.5701 80.2246 90.5701 80.6747H91.5701H92.5701C92.5701 81.1032 92.3047 81.3446 92.2487 81.3935C92.1658 81.4659 92.0962 81.4985 92.0901 81.5014C92.0692 81.5115 92.0887 81.5003 92.1845 81.4725L91.9052 80.5122ZM91.5701 80.6747L91.0843 81.5488L91.1838 81.6041L91.6696 80.73L92.1554 79.856L92.0559 79.8007L91.5701 80.6747ZM91.6696 80.73L91.5723 79.7348L91.4728 79.7445L91.5701 80.7398L91.6674 81.735L91.7669 81.7253L91.6696 80.73Z" fill="#FAFAFA"/>
<path d="M98.3765 80.6675C98.9285 80.6512 99.3629 80.1906 99.3467 79.6385C99.3304 79.0865 98.8698 78.6521 98.3177 78.6683L98.3471 79.6679L98.3765 80.6675ZM98.2471 79.6709L98.2177 78.6713L98.1851 78.6722L98.1525 78.6753L98.2471 79.6709ZM95.4222 79.813L94.7691 79.0557L94.1796 79.564L94.5277 80.2602L95.4222 79.813ZM95.493 79.7519L96.1461 80.5092L98.2794 78.6695L95.4636 78.7523L95.493 79.7519ZM95.3637 78.7552C94.8116 78.7715 94.3773 79.2321 94.3935 79.7842C94.4097 80.3362 94.8704 80.7706 95.4225 80.7544L95.3931 79.7548L95.3637 78.7552ZM98.3471 79.6679L98.3177 78.6683L98.2177 78.6713L98.2471 79.6709L98.2765 80.6704L98.3765 80.6675L98.3471 79.6679ZM98.2471 79.6709L98.1525 78.6753C97.8462 78.7045 97.489 78.6804 97.0733 78.5847L96.8489 79.5592L96.6245 80.5337C97.2111 80.6688 97.7861 80.7192 98.3418 80.6664L98.2471 79.6709ZM96.8489 79.5592L97.0733 78.5847C96.5231 78.458 95.7675 78.383 95.1736 78.829L95.7742 79.6286L96.3747 80.4282C96.2828 80.4972 96.2205 80.491 96.2688 80.4879C96.3191 80.4847 96.4313 80.4892 96.6245 80.5337L96.8489 79.5592ZM95.7742 79.6286L95.1736 78.829C95.0746 78.9034 95.0445 78.9186 95.0608 78.9101C95.0685 78.906 95.0893 78.8955 95.1204 78.8833C95.148 78.8724 95.2084 78.8505 95.2915 78.8367C95.3657 78.8244 95.5321 78.8057 95.7325 78.8684C95.9689 78.9423 96.1896 79.1117 96.3166 79.3658L95.4222 79.813L94.5277 80.2602C94.6596 80.5239 94.8882 80.6999 95.1355 80.7772C95.3469 80.8434 95.5273 80.8249 95.6186 80.8098C95.7969 80.7802 95.9346 80.7102 95.9887 80.6818C96.1222 80.6119 96.2585 80.5155 96.3747 80.4282L95.7742 79.6286ZM95.4222 79.813L96.0752 80.5703L96.1461 80.5092L95.493 79.7519L94.84 78.9946L94.7691 79.0557L95.4222 79.813ZM95.493 79.7519L95.4636 78.7523L95.3637 78.7552L95.3931 79.7548L95.4225 80.7544L95.5224 80.7514L95.493 79.7519Z" fill="#FAFAFA"/>
<path d="M97.2127 81.2431C97.7466 81.1017 98.0649 80.5544 97.9236 80.0205C97.7822 79.4866 97.2349 79.1683 96.701 79.3097L96.9568 80.2764L97.2127 81.2431ZM96.8602 80.302L96.6043 79.3353L96.3595 79.4001L96.175 79.5736L96.8602 80.302ZM95.9794 80.6017L95.2691 79.8978L94.9322 80.2379L94.9857 80.7135L95.9794 80.6017ZM96.0688 80.5114L96.7792 81.2153L99.3664 78.6041L95.8129 79.5447L96.0688 80.5114ZM95.7163 79.5703C95.1824 79.7116 94.8641 80.259 95.0055 80.7929C95.1468 81.3268 95.6942 81.645 96.2281 81.5037L95.9722 80.537L95.7163 79.5703ZM96.9568 80.2764L96.701 79.3097L96.6043 79.3353L96.8602 80.302L97.1161 81.2687L97.2127 81.2431L96.9568 80.2764ZM96.8602 80.302L96.175 79.5736C96.182 79.567 96.2636 79.492 96.4221 79.4622C96.6 79.4287 96.7544 79.4743 96.8481 79.5274L96.3545 80.3971L95.861 81.2668C96.1228 81.4154 96.4456 81.4929 96.792 81.4277C97.1191 81.3661 97.3694 81.1958 97.5454 81.0303L96.8602 80.302ZM96.3545 80.3971L96.8481 79.5274C96.7095 79.4487 96.3704 79.2762 95.9517 79.3613C95.4029 79.4728 95.1606 79.9082 95.0815 80.1904L96.0445 80.4601L97.0074 80.7298C96.9892 80.7948 96.9437 80.9195 96.8306 81.0459C96.706 81.185 96.5369 81.2833 96.35 81.3213C96.1796 81.3559 96.0449 81.3306 95.9761 81.3118C95.9066 81.2927 95.8663 81.2698 95.861 81.2668L96.3545 80.3971ZM96.0445 80.4601L95.0815 80.1904C95.0601 80.267 95.0638 80.2396 95.0907 80.1811C95.0982 80.1646 95.126 80.1044 95.1765 80.0332C95.2017 79.9978 95.253 79.9302 95.3337 79.8602C95.4068 79.7967 95.5758 79.6685 95.8338 79.6287C96.1397 79.5815 96.4219 79.6807 96.6216 79.846C96.7883 79.984 96.8659 80.1395 96.8969 80.2098C96.959 80.3504 96.9709 80.4699 96.9732 80.4898L95.9794 80.6017L94.9857 80.7135C94.9892 80.7442 95.0029 80.8716 95.0672 81.0174C95.0994 81.0903 95.1782 81.2476 95.3463 81.3867C95.5474 81.5532 95.8311 81.6528 96.1387 81.6054C96.3983 81.5653 96.5691 81.4361 96.6442 81.371C96.7268 81.2993 96.7801 81.2293 96.8075 81.1908C96.8623 81.1135 96.895 81.0444 96.908 81.0161C96.9566 80.9104 96.9904 80.7907 97.0074 80.7298L96.0445 80.4601ZM95.9794 80.6017L96.6898 81.3055L96.7792 81.2153L96.0688 80.5114L95.3585 79.8076L95.2691 79.8978L95.9794 80.6017ZM96.0688 80.5114L95.8129 79.5447L95.7163 79.5703L95.9722 80.537L96.2281 81.5037L96.3247 81.4781L96.0688 80.5114Z" fill="#FAFAFA"/>
<path d="M98.2676 77.3012C98.7997 77.1531 99.1109 76.6017 98.9627 76.0696C98.8145 75.5376 98.2631 75.2264 97.7311 75.3745L97.9994 76.3379L98.2676 77.3012ZM97.903 76.3647L97.6348 75.4014L97.5519 75.4245L97.4742 75.4613L97.903 76.3647ZM95.923 76.8519L95.1069 76.2739L95.923 76.8519ZM95.7293 77.0376L94.9778 76.3778L94.6178 76.7879L94.7678 77.3125L95.7293 77.0376ZM95.8078 76.9482L96.5592 77.608L98.7753 75.0838L95.5395 75.9849L95.8078 76.9482ZM95.4432 76.0117C94.9111 76.1599 94.5999 76.7113 94.7481 77.2433C94.8962 77.7753 95.4477 78.0865 95.9797 77.9384L95.7114 76.975L95.4432 76.0117ZM97.9994 76.3379L97.7311 75.3745L97.6348 75.4014L97.903 76.3647L98.1713 77.3281L98.2676 77.3012L97.9994 76.3379ZM97.903 76.3647L97.4742 75.4613C97.0267 75.6738 96.8035 75.6847 96.7378 75.6764L96.6125 76.6686L96.4872 77.6607C97.1065 77.7389 97.7437 77.5473 98.3319 77.2681L97.903 76.3647ZM96.6125 76.6686L96.7378 75.6764C96.2973 75.6208 95.558 75.6371 95.1069 76.2739L95.923 76.8519L96.739 77.4299C96.694 77.4934 96.6383 77.5458 96.5787 77.5847C96.5209 77.6224 96.4707 77.6403 96.4402 77.6484C96.3878 77.6623 96.391 77.6485 96.4872 77.6607L96.6125 76.6686ZM95.923 76.8519L95.1069 76.2739C95.0508 76.3531 95.0523 76.3412 95.0946 76.3006C95.1093 76.2865 95.1424 76.2559 95.1913 76.2217C95.2315 76.1935 95.3367 76.1238 95.4927 76.0826C95.6624 76.0378 95.9666 76.0116 96.2691 76.2022C96.5527 76.3808 96.6554 76.6388 96.6908 76.7627L95.7293 77.0376L94.7678 77.3125C94.8062 77.4468 94.9135 77.712 95.2034 77.8945C95.5122 78.089 95.8243 78.0636 96.0035 78.0163C96.284 77.9422 96.4581 77.764 96.4787 77.7443C96.5856 77.6418 96.6779 77.5161 96.739 77.4299L95.923 76.8519ZM95.7293 77.0376L96.4808 77.6973L96.5592 77.608L95.8078 76.9482L95.0563 76.2885L94.9778 76.3778L95.7293 77.0376ZM95.8078 76.9482L95.5395 75.9849L95.4432 76.0117L95.7114 76.975L95.9797 77.9384L96.076 77.9116L95.8078 76.9482Z" fill="#FAFAFA"/>
<path d="M96.5629 78.4091C97.1151 78.4028 97.5576 77.9499 97.5513 77.3977C97.5449 76.8454 97.0921 76.4029 96.5399 76.4092L96.5514 77.4092L96.5629 78.4091ZM96.4514 77.4103L96.4399 76.4104L96.3433 76.4115L96.2487 76.4311L96.4514 77.4103ZM95.0403 77.3931L94.6642 78.3197L95.0403 77.3931ZM94.0317 77.5032L93.4798 76.6693L93.0317 76.9659V77.5032H94.0317ZM94.1317 77.437L94.6837 78.2709L97.5129 76.3981L94.1202 76.4371L94.1317 77.437ZM94.0202 76.4382C93.468 76.4446 93.0255 76.8974 93.0318 77.4496C93.0382 78.0019 93.491 78.4444 94.0432 78.4381L94.0317 77.4381L94.0202 76.4382ZM96.5514 77.4092L96.5399 76.4092L96.4399 76.4104L96.4514 77.4103L96.4629 78.4103L96.5629 78.4091L96.5514 77.4092ZM96.4514 77.4103L96.2487 76.4311C95.7173 76.541 95.4811 76.4928 95.4164 76.4665L95.0403 77.3931L94.6642 78.3197C95.2723 78.5665 95.9768 78.5297 96.654 78.3896L96.4514 77.4103ZM95.0403 77.3931L95.4164 76.4665C94.9942 76.2952 94.2891 76.122 93.6818 76.5797L94.2837 77.3783L94.8856 78.1769C94.8266 78.2213 94.7633 78.2513 94.7037 78.2685C94.646 78.2852 94.6018 78.2873 94.5793 78.2868C94.542 78.2861 94.5638 78.2789 94.6642 78.3197L95.0403 77.3931ZM94.2837 77.3783L93.6818 76.5797C93.6018 76.64 93.6025 76.6323 93.6507 76.6085C93.6676 76.6001 93.7057 76.582 93.7593 76.5647C93.8037 76.5503 93.9167 76.5169 94.0681 76.52C94.2267 76.5232 94.519 76.5722 94.7608 76.8268C94.9973 77.0758 95.0317 77.3606 95.0317 77.5032H94.0317H93.0317C93.0317 77.6566 93.0688 77.9496 93.3106 78.2041C93.5576 78.4643 93.8578 78.5161 94.0269 78.5196C94.3018 78.5252 94.5097 78.4149 94.5388 78.4005C94.6709 78.335 94.7976 78.2432 94.8856 78.1769L94.2837 77.3783ZM94.0317 77.5032L94.5837 78.337L94.6837 78.2709L94.1317 77.437L93.5798 76.6031L93.4798 76.6693L94.0317 77.5032ZM94.1317 77.437L94.1202 76.4371L94.0202 76.4382L94.0317 77.4381L94.0432 78.4381L94.1432 78.4369L94.1317 77.437Z" fill="#FAFAFA"/>
</svg>
