<svg width="137" height="134" viewBox="0 0 137 134" fill="none" xmlns="http://www.w3.org/2000/svg">
<rect x="71.2319" y="42.4561" width="74.72" height="29.8057" rx="14.9028" transform="rotate(121.236 71.2319 42.4561)" fill="#0A0A0A"/>
<rect x="115.232" y="42.4561" width="74.72" height="29.8057" rx="14.9028" transform="rotate(121.236 115.232 42.4561)" fill="#0A0A0A"/>
<circle cx="115" cy="86" r="15" fill="#0A0A0A"/>
<path d="M57.999 62C57.999 62 55.999 66 59.999 68C63.999 70 67.999 65 67.999 65M43 87C43 87 49 82.5 53 84.5C57 86.5 58 90.5 58 90.5M88 85C88 85 91.5 83 96 84C100.5 85 102 92 102 92M101 63C101.5 62.5 100 66.5 103 70C106 73.5 112 72 112 72" stroke="#0A0A0A"/>
<path d="M56.5 66.5C58.1 68.9 62.5 69.5 64.5 69.5L60.5 75.5L58 79L56 83.5L53 80L48 79L56 66.5" stroke="white"/>
<path d="M57.605 69.667C58.9792 68.9422 60.6975 69.0638 61.98 70.1045C63.5119 71.3491 63.8181 73.439 62.8862 75.1045L62.9487 75.167C62.8456 75.3601 62.6532 75.5057 62.5425 75.6982L62.5737 75.7295L62.5112 75.792C61.557 77.4328 60.3289 78.9759 58.6675 79.9795C58.6456 80.1502 58.6285 80.4075 58.5425 80.6982C58.4632 80.9627 58.2452 81.587 57.73 82.1982C57.1145 82.9255 56.0004 83.6807 54.5112 83.6357C53.2563 83.597 52.4103 83.0012 52.0737 82.7295L51.9487 82.6045L51.855 82.5732C51.8275 82.5509 51.8192 82.5024 51.7925 82.4795L51.5112 82.2607L51.23 81.792C50.3949 80.6661 50.1982 79.2376 50.73 77.9482C50.9795 75.5806 52.7589 74.2049 54.105 73.4795L55.0112 72.3545L55.105 72.5732C55.3199 72.2838 55.6078 71.907 55.8862 71.3857L56.0737 71.042L56.2925 70.7607L56.355 70.667L57.605 69.667Z" fill="#0A0A0A"/>
<path d="M49.1807 63.2852C50.4449 61.4758 52.9327 61.0239 54.7432 62.2852L54.8369 62.3477L55.5869 62.8789L56.0244 63.6602C57.6888 66.5963 59.1007 68.1745 60.1494 68.8789C60.8443 69.3448 61.3336 69.5678 61.6182 69.6602C61.6808 69.6802 61.7445 69.6536 61.7744 69.6602C62.3485 69.5424 62.9562 69.4454 63.4932 69.4102C63.7338 69.3944 64.3126 69.3583 64.9619 69.5039C65.2805 69.5763 65.9869 69.7863 66.6807 70.3477C67.3362 70.8805 67.7505 71.7013 67.9619 72.6602C68.0264 72.8797 68.0919 73.0893 68.1182 73.3164C68.1211 73.3795 68.1806 73.4397 68.1807 73.5039V74.2852L68.1182 74.4102C68.0247 74.9841 67.8173 75.5578 67.4619 76.0664C66.4376 77.5223 64.6392 78.0379 63.0244 77.5352C60.2832 78.0267 57.7068 76.8415 55.7119 75.5039C53.2313 73.8406 51.1502 71.1291 49.2744 67.8789C48.3008 66.5389 48.1815 64.7203 49.1807 63.2852Z" fill="#0A0A0A"/>
<path d="M67.2964 67.1973C69.4751 66.8341 71.5265 68.3 71.8901 70.4785C72.1764 72.1963 71.3008 73.7751 69.8589 74.5723C67.0884 76.436 63.8792 77.9581 60.6714 77.3848C59.9602 77.258 59.4242 77.2165 59.0464 77.1973C58.6369 77.1765 58.5734 77.1958 58.7026 77.166C58.2756 77.2643 57.6164 77.4161 56.9526 77.416C56.6757 77.4155 55.8891 77.402 55.0464 77.0098C54.576 76.7905 53.9623 76.3732 53.4526 75.666C52.9157 74.9182 52.6742 74.0733 52.6714 73.291V72.5723L52.7651 72.291C53.0635 70.6841 54.3096 69.3565 56.0151 69.0723L56.1089 69.041L62.8276 67.9473L62.2651 69.4785C62.3975 69.458 62.6023 69.4249 62.8901 69.3223C63.5402 69.0902 64.4517 68.6479 65.6089 67.8535L66.3276 67.3535L67.2026 67.1973H67.2964Z" fill="#0A0A0A"/>
<path d="M48.6152 70.2285C50.2456 68.7379 52.7808 68.8481 54.2715 70.4785C55.5012 71.825 55.5542 73.7164 54.6465 75.1973L54.709 75.2285C53.117 77.9928 51.0745 80.5882 48.3027 81.6973C47.6799 81.9461 47.2348 82.1798 46.9277 82.3535C46.7611 82.4478 46.6612 82.5078 46.6152 82.541C46.4888 82.6676 46.4048 82.749 46.3652 82.791C46.3903 82.759 46.455 82.6388 46.5527 82.4785C46.5848 82.4258 46.9532 81.8888 47.084 81.1035C47.1537 80.6774 47.2174 79.7677 46.7402 78.7598C46.1795 77.5799 45.1701 76.9027 44.2715 76.6348C43.5193 76.4126 42.8919 76.4721 42.6152 76.5098C42.3079 76.552 42.062 76.6218 41.9277 76.666L42.084 77.0723L46.209 83.2598L46.1152 83.3535C45.8391 83.6039 45.4956 83.7254 45.1777 83.8848L45.209 83.9473L44.8652 84.1035C44.8126 84.1239 44.7622 84.148 44.709 84.166L44.6777 84.1973L44.459 84.2598C44.3085 84.3099 44.0378 84.4013 43.709 84.4473C43.4193 84.4871 42.7615 84.5522 41.9902 84.3223C41.0852 84.0524 40.0868 83.3779 39.5215 82.1973C39.0337 81.1708 39.1054 80.2255 39.1777 79.791C39.3135 78.9846 39.6816 78.4187 39.7402 78.3223C39.8647 78.1184 39.9795 77.9473 40.0527 77.8535C40.3155 77.5179 40.6534 77.1597 40.9277 76.8848C42.0895 75.721 43.7642 74.9184 45.334 74.291C45.4984 74.2253 46.4197 73.6311 47.8027 71.2285L48.084 70.6973L48.5527 70.291L48.6152 70.2285Z" fill="#0A0A0A"/>
<path d="M57.4087 83.0879C57.912 83.1535 58.5605 83.3526 59.3149 83.6348C59.6308 83.6282 59.9429 83.7585 60.1431 84.0332C60.4178 84.4109 60.3739 84.9006 60.0884 85.2441L60.1665 85.252L59.9321 85.416L59.9243 85.4316L59.8462 85.4863L57.979 86.8457L57.9009 86.9082C57.6084 87.1213 57.2436 87.1313 56.9321 87.002L56.1978 86.9473L56.2759 86.2598C56.2425 86.2157 56.204 86.1613 56.1587 86.1035C55.7441 85.5741 55.572 84.9448 55.604 84.2832L55.6743 83.9316C55.715 83.8126 55.7757 83.692 55.8618 83.5801C56.0299 83.3624 56.2426 83.2366 56.4321 83.166C56.7759 83.0391 57.1418 83.0533 57.4087 83.0879Z" fill="#0A0A0A"/>
<path d="M56.8579 81.8477C56.9162 81.8519 56.9732 81.849 57.0298 81.8633C57.2858 81.8743 57.5995 81.9478 57.8423 82.2695C58.0066 82.4875 58.0482 82.7165 58.061 82.8555C58.0637 82.8847 58.0525 82.9136 58.0532 82.9414L59.3267 84.9258L57.9282 84.3867C57.8988 84.4109 57.8828 84.4515 57.8501 84.4727C57.3855 84.7713 56.7659 84.6404 56.4673 84.1758L56.4438 84.1367C56.3271 84.0037 56.2218 83.8589 56.1548 83.6914C56.1002 83.6521 56.0426 83.6087 55.9907 83.5508C55.6138 83.1291 55.743 82.648 55.8267 82.4648C55.8652 82.3807 55.92 82.3203 55.9595 82.2695C55.9664 82.2592 55.9834 82.2562 55.9907 82.2461C56.0186 82.2128 56.026 82.1717 56.0376 82.1602L56.4907 81.707L56.8579 81.8477Z" fill="#0A0A0A"/>
<path d="M55.75 83.3311L55.8984 83.4482C56.0745 83.5306 56.2375 83.6433 56.3438 83.8232L56.3984 83.9092L56.3516 83.9482C56.7084 84.3572 56.8302 84.8888 56.8672 85.3389C56.8636 85.295 56.8496 85.2996 56.9062 85.3701L57.3281 85.7139L57.5312 85.8467L57.6562 86.0576L57.7109 86.1436C57.9883 86.6193 57.8268 87.2316 57.3516 87.5107C56.9338 87.7558 56.4279 87.6478 56.1172 87.2998C55.5129 86.8891 54.9431 86.3145 54.875 85.5029C54.8632 85.3598 54.8423 85.2716 54.8281 85.2295L54.8672 85.2686L54.6016 84.9561C54.5796 84.9249 54.4529 84.7475 54.4141 84.5029C54.3905 84.3535 54.3759 83.9878 54.6641 83.667C54.894 83.411 55.1736 83.3605 55.3359 83.3467C55.3488 83.3447 55.3621 83.3481 55.375 83.3467C55.392 83.3459 55.409 83.3311 55.4219 83.3311H55.75ZM55.4219 84.7842V85.3311C55.5421 85.3307 55.8776 85.3033 56.1484 85.0029C56.4324 84.6868 56.4126 84.3293 56.3906 84.1904C56.3762 84.0995 56.3412 84.03 56.3203 83.9795L55.4219 84.7842Z" fill="#0A0A0A"/>
<path d="M56.0249 83.709C56.1316 83.7271 56.2262 83.7672 56.3218 83.8184C56.5584 83.8856 56.8323 84.0185 57.0015 84.3574C57.1024 84.5608 57.1201 84.761 57.1108 84.9277L58.2124 87.0449L56.8218 86.3418C56.7964 86.358 56.7787 86.3902 56.7515 86.4043C56.3007 86.6363 55.7755 86.4818 55.4937 86.0762C55.3594 85.9447 55.2206 85.7802 55.1421 85.5605C55.1297 85.5255 55.1356 85.486 55.1265 85.4512C55.0587 85.3872 54.9803 85.3135 54.9233 85.209C54.7236 84.84 54.8023 84.4711 54.9233 84.248C54.9681 84.166 55.0407 84.1196 55.0874 84.0684C55.1001 84.0522 55.1127 84.0369 55.1265 84.0215C55.1637 83.9853 55.1778 83.9424 55.1968 83.9277L55.6968 83.5371L56.0249 83.709Z" fill="#0A0A0A"/>
<path d="M53.5356 81.9883C53.8358 81.9222 54.1421 81.9872 54.3872 82.1992C54.6765 82.3153 54.8958 82.5218 55.0278 82.7617C55.0446 82.7923 55.045 82.8324 55.0591 82.8633L56.4419 84.2617L56.0356 84.2227C56.0498 84.4992 55.9601 84.7794 55.7466 84.9883C55.4049 85.3214 54.8959 85.3485 54.5122 85.0977C54.2688 85.0226 54.0177 84.9216 53.8013 84.7461C53.5377 84.5322 53.3556 84.2432 53.2778 83.9023C53.1979 83.8564 53.0893 83.8033 52.9966 83.6992C52.8178 83.4972 52.6738 83.1691 52.7544 82.793L52.9419 81.9258L53.5356 81.9883Z" fill="#0A0A0A"/>
<path d="M50.4497 80.2314C50.5656 80.2314 50.6679 80.2485 50.6997 80.2549C50.7481 80.2646 50.7962 80.2824 50.8403 80.2939C50.931 80.3177 51.0446 80.3493 51.1685 80.3877C51.474 80.4826 51.7434 80.671 51.9497 80.8408C52.173 81.0247 52.4127 81.2587 52.6606 81.5283C52.8093 81.6895 53.0502 81.8788 53.4106 82.083L54.856 82.7393L54.9341 82.7705L55.0122 82.8096L55.0981 82.8643C55.571 83.146 55.7291 83.7573 55.4497 84.2314C55.168 84.7065 54.5497 84.8647 54.0747 84.583L54.0435 84.5674C52.8027 84.0895 51.7941 83.5431 51.1841 82.8799C51.1728 82.8676 51.1561 82.8605 51.145 82.8486L49.9653 82.1455L49.8794 82.0908C49.5939 81.9215 49.4401 81.6321 49.4106 81.3252L48.9575 80.2314H50.4497Z" fill="#0A0A0A"/>
<path d="M48.459 81.332C49.694 81.3033 51.0604 81.7609 52.5215 82.5508C52.9663 82.6394 53.3099 83.0154 53.3262 83.4883C53.3436 84.0379 52.9147 84.4988 52.3652 84.5195H52.2637L51.9824 84.5352L51.7402 84.3945C50.3449 83.6167 49.2798 83.314 48.5059 83.332C47.6577 83.3521 47.0695 83.5871 46.6543 83.957C46.3378 84.239 46.0888 84.4615 45.9121 84.6055C45.8292 84.673 45.7362 84.7462 45.6543 84.8008C45.6233 84.8214 45.5343 84.8812 45.4199 84.9258C45.3846 84.9395 45.1838 85.0176 44.9277 84.9883C44.7757 84.9706 44.5545 84.907 44.3574 84.7227C44.155 84.5331 44.0698 84.3013 44.0449 84.1289L43.9668 83.582L44.2012 83.3867C44.3205 83.2034 44.4946 83.0698 44.709 82.9961C44.8503 82.8783 45.0564 82.7052 45.3262 82.4648C46.1698 81.7132 47.2461 81.3606 48.459 81.332Z" fill="#0A0A0A"/>
<path d="M49.7769 80.209C49.8288 80.2251 49.8653 80.2734 49.9097 80.2949C50.2264 80.3877 50.4723 80.6148 50.5737 80.9277L50.6362 81.0059V81.3574C50.6362 81.3897 50.6351 81.4397 50.6284 81.498C50.6236 81.5392 50.6022 81.6712 50.5347 81.8184C50.4748 81.9471 50.2259 82.3876 49.6519 82.4043C49.3309 82.4134 49.1148 82.2592 48.9956 82.1621C48.6346 82.0377 48.3797 81.7266 48.3394 81.334L47.4487 80.2324H49.1128C49.2967 80.161 49.5214 80.1302 49.7769 80.209Z" fill="#0A0A0A"/>
<path d="M50.2803 81.3076C50.3054 81.4944 50.2938 81.7152 50.1553 81.9482C50.1039 82.0346 50.0343 82.0947 49.9756 82.1514C49.7756 82.4327 49.4517 82.5756 49.1006 82.5498L48.9678 82.5967L48.6084 82.417C48.5729 82.3991 48.5181 82.3719 48.46 82.3311C48.4114 82.2969 48.2955 82.2078 48.1943 82.0576C48.1511 81.9933 48.1194 81.8993 48.085 81.792H48.0771L48.085 81.7842C48.0313 81.6126 47.993 81.3999 48.0771 81.1592C48.165 80.9105 48.3348 80.7671 48.4521 80.6826C48.6888 80.353 49.108 80.1868 49.5225 80.2998C49.5426 80.3053 49.5577 80.3244 49.5771 80.3311L50.6318 80.0186L50.2803 81.3076Z" fill="#0A0A0A"/>
<path d="M47.459 82.3721C47.9817 82.194 48.5464 82.4744 48.7246 82.9971C48.9015 83.5182 48.6274 84.0832 48.1074 84.2627L48.0293 84.2861C47.4203 84.5499 46.8536 84.7455 46.373 84.8018C46.2618 84.815 46.1924 84.8347 46.1543 84.8486C46.1174 84.8622 46.1234 84.8686 46.1465 84.8486C46.0593 84.9248 45.9424 85.0183 45.8262 85.0908C45.8042 85.1044 45.614 85.2343 45.3574 85.2627C45.2082 85.279 44.8682 85.275 44.5684 85.0049C44.2725 84.7365 44.233 84.401 44.2324 84.2549V83.8486L44.3574 83.7158C44.4728 83.501 44.6631 83.3241 44.9121 83.2393L45.0059 83.208L45.0137 83.2158C45.3636 82.9777 45.7667 82.8619 46.1465 82.8174C46.3403 82.7942 46.7071 82.6889 47.2871 82.4346L47.3652 82.4033L47.459 82.3721ZM45.0605 83.2939L45.6699 84.2549H46.2324C46.2324 84.1218 46.204 83.7861 45.9121 83.5205C45.6164 83.2522 45.2773 83.2552 45.1387 83.2705C45.1104 83.2736 45.0854 83.289 45.0605 83.2939Z" fill="#0A0A0A"/>
<path d="M49.9233 82.2969C50.0935 82.295 50.3952 82.3348 50.6499 82.5859C50.8999 82.8329 50.9419 83.1288 50.9468 83.2812L50.9624 83.7656L50.7827 83.9062C50.6327 84.1403 50.3995 84.3224 50.103 84.3672H50.0718C49.7117 84.5536 49.3367 84.5751 49.0093 84.5234L47.7124 84.7266L47.6108 84.7422L47.603 84.7344L46.4312 84.9219L46.8765 84.5547C46.6683 84.4028 46.5118 84.1733 46.4702 83.8984C46.397 83.404 46.7096 82.9636 47.1733 82.8203C47.8114 82.5319 48.5402 82.3279 49.228 82.5312C49.236 82.5336 49.2444 82.5371 49.2515 82.5391C49.3032 82.5028 49.3588 82.4604 49.4155 82.4297C49.454 82.4086 49.6573 82.3009 49.9233 82.2969Z" fill="#0A0A0A"/>
<path d="M58.939 66.875L59.0327 66.8984L59.2437 66.9375L59.4155 67.0625C60.7627 68.0422 61.7992 68.5689 62.5483 68.75C62.961 68.8496 63.2501 68.8792 63.439 68.8672C63.5348 68.861 63.5875 68.8444 63.6108 68.8359C63.7971 68.6762 63.9625 68.5422 64.0952 68.4453C64.1569 68.4003 64.2404 68.3451 64.3296 68.2969C64.3721 68.274 64.4601 68.2338 64.564 68.2031C64.6114 68.1891 64.7939 68.1532 65.0327 68.1953L65.0405 68.1875L65.1343 68.2031C65.1529 68.2071 65.1709 68.2216 65.189 68.2266C65.2127 68.2348 65.2429 68.2316 65.2671 68.2422L68.5718 69.6797L65.228 70.1172C65.2145 70.1216 65.2027 70.129 65.189 70.1328C65.1215 70.1863 65.0307 70.2606 64.9155 70.3594C64.5191 70.6991 64.0274 70.8296 63.564 70.8594C63.1043 70.8884 62.6021 70.8214 62.0796 70.6953C60.9778 70.429 59.7256 69.7429 58.3452 68.75C57.9127 68.5663 57.649 68.1171 57.7515 67.6406C57.868 67.1012 58.3993 66.759 58.939 66.875ZM64.6343 69.6875L64.4702 70.0781C64.5192 70.0992 64.5735 70.0898 64.6187 70.1016L64.6343 69.6875Z" fill="#0A0A0A"/>
<path d="M64.625 68.7158C64.6333 68.7455 64.6584 68.7708 64.6641 68.8018C64.7629 69.3451 64.4028 69.867 63.8594 69.9658H63.8281C63.5705 70.0623 63.2895 70.1219 62.9922 70.0986C62.9109 70.157 62.7303 70.2779 62.4688 70.2939C62.1463 70.3126 61.8629 70.1745 61.6797 69.9814C61.5308 69.8237 61.4757 69.6568 61.4531 69.583C61.4079 69.4344 61.4062 69.3078 61.4062 69.2783V68.8096L61.5781 68.6768C61.6047 68.6358 61.6396 68.6041 61.6719 68.5674C61.8333 68.3161 62.0847 68.1128 62.4219 68.0439C62.6585 67.9961 62.871 68.0382 63.0391 68.083L66.0234 67.5361L64.625 68.7158Z" fill="#0A0A0A"/>
<path d="M95.7285 80.9961C96.85 80.8035 97.9802 80.8678 99.1035 81.1758C100.378 81.5258 101.321 82.3276 101.846 83.5352L102.689 85.5898L102.721 85.668L102.807 86.0117C103.036 86.3752 103.024 86.8505 102.729 87.1914C102.365 87.6067 101.73 87.6556 101.314 87.293L101.244 87.2227L101.01 87.0273L100.932 86.7305L100.814 86.2695L100.01 84.332C99.7311 83.6915 99.2803 83.2985 98.5801 83.1055C97.7281 82.8715 96.8934 82.8243 96.0723 82.9648C95.0609 83.1385 94.033 83.2534 92.9941 83.3086C92.1409 83.3539 90.8431 83.6678 89.0566 84.3008L88.9863 84.3242L88.916 84.3398L88.8223 84.3555C88.2804 84.4622 87.7494 84.1083 87.6426 83.5664C87.5372 83.026 87.8916 82.5021 88.4316 82.3945L88.4629 82.3867C90.2627 81.7529 91.7523 81.3772 92.8848 81.3164C93.8462 81.2653 94.796 81.1561 95.7285 80.9961Z" fill="#0A0A0A"/>
<path d="M94.0923 81.4668C94.3446 81.3721 94.6125 81.3811 94.8657 81.5059C95.064 81.5159 95.3585 81.5165 95.7563 81.5215C96.9464 81.5364 97.9916 82.0234 98.8501 82.8965C99.5744 83.6332 100.531 84.7591 101.717 86.248C102.094 86.59 102.168 87.1596 101.858 87.5762C101.528 88.0182 100.902 88.1076 100.459 87.7793L100.374 87.7168L100.272 87.6387L100.194 87.5371C99.0015 86.039 98.0769 84.9706 97.4204 84.3027C96.8901 83.7634 96.3387 83.5291 95.7329 83.5215C95.2811 83.5158 94.924 83.5049 94.6782 83.4902C94.562 83.4833 94.4375 83.4753 94.3345 83.459C94.2917 83.4522 94.1918 83.4364 94.0845 83.3965C94.0402 83.38 93.8974 83.3261 93.7563 83.2012C93.6004 83.0627 93.3483 82.7155 93.4517 82.2402C93.4543 82.222 93.4558 82.2037 93.4595 82.1855V82.1621L93.6548 81.4902L94.0923 81.4668Z" fill="#0A0A0A"/>
<path d="M99.8369 65.1777C100.358 64.9975 100.929 65.2737 101.11 65.7949L101.188 66.0293L101.196 66.1699C101.285 68.0895 101.369 69.5423 101.454 70.5293C101.484 70.8785 101.586 71.1267 101.72 71.3105C101.855 71.4948 102.064 71.6736 102.399 71.8184C103.401 72.2493 104.326 72.7469 105.157 73.3262C105.814 73.784 106.514 74.0819 107.259 74.2168C107.701 74.2969 108.031 74.3575 108.251 74.3965C108.36 74.4158 108.442 74.4268 108.493 74.4355C108.516 74.4395 108.533 74.4422 108.54 74.4434H108.524C108.516 74.4424 108.492 74.4372 108.462 74.4355C108.461 74.4355 108.38 74.4309 108.282 74.4434C108.252 74.4472 108.193 74.455 108.126 74.4746C108.072 74.4905 107.924 74.5394 107.774 74.6621C107.59 74.8139 107.371 75.1177 107.415 75.5371C107.451 75.8697 107.635 76.0764 107.696 76.1387L108.165 75.6699L108.712 74.4746L108.728 74.4824H108.735L108.837 74.5293L108.993 74.6074L109.118 74.7324L109.274 74.9277C109.286 74.9479 109.287 74.9752 109.298 74.998C109.325 75.0552 109.336 75.1164 109.353 75.1777C109.366 75.2257 109.401 75.271 109.407 75.3262C109.41 75.3547 109.399 75.3846 109.399 75.4121C109.4 75.4331 109.393 75.4535 109.392 75.4746C109.384 75.693 109.302 75.8605 109.204 75.998C109.162 76.057 109.124 76.1146 109.071 76.1621C109.058 76.1741 109.053 76.1985 109.04 76.209C108.952 76.2803 108.857 76.3054 108.79 76.334C108.778 76.339 108.771 76.3529 108.759 76.3574C108.726 76.3697 108.705 76.3918 108.688 76.3965C108.621 76.416 108.562 76.4239 108.532 76.4277C108.435 76.4397 108.354 76.4356 108.353 76.4355C108.317 76.4336 108.288 76.4285 108.282 76.4277C108.263 76.4253 108.244 76.4212 108.235 76.4199C108.214 76.4167 108.185 76.4091 108.157 76.4043C108.099 76.3944 108.015 76.3843 107.907 76.3652C107.683 76.3255 107.346 76.2585 106.899 76.1777C105.861 75.9897 104.893 75.5831 104.009 74.9668C103.299 74.4725 102.499 74.0364 101.61 73.6543C101.003 73.3929 100.483 73.0113 100.103 72.4902C99.7215 71.9682 99.5186 71.3571 99.4619 70.7012L99.1963 66.2637C99.1282 65.7981 99.3763 65.3376 99.8369 65.1777Z" fill="#0A0A0A"/>
<path d="M105.65 72.3535C106.13 72.3727 106.648 72.5859 107.119 72.8301C107.372 72.9607 107.873 73.0892 108.736 73.1191H108.814L108.884 73.1348L108.986 73.1504C109.529 73.2519 109.884 73.7794 109.783 74.3223C109.692 74.8036 109.272 75.1136 108.798 75.1113L108.861 75.166L108.572 75.1113L108.517 75.1035H108.509C107.728 75.0662 107.022 74.9513 106.447 74.7129L105.158 74.4707L105.056 74.4551C104.773 74.4022 104.551 74.2267 104.408 74.002L104.236 73.8691V73.4082C104.236 72.8221 104.681 72.5473 104.822 72.4785C104.981 72.4005 105.132 72.3781 105.197 72.3691C105.348 72.3485 105.514 72.3483 105.65 72.3535Z" fill="#0A0A0A"/>
<path d="M107.361 71.873C107.555 71.9261 107.708 72.0237 107.83 72.123L110.361 72.6465L109.001 73.1777C109.002 73.2462 109.016 73.319 109.001 73.3887C108.895 73.8922 108.424 74.2122 107.923 74.1621C107.605 74.1962 107.26 74.1594 106.947 73.9824C106.838 74.0016 106.688 74.0111 106.517 73.9668C106.126 73.8655 105.882 73.5661 105.798 73.2637C105.735 73.0366 105.77 72.8487 105.783 72.7871L105.892 72.248L106.173 72.1387C106.3 72.0411 106.443 71.9716 106.603 71.9434C106.821 71.8496 107.077 71.7962 107.361 71.873Z" fill="#0A0A0A"/>
<path d="M103.507 71.2354L103.608 71.2588L103.601 71.3057C104.09 71.3171 104.555 71.509 104.944 71.7432C105.085 71.8275 105.433 71.9488 106.124 71.9854H106.233L106.335 72.0166L106.437 72.04C106.967 72.1883 107.279 72.743 107.132 73.2744C106.984 73.8066 106.43 74.1173 105.897 73.9697L105.835 73.9541C105.111 73.9013 104.434 73.7745 103.913 73.4619C103.779 73.3814 103.674 73.3362 103.608 73.3135C103.587 73.3061 103.572 73.3001 103.562 73.2979C103.436 73.3016 103.28 73.3009 103.14 73.2822C103.101 73.277 102.901 73.2525 102.702 73.1338C102.594 73.0695 102.355 72.8965 102.249 72.5635C102.134 72.1975 102.253 71.8875 102.358 71.7197L102.585 71.3604L102.772 71.3213C102.991 71.2042 103.249 71.1641 103.507 71.2354ZM103.562 72.4697L104.054 72.7822C104.153 72.6229 104.269 72.3215 104.155 71.9619C104.052 71.6367 103.823 71.4729 103.726 71.415C103.682 71.3893 103.636 71.383 103.601 71.3682L103.562 72.4697Z" fill="#0A0A0A"/>
<path d="M102.696 70.7295C103.32 70.6834 103.803 71.0422 104.079 71.3311C104.129 71.3828 104.205 71.4514 104.321 71.5264L105.837 72.2998L105.501 72.3389C105.65 72.618 105.679 72.9577 105.524 73.2607C105.272 73.7521 104.664 73.9426 104.173 73.6904L104.087 73.6514V73.6436C103.526 73.3978 103.023 73.1044 102.657 72.7295C102.615 72.7359 102.575 72.7578 102.532 72.7607C102.497 72.7632 102.26 72.7859 102.009 72.6748C101.853 72.6058 101.598 72.4414 101.47 72.1123C101.344 71.7899 101.42 71.5053 101.478 71.3623L101.696 70.8154L102.032 70.7764C102.241 70.6839 102.468 70.6651 102.696 70.7295Z" fill="#0A0A0A"/>
<path d="M100.956 68.6582C101.263 68.6035 101.583 68.674 101.823 68.9082C102.439 69.1153 102.795 69.6457 103.002 70.0957L103.956 71.0566L103.909 71.0488L104.049 71.166L104.174 71.2754L104.245 71.3457C104.632 71.7375 104.627 72.3713 104.237 72.7598C103.844 73.1479 103.211 73.1448 102.823 72.752L102.799 72.7285C102.091 72.2071 101.497 71.6322 101.206 70.9707C101.172 70.8947 101.145 70.8331 101.12 70.791C101.111 70.7767 101.103 70.7617 101.096 70.752C100.997 70.7268 100.893 70.7038 100.799 70.666C100.745 70.6439 100.59 70.588 100.448 70.4629C100.374 70.3977 100.239 70.2557 100.159 70.0332C100.064 69.7719 100.08 69.4803 100.206 69.2285L100.526 68.5957L100.956 68.6582Z" fill="#0A0A0A"/>
<path d="M101.506 67.8184C101.723 67.8712 101.904 68.0004 102.045 68.1855C102.428 68.4625 102.585 68.8608 102.639 69.1934L103.084 70.0059L103.131 70.0918L103.959 71.5996L103.092 71.084C103.005 71.228 102.899 71.3639 102.741 71.4512C102.299 71.6935 101.769 71.5541 101.475 71.1621C101.463 71.1487 101.448 71.1367 101.436 71.123C101.42 71.099 101.395 71.0785 101.381 71.0527L101.35 70.998C101.035 70.6262 100.778 70.1927 100.709 69.6855C100.701 69.6801 100.687 69.6834 100.678 69.6777C100.643 69.6542 100.584 69.6111 100.522 69.5527C100.472 69.5049 100.343 69.3797 100.264 69.1777C100.166 68.9227 100.158 68.5658 100.374 68.248C100.544 67.9965 100.773 67.8973 100.858 67.8652L101.311 67.6934L101.506 67.8184Z" fill="#0A0A0A"/>
<path d="M98.847 73.0772C98.7102 72.5708 98.6195 72.0618 98.356 70.5542C98.4066 70.6779 98.4547 70.8079 98.4975 70.9628C98.6852 71.8134 98.8357 72.5674 98.847 73.0772Z" fill="#0A0A0A"/>
<path d="M97.2246 67.793C97.3707 67.6179 97.5683 67.4839 97.8105 67.4414C98.3542 67.3465 98.8714 67.7102 98.9668 68.2539L98.9746 68.3477C99.1426 68.8201 99.2452 69.3221 99.1465 69.8242C99.155 69.8338 99.1695 69.8379 99.1777 69.8477C99.2055 69.8809 99.2466 69.9353 99.2871 70.0039C99.3217 70.0625 99.3922 70.1945 99.4199 70.3789C99.425 70.4126 99.4106 70.4496 99.4121 70.4883L99.9746 71.8164L99.5996 71.7383C99.5973 71.9094 99.6066 72.0819 99.5762 72.2539C99.5654 72.3146 99.5473 72.3897 99.5293 72.457C99.5162 72.5057 99.4831 72.6367 99.4043 72.7695C99.3683 72.8301 99.259 73.0009 99.0449 73.1289C98.7568 73.3009 98.3758 73.3302 98.0449 73.1523C97.802 73.0213 97.685 72.8279 97.6465 72.7617C97.5967 72.6759 97.5675 72.5946 97.5527 72.5508C97.5022 72.3999 97.4789 72.2318 97.4668 72.1289C97.4515 71.9985 97.4396 71.8403 97.4277 71.6602C97.4125 71.4276 97.3993 71.2336 97.3887 71.082C97.2936 70.9593 97.2068 70.8147 97.1777 70.6367C97.1631 70.5459 97.1707 70.4627 97.1777 70.3867C97.1078 70.0941 97.1293 69.8086 97.1777 69.582L97.0449 68.8164L97.0293 68.8008L96.998 68.5977L97.0059 68.5898L96.7715 67.3086L97.2246 67.793Z" fill="#0A0A0A"/>
<path d="M98.1162 67.457C98.6203 67.331 99.1101 67.6177 99.2803 68.0977C99.8521 69.2969 100.221 70.3678 100.265 71.2617C100.298 71.9355 100.376 72.3017 100.437 72.457L99.8506 72.6758L99.9912 72.3398C99.8947 72.3014 99.7135 72.2434 99.4834 72.2773C99.2216 72.3163 98.9978 72.4529 98.8506 72.6367C98.7231 72.7961 98.6818 72.9582 98.6631 73.043C98.6439 73.131 98.6397 73.2047 98.6396 73.2461C98.6397 73.2832 98.6442 73.3195 98.6475 73.3477L99.7959 72.8242L99.8506 72.6758L100.437 72.457C100.498 72.617 100.55 72.775 100.585 72.9023C100.596 72.9423 100.639 73.0844 100.64 73.2461C100.64 73.2877 100.643 73.5987 100.413 73.8867C100.264 74.073 100.044 74.2136 99.7803 74.2539C99.5445 74.289 99.3503 74.2319 99.249 74.1914L98.9756 74.082L98.874 73.9414C98.7469 73.8166 98.6391 73.6659 98.5928 73.4805L98.5693 73.3867L98.624 73.3555C98.61 73.3156 98.5979 73.2574 98.5693 73.1836C98.3869 72.7128 98.3074 72.0728 98.2725 71.3633C98.2485 70.8733 98.0219 70.0867 97.4834 68.957L97.4365 68.8633L97.4131 68.7617L97.3896 68.668C97.2557 68.1322 97.5804 67.591 98.1162 67.457Z" fill="#0A0A0A"/>
<path d="M98.8965 71.3281C99.3685 71.0449 99.9862 71.2005 100.271 71.6719L100.318 71.7578L100.357 71.8125L100.381 71.8828C100.424 71.9837 100.464 72.0832 100.506 72.1797L100.521 72.0938L101.943 74.4453L101.998 74.5312C102.128 74.7468 102.156 74.9889 102.115 75.2188C102.128 75.2633 102.137 75.3164 102.154 75.375C102.181 75.4652 102.237 75.6421 102.248 75.8125C102.251 75.8603 102.252 75.97 102.225 76.1016C102.204 76.2007 102.113 76.5655 101.725 76.7812C101.298 77.0178 100.906 76.868 100.779 76.8047C100.639 76.7343 100.549 76.6438 100.514 76.6094C100.385 76.4831 100.286 76.317 100.24 76.2422C100.173 76.1321 100.092 75.9952 100.006 75.8359C99.6571 75.1906 99.1835 74.1503 98.584 72.75L98.5527 72.7031C98.2695 72.2311 98.4251 71.6134 98.8965 71.3281Z" fill="#0A0A0A"/>
<path d="M100.768 71.71C101.278 71.5039 101.864 71.7543 102.072 72.2646L102.088 72.3271C102.607 73.3084 102.971 74.1824 103.096 74.9209C103.138 75.1725 103.188 75.3592 103.236 75.4834C103.274 75.5797 103.306 75.6208 103.314 75.6318C103.428 75.7507 103.543 75.8778 103.627 75.9912C103.656 76.0309 103.748 76.1561 103.807 76.3193C103.831 76.3865 103.916 76.6207 103.846 76.9131C103.805 77.081 103.712 77.2572 103.557 77.4053C103.432 77.5242 103.292 77.5848 103.174 77.624L103.158 77.6318C103.139 77.6378 103.121 77.6508 103.104 77.6553L102.643 77.7725L102.455 77.6318C102.201 77.5379 101.979 77.3478 101.869 77.0771L101.838 76.9912L101.814 76.9443C101.421 76.4924 101.23 75.8671 101.127 75.2568C101.125 75.2444 101.122 75.2306 101.119 75.2178L100.455 73.6006L100.51 73.6318C100.443 73.4967 100.378 73.3507 100.299 73.2021L100.252 73.1084L100.213 73.0146C100.007 72.504 100.257 71.9179 100.768 71.71Z" fill="#0A0A0A"/>
<path d="M103.261 73.2666C103.79 73.1065 104.343 73.4022 104.503 73.9307L104.527 74.0244C104.809 74.6049 105.018 75.209 104.964 75.8057C104.963 75.8155 104.965 75.8283 104.964 75.8369C105.006 75.8748 105.051 75.9117 105.089 75.9541C105.112 75.9795 105.269 76.1486 105.339 76.4072C105.381 76.5639 105.418 76.8575 105.246 77.165C105.071 77.4744 104.798 77.5967 104.644 77.6416L104.128 77.7979L103.91 77.6104C103.676 77.5088 103.495 77.3216 103.394 77.0713C103.021 76.6638 102.952 76.1491 102.972 75.751L102.332 73.6494L102.628 73.8994C102.73 73.6078 102.943 73.3631 103.261 73.2666Z" fill="#0A0A0A"/>
<path d="M104.429 73.8398C104.835 74.0331 105.03 74.4641 104.968 74.8867C105 75.118 105.018 75.3553 104.984 75.5898C104.935 75.9203 104.794 76.3018 104.453 76.582C104.3 76.7068 104.235 76.7839 104.218 76.8086C104.174 76.8747 104.095 76.9929 104 77.0898C103.972 77.1179 103.916 77.1714 103.843 77.2227C103.791 77.2595 103.606 77.3813 103.335 77.4023C103.174 77.4149 102.972 77.3941 102.773 77.2852C102.575 77.1763 102.447 77.0187 102.375 76.8867C102.339 76.8228 102.346 76.7497 102.328 76.6914C102.304 76.6308 102.293 76.5682 102.281 76.5039C102.275 76.4522 102.25 76.4157 102.25 76.3945V76.2539L102.289 76.1211C102.305 76.0463 102.309 75.9666 102.343 75.8945L102.39 75.8086L103.96 76.3945H104.25C104.25 76.3493 104.248 76.1409 104.125 75.918C104.053 75.7891 103.928 75.6344 103.734 75.5273C103.538 75.4203 103.337 75.3979 103.179 75.4102C102.916 75.431 102.74 75.5505 102.695 75.582C102.631 75.6273 102.586 75.6751 102.57 75.6914C102.521 75.7411 102.507 75.7622 102.554 75.6914C102.677 75.508 102.841 75.3511 103.007 75.1992L102.914 74.707L103.054 74.4102L103.101 74.3164C103.338 73.8193 103.931 73.6052 104.429 73.8398Z" fill="#0A0A0A"/>
<path d="M102.488 75.1719C103 75.374 103.251 75.9553 103.05 76.4688L103.019 76.5625L103.011 76.5547C102.572 77.9115 102.136 78.9958 101.667 79.7422C101.281 80.3581 101.207 80.6722 101.207 80.7656C101.207 80.9661 101.198 81.1573 101.183 81.3047C101.177 81.3638 101.168 81.4973 101.121 81.6328C101.102 81.6852 101.029 81.8756 100.847 82.0469C100.739 82.1479 100.563 82.2713 100.324 82.3125C100.094 82.3518 99.8926 82.2967 99.7378 82.2266H99.7222L99.2534 81.9922L99.2065 81.7344C99.0847 81.4902 99.0524 81.2038 99.1597 80.9297L99.1909 80.8359L99.2065 80.7969C99.2066 80.7876 99.2066 80.7754 99.2065 80.7656C99.2069 80.0801 99.5454 79.3597 99.9722 78.6797C100.082 78.5043 100.172 78.2774 100.292 78.0234L100.488 77.5391L100.496 77.6094C100.694 77.1411 100.916 76.574 101.136 75.8906L101.152 75.8281L101.191 75.7344C101.393 75.2219 101.974 74.971 102.488 75.1719Z" fill="#0A0A0A"/>
<path d="M101.924 75.2617C102.369 75.4595 102.576 75.9372 102.471 76.3945C102.372 77.6993 102.161 78.792 101.768 79.5664C101.599 79.8976 101.424 80.196 101.236 80.4414C101.059 80.6725 100.816 80.9401 100.486 81.0977C100.359 81.1581 100.211 81.2206 100.08 81.2617C100.041 81.274 99.8709 81.3268 99.666 81.3164C99.5702 81.3115 99.2646 81.2849 99.002 81.0273C98.7476 80.7771 98.7116 80.48 98.7207 80.2617C98.7201 80.2356 98.7192 80.2099 98.7207 80.1836C98.7239 80.1566 98.7161 80.1285 98.7207 80.1055L98.752 79.9805L98.7988 79.832L98.8379 79.7383L100.674 80.4648C100.707 80.257 100.701 79.8928 100.4 79.5977C100.143 79.3477 99.8483 79.3283 99.7676 79.3242C99.6584 79.3187 99.5763 79.3344 99.5488 79.3398C99.5172 79.3462 99.4954 79.3527 99.4863 79.3555C99.4963 79.3514 99.523 79.3391 99.5723 79.3164C99.5832 79.3058 99.6113 79.2815 99.6504 79.2305C99.7373 79.1169 99.8492 78.9303 99.9863 78.6602C100.199 78.2414 100.387 77.4541 100.479 76.1914L100.494 76.0195L100.564 75.8633L100.604 75.7695C100.828 75.2652 101.419 75.0382 101.924 75.2617Z" fill="#0A0A0A"/>
<path d="M100.324 74.6963C100.849 74.8685 101.137 75.4372 100.965 75.9619L100.949 76.001C100.742 77.4002 100.472 78.5347 100.098 79.3369C99.8226 79.9259 99.5758 80.3852 99.4023 80.6729L99.418 80.6807L99.3867 80.7744C99.3345 80.9337 99.2336 81.0637 99.1211 81.1729L99.082 81.2432L98.8945 81.3525C98.8852 81.3574 98.8728 81.3558 98.8633 81.3604C98.823 81.3832 98.7652 81.4274 98.6836 81.4541C98.6032 81.4804 98.3669 81.5461 98.082 81.4619C97.7184 81.3537 97.4957 81.0721 97.4102 80.8057C97.3429 80.5955 97.3699 80.4163 97.3789 80.3525C97.3981 80.2198 97.4361 80.1176 97.4492 80.0869C97.468 80.0432 97.4907 80.0021 97.5039 79.9775C97.5515 79.889 97.6192 79.7852 97.6836 79.6885L98.0352 79.915L98.1055 80.04L99.3477 80.6416L99.3555 80.6338C99.364 80.573 99.3822 80.4023 99.3164 80.1963C99.2315 79.9318 99.015 79.6473 98.6523 79.54C98.3695 79.4565 98.1357 79.5227 98.0586 79.5479C97.9624 79.5794 97.8945 79.6228 97.8633 79.6416L98.0352 79.915L97.6836 79.6885C97.7637 79.5681 97.9568 79.1961 98.2852 78.4932C98.5428 77.9416 98.7947 77.0025 98.9961 75.6025L99.0039 75.5166L99.0352 75.4307L99.0664 75.3369C99.2389 74.8138 99.8005 74.5257 100.324 74.6963Z" fill="#0A0A0A"/>
<path d="M100.748 73.4336C101.215 73.6118 101.444 74.0999 101.342 74.5742L101.35 74.582C101.125 76.4717 100.773 77.9781 100.248 79.0039C99.8058 79.8669 99.4096 80.5465 99.0684 80.957C98.9368 81.1151 98.8412 81.2352 98.7793 81.3086L98.7637 81.3242C98.7668 81.3197 98.778 81.2973 98.7949 81.2695L98.748 81.3398L98.7012 81.3945C98.6968 81.3996 98.6931 81.4097 98.6855 81.418C98.6814 81.4225 98.6709 81.4323 98.6621 81.4414C98.6576 81.4461 98.6314 81.4681 98.5996 81.4961C98.5905 81.5041 98.5398 81.5522 98.4668 81.5977C98.4391 81.6149 98.3361 81.6847 98.1855 81.7227C98.0684 81.752 97.5041 81.8498 97.1309 81.3398C96.9828 81.1369 96.9511 80.9308 96.9434 80.8164C96.9355 80.6989 96.9488 80.6019 96.959 80.5508C96.9784 80.455 97.0093 80.3839 97.0215 80.3555L97.0918 80.2148L97.1309 80.1445L98.9121 80.9414C98.9222 80.8903 98.9432 80.7997 98.9355 80.6836C98.9278 80.5693 98.8961 80.3631 98.748 80.1602C98.379 79.656 97.8268 79.7468 97.7012 79.7773C97.6913 79.7798 97.6794 79.7903 97.6699 79.793L97.5293 79.6836C97.7154 79.4599 98.0265 78.9566 98.4668 78.0977C98.8249 77.3989 99.1472 76.1806 99.3652 74.3477L99.373 74.2227L99.4199 74.1055L99.459 74.0117C99.657 73.4983 100.233 73.2375 100.748 73.4336ZM97.6699 79.793C97.5326 79.8319 97.4366 79.8871 97.4121 79.9023C97.3413 79.9465 97.2895 79.9871 97.2793 79.9961C97.2462 80.0252 97.2164 80.0576 97.2012 80.0742C97.2076 80.0668 97.2223 80.05 97.248 80.0195C97.3049 79.9521 97.3987 79.8405 97.5293 79.6836L97.6699 79.793Z" fill="#0A0A0A"/>
<path d="M99.251 72.958C99.7313 73.1033 99.9939 73.5773 99.9229 74.0596L99.9307 74.0674C99.8322 75.8692 99.6169 77.3161 99.2354 78.3252C98.9065 79.1933 98.5864 79.8977 98.2744 80.3486C98.1542 80.5223 98.0476 80.6723 97.9619 80.7783C97.9301 80.8176 97.8537 80.909 97.7588 80.9893C97.7307 81.013 97.6822 81.0523 97.6182 81.0908C97.5657 81.1223 97.4307 81.1951 97.2432 81.2236C97.0251 81.2564 96.6824 81.2271 96.3994 80.958C96.1613 80.7308 96.1087 80.4651 96.0947 80.3564L96.0791 80.2236L96.0947 80.0986L96.1104 80.0127C96.1172 79.9696 96.1054 79.9228 96.1182 79.8799L96.1494 79.7783L97.8135 80.1377L98.0791 80.1064C98.0665 80.0056 98.0187 79.7394 97.7822 79.5127C97.5019 79.2461 97.1601 79.2151 96.9463 79.2471C96.8808 79.257 96.8245 79.2845 96.7744 79.3018L96.626 79.208C96.7884 78.9733 97.0375 78.4739 97.3604 77.6221C97.6303 76.9095 97.8348 75.7107 97.9307 73.958L97.9385 73.8408L97.9775 73.7236L98.001 73.6299C98.1603 73.1011 98.7222 72.7987 99.251 72.958ZM96.7744 79.3018C96.6855 79.3325 96.6171 79.354 96.5869 79.3721C96.5309 79.4057 96.4907 79.4404 96.4697 79.458C96.4414 79.4819 96.4196 79.5073 96.4072 79.5205C96.4429 79.4763 96.5098 79.3759 96.626 79.208L96.7744 79.3018Z" fill="#0A0A0A"/>
<path d="M99.3218 71.334C99.8361 71.5352 100.093 72.1165 99.8921 72.6309C99.6312 74.5069 99.245 76.0063 98.6733 77.0215C98.1841 77.8902 97.7943 78.572 97.5093 79.0684C97.3672 79.3159 97.2633 79.5078 97.189 79.6309C97.1548 79.6874 97.113 79.7461 97.0796 79.7949C97.0706 79.808 97.0569 79.8281 97.0405 79.8496C97.0313 79.8617 96.9853 79.9158 96.9233 79.9746C96.9025 79.9944 96.8112 80.0847 96.6655 80.1543C96.5911 80.1898 96.4332 80.2592 96.2202 80.2559C95.9665 80.2511 95.6926 80.1457 95.4937 79.9277C95.3247 79.7416 95.2706 79.5428 95.2515 79.4434C95.231 79.3369 95.2334 79.2486 95.2358 79.2012C95.2408 79.107 95.2605 79.0323 95.2671 79.0059L95.2749 78.9668L95.2905 78.9355L95.3374 78.7793L95.353 78.7324L97.2124 79.4043C97.2169 79.3756 97.2338 79.3406 97.2358 79.3027C97.2382 79.2562 97.2396 79.1714 97.2202 79.0684C97.2012 78.9694 97.1407 78.7708 96.9702 78.584C96.7715 78.3662 96.5047 78.2606 96.2515 78.2559C96.0395 78.2526 95.8803 78.3143 95.8062 78.3496C95.6614 78.4188 95.5674 78.5112 95.5483 78.5293C95.4908 78.5842 95.4504 78.6339 95.4468 78.6387L95.478 78.5918C95.54 78.4891 95.6361 78.3178 95.7749 78.0762C96.0561 77.5863 96.4422 76.9054 96.9312 76.0371C97.3243 75.3391 97.6784 74.105 97.9312 72.2246L97.9468 72.1074L97.9937 71.9902L98.0327 71.8965C98.235 71.3853 98.8092 71.1347 99.3218 71.334Z" fill="#0A0A0A"/>
<path d="M98.4858 70.1738C98.9917 70.3216 99.2737 70.8307 99.1655 71.3379L99.1733 71.3457C98.9529 73.2803 98.6523 74.8063 98.2437 75.8613C97.8836 76.79 97.5699 77.5079 97.3062 77.9316C97.2748 77.982 97.2442 78.0252 97.2202 78.0645L97.2124 78.1113C97.1682 78.2627 97.0776 78.385 96.978 78.4941L96.9312 78.5801L96.7515 78.6973C96.7294 78.712 96.5412 78.8474 96.2671 78.8691C96.098 78.8818 95.8432 78.8554 95.603 78.6816C95.3644 78.5086 95.2605 78.2781 95.2202 78.127C95.1538 77.8778 95.2058 77.6714 95.2124 77.6426C95.2277 77.5748 95.2494 77.5202 95.2593 77.4941C95.2939 77.404 95.3408 77.3194 95.3608 77.2832C95.4166 77.1827 95.4996 77.0432 95.603 76.877C95.7556 76.632 96.0139 76.0775 96.3765 75.1426C96.6903 74.333 96.9734 73.0113 97.189 71.1191L97.1968 71.0332L97.2202 70.9473L97.2515 70.8535C97.4068 70.3253 97.9571 70.0209 98.4858 70.1738ZM95.6421 77.0332L95.8999 77.4082L97.1577 77.9785C97.1675 77.8921 97.1976 77.7613 97.1577 77.6113C97.1177 77.4615 97.0127 77.2291 96.7749 77.0566C96.5345 76.8838 96.278 76.8637 96.1108 76.877C95.8445 76.8987 95.6639 77.0185 95.6421 77.0332Z" fill="#0A0A0A"/>
<path d="M97.8271 70.8828C98.3392 71.0898 98.5889 71.6755 98.3818 72.1875L98.3428 72.2812V72.2891C97.6004 74.0663 96.9604 75.4325 96.4365 76.3594C95.9719 77.1816 95.6337 77.9613 95.4053 78.6953C95.2785 79.1026 95.1821 79.4089 95.1162 79.6094C95.0843 79.7064 95.053 79.7901 95.0303 79.8516C95.0232 79.8706 94.9982 79.9308 94.9678 79.9922C94.9591 80.0096 94.9419 80.0489 94.9131 80.0938C94.9088 80.1009 94.8061 80.2712 94.6084 80.3984C94.4939 80.4714 94.1966 80.6265 93.8115 80.5234C93.4136 80.4157 93.2256 80.1156 93.1631 79.9844C93.0631 79.7729 93.0687 79.5758 93.0693 79.5547V79.4297L93.124 79.2109C93.1351 79.1733 93.1317 79.1307 93.1475 79.0938L93.1943 79H93.2178V78.9844C93.2784 78.8 93.3654 78.5058 93.4912 78.1016C93.7687 77.2098 94.1791 76.3003 94.7021 75.375C95.1648 74.5563 95.7611 73.2859 96.4912 71.5391V71.5312L96.5303 71.4375C96.7371 70.9272 97.3163 70.6785 97.8271 70.8828ZM94.335 78.5938C93.9453 78.4883 93.6423 78.6467 93.5303 78.7188C93.4104 78.7962 93.3324 78.8799 93.3037 78.9141C93.2731 78.9507 93.2554 78.9862 93.2412 79.0078L94.8271 79.5547H95.0693C95.0693 79.5287 95.069 79.4789 95.0615 79.4219C95.0553 79.3752 95.039 79.2584 94.9756 79.125C94.9135 78.9947 94.7297 78.7023 94.335 78.5938Z" fill="#0A0A0A"/>
<path d="M95.6157 77.9512C96.1617 77.8678 96.673 78.249 96.7563 78.7949C96.8384 79.3401 96.4657 79.8523 95.9204 79.9355H95.8267C94.3583 80.2809 93.1328 80.48 92.1782 80.498L90.5142 80.7559L90.4204 80.7715C90.1198 80.8174 89.8372 80.7134 89.6235 80.5293L89.3579 80.4121L89.272 79.8809C89.1802 79.3073 89.5654 78.9557 89.6548 78.8809C89.787 78.7706 89.9301 78.7035 90.022 78.6621C90.202 78.5813 90.3915 78.5551 90.4751 78.5449C90.5909 78.5308 90.7275 78.5193 90.8657 78.5137C91.1438 78.5026 91.5089 78.5057 91.9517 78.5137C92.3239 78.5203 92.7961 78.4816 93.3735 78.3965L95.522 77.9668L95.6157 77.9512Z" fill="#0A0A0A"/>
<path d="M94.5986 78.6914C95.1364 78.573 95.6654 78.9123 95.7861 79.4492C95.8861 79.9016 95.6556 80.332 95.2627 80.5352L95.3408 80.5742L95.0283 80.6367C94.2549 81.0031 93.4817 81.2485 92.7705 81.1758C92.7323 81.1719 92.6959 81.1636 92.6611 81.1602L92.3721 81.2305L92.2783 81.2539C91.9598 81.3243 91.6571 81.2162 91.4268 81.0195L91.0596 80.8633V80.2148C91.0596 80.0513 91.1019 79.8133 91.2549 79.5898C91.4135 79.3603 91.6335 79.2354 91.8252 79.1758L92.0986 79.1289C92.1408 79.127 92.1793 79.1283 92.208 79.1289C92.2676 79.1302 92.3353 79.1319 92.4033 79.1367C92.5442 79.1468 92.7385 79.1595 92.9736 79.1836C93.1529 79.2019 93.5622 79.1448 94.2783 78.793L94.3799 78.7383L94.4971 78.7148L94.5986 78.6914Z" fill="#0A0A0A"/>
<path d="M95.3247 79.3711C95.8744 79.3174 96.3647 79.7199 96.4185 80.2695C96.47 80.8174 96.0679 81.3013 95.52 81.3555L95.4185 81.3711L95.4106 81.3633C94.622 81.5276 93.9047 81.6059 93.2856 81.5664L91.77 81.7227L91.6685 81.7383C91.3555 81.7689 91.0761 81.6338 90.8716 81.4258L90.5669 81.2617V80.6758C90.5669 80.2256 90.8501 79.9601 90.9341 79.8867C91.0442 79.7907 91.1533 79.7293 91.2153 79.6992C91.348 79.6349 91.5017 79.5879 91.6294 79.5508C92.094 79.4168 92.6785 79.4748 93.2153 79.5664C93.5632 79.6258 94.1753 79.5979 95.1138 79.3945L95.2231 79.3789L95.3247 79.3711Z" fill="#0A0A0A"/>
<path d="M95.2759 78.7812C95.8542 78.407 96.5505 78.4657 97.0728 78.5859C97.4879 78.6815 97.8449 78.7008 98.1509 78.6719H98.3149C98.867 78.6556 99.33 79.0886 99.3462 79.6406C99.3613 80.1914 98.9283 80.6473 98.3774 80.6641L98.2759 80.6719L98.2681 80.6641C97.7358 80.7059 97.1876 80.66 96.6274 80.5312C96.4515 80.4907 96.3397 80.4829 96.2837 80.4844C96.1888 80.5527 96.0887 80.6263 95.9868 80.6797C95.9324 80.7082 95.7971 80.783 95.6196 80.8125C95.5283 80.8276 95.3467 80.8396 95.1353 80.7734C94.8884 80.6959 94.6575 80.5211 94.5259 80.2578L94.1821 79.5625L94.5649 79.2344C94.7214 78.9859 94.9683 78.8179 95.2759 78.7812Z" fill="#0A0A0A"/>
<path d="M97.9253 80.0576C98.033 80.533 97.7789 80.9883 97.3394 81.1748C97.1881 81.2802 97.0126 81.3832 96.7925 81.4248C96.716 81.4392 96.6397 81.4236 96.5659 81.4248C96.474 81.4904 96.3306 81.5745 96.1362 81.6045C95.8295 81.6511 95.5478 81.5518 95.3472 81.3857C95.1795 81.2469 95.0982 81.0917 95.0659 81.0186C95.0315 80.9407 95.0307 80.8631 95.019 80.8076L95.0034 80.792V80.7686C94.999 80.742 94.9889 80.7239 94.9878 80.7139L94.9331 80.2373L95.0894 80.0889C95.1356 79.9979 95.1972 79.92 95.269 79.8467C95.4072 79.6415 95.6081 79.4324 95.9487 79.3623C96.131 79.3253 96.2988 79.3463 96.4409 79.3779L99.3628 78.6045L97.9253 80.0576Z" fill="#0A0A0A"/>
<path d="M98.4458 75.4551C98.6878 75.5775 98.8829 75.7904 98.9614 76.0723C99.1082 76.6036 98.7974 77.1509 98.2661 77.2988L98.1724 77.3301L98.1646 77.3223C97.6405 77.5525 97.0924 77.712 96.5474 77.6582C96.523 77.6854 96.5035 77.7188 96.4771 77.7441C96.4532 77.7672 96.2777 77.9444 96.0005 78.0176C95.8207 78.0644 95.5106 78.0859 95.2036 77.8926C94.9152 77.7107 94.8048 77.4491 94.7661 77.3145L94.6177 76.791L94.8208 76.5566C94.9221 76.3412 95.0915 76.1712 95.3208 76.0723C95.7418 75.6808 96.2816 75.6361 96.6646 75.6738L98.7739 75.0801L98.4458 75.4551Z" fill="#0A0A0A"/>
<path d="M93.9224 76.4639C94.417 76.2171 94.9271 76.3006 95.2974 76.4326L96.313 76.417L96.3442 76.4092H96.5396L96.5552 76.417L97.5161 76.4014L97.1567 76.6357C97.3872 76.8164 97.5515 77.0858 97.5552 77.4014C97.5595 77.9519 97.1139 78.4028 96.563 78.4092H96.4614L96.4536 78.4014C95.8383 78.5085 95.2138 78.5457 94.6646 78.3232L94.6567 78.3154C94.6159 78.3406 94.5827 78.38 94.5396 78.4014C94.5104 78.4158 94.2988 78.5242 94.0239 78.5186C93.8547 78.5145 93.5582 78.4627 93.313 78.2061C93.0713 77.9515 93.0317 77.6564 93.0317 77.5029V76.9639L93.2739 76.8076C93.4348 76.6144 93.6585 76.4932 93.9224 76.4639Z" fill="#0A0A0A"/>
</svg>
